<svg xmlns="http://www.w3.org/2000/svg" xmlns:xlink="http://www.w3.org/1999/xlink" xmlns:lucid="lucid" width="1627.09" height="1108"><g transform="translate(-72.91358024691357 -40)" lucid:page-tab-id="0_0"><path d="M0 0h1870.87v1322.83H0z" fill="#fff"/><path d="M300.48 668.97a6 6 0 0 1 6-6h288a6 6 0 0 1 6 6v250a6 6 0 0 1-6 6h-288a6 6 0 0 1-6-6z" fill="#fcfcca"/><path d="M300.48 668.97a6 6 0 0 1 6-6h288a6 6 0 0 1 6 6v250a6 6 0 0 1-6 6h-288a6 6 0 0 1-6-6zM300.48 702.97h300M360.48 702.97v222M512.48 702.97v222" stroke="#3a414a" fill="none"/><use xlink:href="#a" transform="matrix(1,0,0,1,310.48191162906676,662.9708482485805) translate(112.87037037037038 24.444444444444443)"/><use xlink:href="#b" transform="matrix(1,0,0,1,305.48191162906676,705.4708482485805) translate(10.185185185185187 20.444444444444443)"/><use xlink:href="#c" transform="matrix(1,0,0,1,365.48191162906676,705.4708482485805) translate(0 20.444444444444443)"/><use xlink:href="#d" transform="matrix(1,0,0,1,517.4819116290668,705.4708482485805) translate(0 20.444444444444443)"/><use xlink:href="#e" transform="matrix(1,0,0,1,365.48191162906676,742.4708482485805) translate(0 20.444444444444443)"/><use xlink:href="#f" transform="matrix(1,0,0,1,517.4819116290668,742.4708482485805) translate(0 20.444444444444443)"/><use xlink:href="#g" transform="matrix(1,0,0,1,365.48191162906676,779.4708482485805) translate(0 20.444444444444443)"/><use xlink:href="#f" transform="matrix(1,0,0,1,517.4819116290668,779.4708482485805) translate(0 20.444444444444443)"/><use xlink:href="#h" transform="matrix(1,0,0,1,365.48191162906676,816.4708482485805) translate(0 20.444444444444443)"/><use xlink:href="#f" transform="matrix(1,0,0,1,517.4819116290668,816.4708482485805) translate(0 20.444444444444443)"/><use xlink:href="#i" transform="matrix(1,0,0,1,365.48191162906676,853.4708482485805) translate(0 20.444444444444443)"/><use xlink:href="#f" transform="matrix(1,0,0,1,517.4819116290668,853.4708482485805) translate(0 20.444444444444443)"/><use xlink:href="#j" transform="matrix(1,0,0,1,365.48191162906676,890.4708482485805) translate(0 20.444444444444443)"/><use xlink:href="#k" transform="matrix(1,0,0,1,517.4819116290668,890.4708482485805) translate(0 20.444444444444443)"/><path d="M860.48 491.3a6 6 0 0 1 6-6h288a6 6 0 0 1 6 6v176a6 6 0 0 1-6 6h-288a6 6 0 0 1-6-6z" fill="#e3fae3"/><path d="M860.48 491.3a6 6 0 0 1 6-6h288a6 6 0 0 1 6 6v176a6 6 0 0 1-6 6h-288a6 6 0 0 1-6-6zM860.48 525.3h300M920.48 525.3v148M1064.48 525.3v148" stroke="#3a414a" fill="none"/><use xlink:href="#l" transform="matrix(1,0,0,1,870.4819116290666,485.3085560051486) translate(101.14197530864197 24.444444444444443)"/><use xlink:href="#b" transform="matrix(1,0,0,1,865.4819116290666,527.8085560051486) translate(10.185185185185187 20.444444444444443)"/><use xlink:href="#m" transform="matrix(1,0,0,1,925.4819116290666,527.8085560051486) translate(0 20.444444444444443)"/><use xlink:href="#d" transform="matrix(1,0,0,1,1069.4819116290666,527.8085560051486) translate(0 20.444444444444443)"/><use xlink:href="#n" transform="matrix(1,0,0,1,925.4819116290666,564.8085560051486) translate(0 20.444444444444443)"/><use xlink:href="#f" transform="matrix(1,0,0,1,1069.4819116290666,564.8085560051486) translate(0 20.444444444444443)"/><use xlink:href="#o" transform="matrix(1,0,0,1,925.4819116290666,601.8085560051486) translate(0 20.444444444444443)"/><use xlink:href="#f" transform="matrix(1,0,0,1,1069.4819116290666,601.8085560051486) translate(0 20.444444444444443)"/><use xlink:href="#p" transform="matrix(1,0,0,1,865.4819116290666,638.8085560051486) translate(10.833333333333336 20.444444444444443)"/><use xlink:href="#c" transform="matrix(1,0,0,1,925.4819116290666,638.8085560051486) translate(0 20.444444444444443)"/><use xlink:href="#q" transform="matrix(1,0,0,1,1069.4819116290666,638.8085560051486) translate(0 20.444444444444443)"/><path d="M685.15 721.97h-64.23v-1h64.23zm135.4-66.66l-84.94.08-.8.2-.8.33-.74.46-.66.56-.56.66-.45.73-.34.8-.2.85-.07.88-.08 49.97h-1l.07-50 .07-1 .23-1 .4-.94.53-.87.66-.8.77-.65.87-.53.94-.4 1-.24 85.07-.07z" stroke="#3a414a" stroke-width=".05" fill="#3a414a"/><path fill="#fff"/><path d="M611.42 731.47h-1v-20h1z" stroke="#3a414a" stroke-width=".05" fill="#3a414a"/><path fill="#fff"/><path d="M620.92 721.97h-20v-1h20z" stroke="#3a414a" stroke-width=".05" fill="#3a414a"/><path fill="#fff"/><path d="M621.42 731.47h-1v-20h1z" stroke="#3a414a" stroke-width=".05" fill="#3a414a"/><path d="M859.83 664.8l-20-10 20-10" fill="#fff" fill-opacity="0"/><path d="M860.05 645.26l-19.1 9.55 19.1 9.56-.45.9-20.9-10.45 20.9-10.44z" stroke="#3a414a" stroke-width=".05" fill="#3a414a"/><path fill="#fff"/><path d="M859.83 655.3h-20v-1h20z" stroke="#3a414a" stroke-width=".05" fill="#3a414a"/><path d="M839.83 654.8l-.5 3.17-1.43 2.74-2.17 2.18-2.74 1.42-3.17.5-3.16-.5-2.75-1.42-2.16-2.17-1.42-2.73-.5-3.16.5-3.15 1.42-2.75 2.16-2.16 2.75-1.42 3.16-.5 3.16.5 2.73 1.42 2.17 2.16 1.42 2.75.5 3.16" fill="#fff"/><path d="M833.15 644.84l2.88 1.5 2.28 2.26 1.5 2.9.52 3.23-.5.08.5.1-.52 3.23-1.5 2.88-2.27 2.3-2.88 1.48-3.32.54-3.32-.54-2.88-1.5-2.27-2.27-1.5-2.87-.53-3.32.54-3.3 1.5-2.9 2.26-2.27 2.9-1.5 3.3-.53zm-6.33.96l-2.6 1.35-2.06 2.05-1.34 2.6-.5 3 .5 3 1.34 2.62 2.06 2.05 2.6 1.35 3 .48 3-.48 2.6-1.35 2.07-2.05 1.34-2.6.48-3-.48-3-1.35-2.62-2.07-2.05-2.6-1.35-3-.48z" stroke="#3a414a" stroke-width=".05" fill="#3a414a"/><use xlink:href="#r" transform="matrix(1,0,0,1,685.1460959485338,710.804181581941) translate(0 14.222222222222223)"/><path d="M860.48 705.46a6 6 0 0 1 6-6h308a6 6 0 0 1 6 6v213a6 6 0 0 1-6 6h-308a6 6 0 0 1-6-6z" fill="#d7faf5"/><path d="M860.48 705.46a6 6 0 0 1 6-6h308a6 6 0 0 1 6 6v213a6 6 0 0 1-6 6h-308a6 6 0 0 1-6-6zM860.48 739.46h320M920.48 739.46v185M1095.15 739.46v185" stroke="#3a414a" fill="none"/><use xlink:href="#s" transform="matrix(1,0,0,1,870.4819116290666,699.4628340077229) translate(83.39506172839505 24.444444444444443)"/><use xlink:href="#b" transform="matrix(1,0,0,1,865.4819116290666,741.9628340077229) translate(10.185185185185187 20.444444444444443)"/><use xlink:href="#t" transform="matrix(1,0,0,1,925.4819116290666,741.9628340077229) translate(0 20.444444444444443)"/><use xlink:href="#d" transform="matrix(1,0,0,1,1100.1485782957334,741.9628340077229) translate(0 20.444444444444443)"/><use xlink:href="#u" transform="matrix(1,0,0,1,925.4819116290666,778.9628340077229) translate(0 20.444444444444443)"/><use xlink:href="#v" transform="matrix(1,0,0,1,1100.1485782957334,778.9628340077229) translate(0 20.444444444444443)"/><use xlink:href="#w" transform="matrix(1,0,0,1,925.4819116290666,815.9628340077229) translate(0 20.444444444444443)"/><use xlink:href="#v" transform="matrix(1,0,0,1,1100.1485782957334,815.9628340077229) translate(0 20.444444444444443)"/><use xlink:href="#p" transform="matrix(1,0,0,1,865.4819116290666,852.9628340077229) translate(10.833333333333336 20.444444444444443)"/><use xlink:href="#x" transform="matrix(1,0,0,1,925.4819116290666,852.9628340077229) translate(0 20.444444444444443)"/><use xlink:href="#q" transform="matrix(1,0,0,1,1100.1485782957334,852.9628340077229) translate(0 20.444444444444443)"/><use xlink:href="#p" transform="matrix(1,0,0,1,865.4819116290666,889.9628340077229) translate(10.833333333333336 20.444444444444443)"/><use xlink:href="#c" transform="matrix(1,0,0,1,925.4819116290666,889.9628340077229) translate(0 20.444444444444443)"/><use xlink:href="#q" transform="matrix(1,0,0,1,1100.1485782957334,889.9628340077229) translate(0 20.444444444444443)"/><path d="M820.55 905.46v1l-29.1-.02v-1zm-175.53-184.4l1 .23.93.38.87.53.78.67.66.78.53.87.38.94.25 1 .07 173.48.07.88.2.83.33.8.45.74.56.64.67.56.73.45.8.33.82.2 46.75.02v1l-46.87-.02-1-.24-.95-.4-.87-.52-.78-.67-.66-.77-.53-.87-.38-.94-.24-1-.08-.98-.07-173.4-.2-.8-.33-.8-.45-.74-.56-.66-.67-.56-.73-.45-.8-.33-.84-.2-.88-.07h-23.06v-1h23.1z" stroke="#3a414a" stroke-width=".05" fill="#3a414a"/><path fill="#fff"/><path d="M611.42 731.47h-1v-20h1z" stroke="#3a414a" stroke-width=".05" fill="#3a414a"/><path fill="#fff"/><path d="M620.92 721.97h-20v-1h20z" stroke="#3a414a" stroke-width=".05" fill="#3a414a"/><path fill="#fff"/><path d="M621.42 731.47h-1v-20h1z" stroke="#3a414a" stroke-width=".05" fill="#3a414a"/><path d="M859.83 915.96l-20-10 20-10" fill="#fff" fill-opacity="0"/><path d="M860.05 896.4l-19.1 9.56 19.1 9.55-.45.9-20.9-10.44 20.9-10.45z" stroke="#3a414a" stroke-width=".05" fill="#3a414a"/><path fill="#fff"/><path d="M859.83 906.46h-20v-1h20z" stroke="#3a414a" stroke-width=".05" fill="#3a414a"/><path d="M839.83 905.96l-.5 3.16-1.43 2.74-2.17 2.17-2.74 1.42-3.17.5-3.16-.5-2.75-1.42-2.16-2.17-1.42-2.74-.5-3.16.5-3.17 1.42-2.75 2.16-2.17 2.75-1.4 3.16-.52 3.16.5 2.73 1.42 2.17 2.17 1.42 2.74.5 3.16" fill="#fff"/><path d="M833.15 895.98l2.88 1.5 2.28 2.27 1.5 2.9.52 3.23-.5.08.5.07-.52 3.24-1.5 2.9-2.27 2.26-2.88 1.5-3.32.53-3.32-.53-2.88-1.5-2.27-2.27-1.5-2.9-.53-3.3.54-3.32 1.5-2.9 2.26-2.26 2.9-1.5 3.3-.53zm-6.32.97l-2.6 1.34-2.06 2.05-1.35 2.6-.5 3 .5 3 1.35 2.6 2.05 2.07 2.6 1.34 3 .5 3-.5 2.6-1.34 2.07-2.06 1.34-2.6.48-3-.48-3-1.35-2.6-2.07-2.07-2.6-1.35-3-.5z" stroke="#3a414a" stroke-width=".05" fill="#3a414a"/><use xlink:href="#y" transform="matrix(1,0,0,1,701.8664038690785,895.2886744182316) translate(0 14.222222222222223)"/><use xlink:href="#z" transform="matrix(1,0,0,1,701.8664038690785,895.2886744182316) translate(72.88888888888891 14.222222222222223)"/><path d="M1260.43 863.97l-.25 1-.4.95-.52.87-.66.76-.78.67-.87.53-.94.4-.98.23-1 .07h-33.56v-1h33.52l.88-.07.84-.2.8-.33.73-.45.66-.56.55-.66.45-.74.33-.8.2-.8v-39.2h1zm0-60.64h-1l.04-132.17h1zM1255 543.38l1 .25.95.4.87.52.78.66.66.8.53.86.38.94.24 1 .08 1-.02 100.03h-1l.02-100-.07-.88-.2-.84-.33-.8-.45-.72-.56-.66-.67-.56-.73-.45-.8-.32-.82-.2-73.95-.07v-1z" stroke="#3a414a" stroke-width=".05" fill="#3a414a"/><path d="M1181.2 858.97l20 10-20 10" fill="#fff" fill-opacity="0"/><path d="M1202.3 868.97l-20.9 10.44-.44-.88 19.1-9.55-19.1-9.56.45-.88z" stroke="#3a414a" stroke-width=".05" fill="#3a414a"/><path fill="#fff"/><path d="M1201.2 869.47h-20v-1h20z" stroke="#3a414a" stroke-width=".05" fill="#3a414a"/><path d="M1221.2 868.97l-.52 3.16-1.42 2.74-2.17 2.17-2.75 1.42-3.16.5-3.17-.5-2.75-1.42-2.16-2.17-1.42-2.74-.5-3.16.5-3.16 1.42-2.74 2.16-2.16 2.75-1.42 3.16-.5 3.15.5 2.74 1.42 2.16 2.16 1.42 2.75.5 3.17" fill="#fff"/><path d="M1214.5 859l2.9 1.5 2.27 2.26 1.5 2.9.5 3.23-.48.07.48.08-.52 3.24-1.5 2.87-2.27 2.28-2.9 1.5-3.3.52-3.33-.53-2.9-1.5-2.26-2.27-1.48-2.88-.54-3.33.54-3.32 1.5-2.9 2.26-2.26 2.9-1.5 3.3-.54zm-6.3.96l-2.62 1.35-2.05 2.06-1.35 2.6-.5 3 .5 3 1.35 2.6 2.05 2.07 2.6 1.35 3 .48 3-.48 2.62-1.35 2.05-2.06 1.35-2.6.48-3-.48-3-1.35-2.6-2.05-2.06-2.6-1.34-3-.5z" stroke="#3a414a" stroke-width=".05" fill="#3a414a"/><path fill="#fff"/><path d="M1171.43 553.8h-1v-20h1z" stroke="#3a414a" stroke-width=".05" fill="#3a414a"/><path fill="#fff"/><path d="M1180.93 544.3h-20v-1h20z" stroke="#3a414a" stroke-width=".05" fill="#3a414a"/><path fill="#fff"/><path d="M1181.43 553.8h-1v-20h1z" stroke="#3a414a" stroke-width=".05" fill="#3a414a"/><use xlink:href="#A" transform="matrix(1,0,0,1,1244.716049382716,803.3333333333334) translate(0 14.222222222222223)"/><path d="M1360 386a6 6 0 0 1 6-6h308a6 6 0 0 1 6 6v287a6 6 0 0 1-6 6h-308a6 6 0 0 1-6-6z" fill="#ffd6f5"/><path d="M1360 386a6 6 0 0 1 6-6h308a6 6 0 0 1 6 6v287a6 6 0 0 1-6 6h-308a6 6 0 0 1-6-6zM1360 420h320M1420 420v259M1605.33 420v259" stroke="#3a414a" fill="none"/><use xlink:href="#B" transform="matrix(1,0,0,1,1370,380) translate(96.9753086419753 24.444444444444443)"/><use xlink:href="#b" transform="matrix(1,0,0,1,1365,422.5) translate(10.185185185185187 20.444444444444443)"/><use xlink:href="#C" transform="matrix(1,0,0,1,1425,422.5) translate(0 20.444444444444443)"/><use xlink:href="#d" transform="matrix(1,0,0,1,1610.3333333333333,422.5) translate(0 20.444444444444443)"/><use xlink:href="#n" transform="matrix(1,0,0,1,1425,459.5) translate(0 20.444444444444443)"/><use xlink:href="#f" transform="matrix(1,0,0,1,1610.3333333333333,459.5) translate(0 20.444444444444443)"/><use xlink:href="#o" transform="matrix(1,0,0,1,1425,496.5) translate(0 20.444444444444443)"/><use xlink:href="#f" transform="matrix(1,0,0,1,1610.3333333333333,496.5) translate(0 20.444444444444443)"/><use xlink:href="#D" transform="matrix(1,0,0,1,1425,533.5) translate(0 20.444444444444443)"/><use xlink:href="#f" transform="matrix(1,0,0,1,1610.3333333333333,533.5) translate(0 20.444444444444443)"/><use xlink:href="#E" transform="matrix(1,0,0,1,1425,570.5) translate(0 20.444444444444443)"/><use xlink:href="#E" transform="matrix(1,0,0,1,1610.3333333333333,570.5) translate(0 20.444444444444443)"/><use xlink:href="#F" transform="matrix(1,0,0,1,1425,607.5) translate(0 20.444444444444443)"/><use xlink:href="#G" transform="matrix(1,0,0,1,1610.3333333333333,607.5) translate(0 20.444444444444443)"/><use xlink:href="#p" transform="matrix(1,0,0,1,1365,644.5) translate(10.833333333333336 20.444444444444443)"/><use xlink:href="#H" transform="matrix(1,0,0,1,1425,644.5) translate(0 20.444444444444443)"/><use xlink:href="#q" transform="matrix(1,0,0,1,1610.3333333333333,644.5) translate(0 20.444444444444443)"/><path d="M1320.07 660v1l-38.87-.06v-1zm-64.8-116.72l1 .24.93.4.87.52.78.67.66.78.54.87.4.94.24 1 .07 101.13h-1l-.07-101-.2-.83-.33-.8-.45-.73-.56-.66-.66-.55-.73-.45-.8-.33-.84-.2-.87-.07h-73.3v-1h73.34z" stroke="#3a414a" stroke-width=".05" fill="#3a414a"/><path fill="#fff"/><path d="M1171.43 553.7h-1v-20h1z" stroke="#3a414a" stroke-width=".05" fill="#3a414a"/><path fill="#fff"/><path d="M1180.93 544.2h-20v-1h20z" stroke="#3a414a" stroke-width=".05" fill="#3a414a"/><path fill="#fff"/><path d="M1181.43 553.7h-1v-20h1z" stroke="#3a414a" stroke-width=".05" fill="#3a414a"/><path d="M1359.35 670.5l-20-10 20-10" fill="#fff" fill-opacity="0"/><path d="M1359.57 650.94l-19.1 9.55 19.1 9.55-.45.9-20.9-10.46 20.9-10.45z" stroke="#3a414a" stroke-width=".05" fill="#3a414a"/><path fill="#fff"/><path d="M1359.35 661h-20v-1h20z" stroke="#3a414a" stroke-width=".05" fill="#3a414a"/><path d="M1339.35 660.5l-.5 3.15-1.43 2.75-2.17 2.16-2.74 1.42-3.15.5-3.16-.5-2.76-1.42-2.16-2.16-1.42-2.75-.5-3.16.5-3.17 1.42-2.74 2.16-2.18 2.75-1.42 3.15-.5 3.16.5 2.75 1.42 2.17 2.17 1.42 2.73.5 3.16" fill="#fff"/><path d="M1332.67 650.52l2.88 1.5 2.28 2.27 1.5 2.87.5 3.24-.48.1.5.07-.53 3.24-1.5 2.9-2.27 2.27-2.88 1.5-3.32.53-3.32-.54-2.9-1.5-2.26-2.26-1.5-2.9-.53-3.3.54-3.33 1.5-2.88 2.26-2.3 2.9-1.48 3.3-.53zm-6.33.96l-2.6 1.35-2.06 2.06-1.34 2.6-.5 3 .5 3 1.34 2.6 2.06 2.05 2.6 1.35 3 .5 3-.5 2.6-1.35 2.07-2.05 1.36-2.6.48-3-.48-3-1.35-2.6-2.05-2.07-2.6-1.35-3-.48z" stroke="#3a414a" stroke-width=".05" fill="#3a414a"/><use xlink:href="#A" transform="matrix(1,0,0,1,1250.635727401263,649.8255755141128) translate(0 14.222222222222223)"/><path d="M830.96 240.15a6 6 0 0 1 6-6h317.52a6 6 0 0 1 6 6v213a6 6 0 0 1-6 6H836.96a6 6 0 0 1-6-6z" fill="#edf5ff"/><path d="M830.96 240.15a6 6 0 0 1 6-6h317.52a6 6 0 0 1 6 6v213a6 6 0 0 1-6 6H836.96a6 6 0 0 1-6-6zM830.96 274.15h329.52M890.96 274.15v185M1078.4 274.15v185" stroke="#3a414a" fill="none"/><use xlink:href="#I" transform="matrix(1,0,0,1,840.9638232581337,234.1542780025743) translate(121.08024691358025 24.444444444444443)"/><use xlink:href="#b" transform="matrix(1,0,0,1,835.9638232581337,276.6542780025743) translate(10.185185185185187 20.444444444444443)"/><use xlink:href="#J" transform="matrix(1,0,0,1,895.9638232581337,276.6542780025743) translate(0 20.444444444444443)"/><use xlink:href="#d" transform="matrix(1,0,0,1,1083.4149824952083,276.6542780025743) translate(0 20.444444444444443)"/><use xlink:href="#K" transform="matrix(1,0,0,1,895.9638232581337,313.6542780025743) translate(0 20.444444444444443)"/><use xlink:href="#q" transform="matrix(1,0,0,1,1083.4149824952083,313.6542780025743) translate(0 20.444444444444443)"/><use xlink:href="#L" transform="matrix(1,0,0,1,895.9638232581337,350.6542780025743) translate(0 20.444444444444443)"/><use xlink:href="#q" transform="matrix(1,0,0,1,1083.4149824952083,350.6542780025743) translate(0 20.444444444444443)"/><use xlink:href="#p" transform="matrix(1,0,0,1,835.9638232581337,387.6542780025743) translate(10.833333333333336 20.444444444444443)"/><use xlink:href="#C" transform="matrix(1,0,0,1,895.9638232581337,387.6542780025743) translate(0 20.444444444444443)"/><use xlink:href="#q" transform="matrix(1,0,0,1,1083.4149824952083,387.6542780025743) translate(0 20.444444444444443)"/><use xlink:href="#p" transform="matrix(1,0,0,1,835.9638232581337,424.6542780025743) translate(10.833333333333336 20.444444444444443)"/><use xlink:href="#c" transform="matrix(1,0,0,1,895.9638232581337,424.6542780025743) translate(0 20.444444444444443)"/><use xlink:href="#q" transform="matrix(1,0,0,1,1083.4149824952083,424.6542780025743) translate(0 20.444444444444443)"/><path d="M1281.06 433.38l.2.82.32.8.45.73.56.66.65.55.74.45.78.33.84.2.88.07h53v1h-53.04l-1-.08-1-.24-.93-.4-.87-.52-.78-.66-.66-.78-.53-.87-.4-.94-.24-1-.06-19.17h1zm-48.2-30.2v1l-32.4-.02v-1z" stroke="#3a414a" stroke-width=".05" fill="#3a414a"/><path fill="#fff"/><path d="M1340 448.5h-1v-20h1z" stroke="#3a414a" stroke-width=".05" fill="#3a414a"/><path fill="#fff"/><path d="M1359.5 439h-20v-1h20z" stroke="#3a414a" stroke-width=".05" fill="#3a414a"/><path d="M1161.2 393.66l20 10-20 10" fill="#fff" fill-opacity="0"/><path d="M1182.3 403.66l-20.9 10.45-.44-.9 19.1-9.54-19.1-9.55.45-.9z" stroke="#3a414a" stroke-width=".05" fill="#3a414a"/><path fill="#fff"/><path d="M1181.2 404.16h-20v-1h20z" stroke="#3a414a" stroke-width=".05" fill="#3a414a"/><path d="M1201.2 403.66l-.52 3.16-1.42 2.74-2.17 2.17-2.75 1.42-3.16.5-3.17-.5-2.75-1.42-2.16-2.17-1.42-2.74-.5-3.16.5-3.16 1.42-2.75 2.16-2.16 2.75-1.43 3.16-.5 3.15.5 2.74 1.42 2.16 2.15 1.42 2.75.5 3.16" fill="#fff"/><path d="M1194.5 393.7l2.9 1.48 2.27 2.27 1.5 2.9.5 3.23-.48.08.48.08-.52 3.24-1.5 2.88-2.27 2.28-2.9 1.5-3.3.53-3.33-.54-2.9-1.5-2.26-2.27-1.48-2.88-.54-3.32.54-3.32 1.5-2.9 2.26-2.26 2.9-1.5 3.3-.53zm-6.3.95l-2.62 1.35-2.05 2.05-1.35 2.6-.5 3 .5 3 1.35 2.62 2.05 2.05 2.6 1.35 3 .48 3-.48 2.62-1.35 2.05-2.05 1.35-2.6.48-3-.48-3-1.35-2.62-2.05-2.05-2.6-1.35-3-.48z" stroke="#3a414a" stroke-width=".05" fill="#3a414a"/><use xlink:href="#y" transform="matrix(1,0,0,1,1232.8696737883763,392.9920248034883) translate(0 14.222222222222223)"/><use xlink:href="#z" transform="matrix(1,0,0,1,1232.8696737883763,392.9920248034883) translate(72.88888888888891 14.222222222222223)"/><path d="M685.15 721.97h-64.23v-1h64.23zm105.88-280.82l-70.18.07-.82.2-.8.33-.73.45-.66.56-.56.66-.45.73-.33.8-.2.84-.07.87-.07 264.13h-1l.07-264.17.08-1 .25-1 .4-.93.52-.87.66-.78.78-.66.88-.55.94-.4 1-.23 70.3-.07z" stroke="#3a414a" stroke-width=".05" fill="#3a414a"/><path fill="#fff"/><path d="M621.42 731.47h-1v-20h1z" stroke="#3a414a" stroke-width=".05" fill="#3a414a"/><path fill="#fff"/><path d="M620.92 721.97h-20v-1h20z" stroke="#3a414a" stroke-width=".05" fill="#3a414a"/><path d="M830.3 450.65l-20-10 20-10" fill="#fff" fill-opacity="0"/><path d="M830.53 431.1l-19.1 9.55 19.1 9.55-.44.9-20.9-10.45 20.9-10.45z" stroke="#3a414a" stroke-width=".05" fill="#3a414a"/><path fill="#fff"/><path d="M830.3 441.15h-20v-1h20z" stroke="#3a414a" stroke-width=".05" fill="#3a414a"/><path d="M810.3 440.65l-.5 3.16-1.42 2.75-2.16 2.17-2.75 1.42-3.16.5-3.15-.5-2.75-1.42-2.16-2.17-1.42-2.74-.5-3.15.5-3.16 1.42-2.76 2.16-2.16 2.75-1.42 3.16-.5 3.17.5 2.75 1.42 2.16 2.16 1.42 2.75.5 3.15" fill="#fff"/><path d="M803.63 430.68l2.88 1.5 2.3 2.26 1.48 2.9.52 3.23-.5.08.5.08-.52 3.24-1.5 2.88-2.27 2.28-2.87 1.5-3.32.52-3.3-.53-2.9-1.5-2.27-2.27-1.5-2.88-.53-3.32.54-3.32 1.5-2.9 2.27-2.26 2.9-1.5 3.3-.53zm-6.32.96l-2.6 1.34-2.05 2.06-1.35 2.6-.48 3 .48 3 1.35 2.6 2.05 2.07 2.6 1.36 3 .48 3-.48 2.62-1.35 2.05-2.05 1.35-2.6.48-3-.48-3-1.35-2.6-2.05-2.07-2.6-1.34-3-.5z" stroke="#3a414a" stroke-width=".05" fill="#3a414a"/><path d="M300.48 286a6 6 0 0 1 6-6h288a6 6 0 0 1 6 6v213a6 6 0 0 1-6 6h-288a6 6 0 0 1-6-6z" fill="#e3fae3"/><path d="M300.48 286a6 6 0 0 1 6-6h288a6 6 0 0 1 6 6v213a6 6 0 0 1-6 6h-288a6 6 0 0 1-6-6zM300.48 320h300M360.48 320v185M533.74 320v185" stroke="#3a414a" fill="none"/><use xlink:href="#M" transform="matrix(1,0,0,1,310.48191162906676,280) translate(82.62345679012344 24.444444444444443)"/><use xlink:href="#b" transform="matrix(1,0,0,1,305.48191162906676,322.5) translate(10.185185185185187 20.444444444444443)"/><use xlink:href="#N" transform="matrix(1,0,0,1,365.48191162906676,322.5) translate(0 20.444444444444443)"/><use xlink:href="#d" transform="matrix(1,0,0,1,538.7389459777331,322.5) translate(0 20.444444444444443)"/><use xlink:href="#O" transform="matrix(1,0,0,1,365.48191162906676,359.5) translate(0 20.444444444444443)"/><use xlink:href="#q" transform="matrix(1,0,0,1,538.7389459777331,359.5) translate(0 20.444444444444443)"/><use xlink:href="#P" transform="matrix(1,0,0,1,365.48191162906676,396.5) translate(0 20.444444444444443)"/><use xlink:href="#v" transform="matrix(1,0,0,1,538.7389459777331,396.5) translate(0 20.444444444444443)"/><use xlink:href="#p" transform="matrix(1,0,0,1,305.48191162906676,433.5) translate(10.833333333333336 20.444444444444443)"/><use xlink:href="#J" transform="matrix(1,0,0,1,365.48191162906676,433.5) translate(0 20.444444444444443)"/><use xlink:href="#q" transform="matrix(1,0,0,1,538.7389459777331,433.5) translate(0 20.444444444444443)"/><use xlink:href="#p" transform="matrix(1,0,0,1,305.48191162906676,470.5) translate(10.833333333333336 20.444444444444443)"/><use xlink:href="#c" transform="matrix(1,0,0,1,365.48191162906676,470.5) translate(0 20.444444444444443)"/><use xlink:href="#q" transform="matrix(1,0,0,1,538.7389459777331,470.5) translate(0 20.444444444444443)"/><path d="M716.22 443.52l-.08 1-.23 1-.38.93-.54.87-.66.78-.78.66-.86.53-.95.38-1 .25-70.26.07v-1l70.13-.07.82-.2.8-.33.74-.45.65-.56.57-.67.45-.73.33-.8.2-.84.07-.88.03-61.74h1zm94.26-150.37h-88.74l-.88.07-.84.2-.8.34-.73.45-.66.57-.56.65-.46.74-.33.8-.2.8-.03 62.65h-1l.03-62.74.24-1 .4-.96.52-.87.67-.77.77-.67.87-.54.94-.4 1-.23 1-.08h88.78z" stroke="#3a414a" stroke-width=".05" fill="#3a414a"/><path fill="#fff"/><path d="M820.98 302.65h-1v-20h1z" stroke="#3a414a" stroke-width=".05" fill="#3a414a"/><path fill="#fff"/><path d="M830.48 293.15h-20v-1h20z" stroke="#3a414a" stroke-width=".05" fill="#3a414a"/><path fill="#fff"/><path d="M810.98 302.65h-1v-20h1z" stroke="#3a414a" stroke-width=".05" fill="#3a414a"/><path d="M601.2 439.5l20 10-20 10" fill="#fff" fill-opacity="0"/><path d="M622.3 449.5l-20.9 10.45-.44-.9 19.1-9.55-19.1-9.55.45-.9z" stroke="#3a414a" stroke-width=".05" fill="#3a414a"/><path fill="#fff"/><path d="M621.2 450h-20v-1h20z" stroke="#3a414a" stroke-width=".05" fill="#3a414a"/><path d="M641.2 449.5l-.52 3.16-1.42 2.75-2.17 2.17-2.75 1.42-3.16.5-3.17-.5-2.75-1.43-2.16-2.16-1.42-2.74-.5-3.16.5-3.16 1.42-2.75 2.16-2.17 2.75-1.42 3.16-.5 3.15.5 2.74 1.43 2.16 2.16 1.42 2.74.5 3.16" fill="#fff"/><path d="M634.5 439.53l2.9 1.5 2.27 2.27 1.5 2.88.5 3.24-.48.08.48.08-.52 3.24-1.5 2.88-2.27 2.28-2.9 1.5-3.3.53-3.33-.53-2.9-1.5-2.26-2.27-1.48-2.88-.54-3.32.54-3.32 1.5-2.88 2.26-2.28 2.9-1.5 3.3-.53zm-6.3.96l-2.62 1.34-2.05 2.05-1.35 2.6-.5 3 .5 3 1.35 2.6 2.05 2.06 2.6 1.35 3 .5 3-.5 2.62-1.34 2.05-2.05 1.35-2.6.48-3-.48-3-1.35-2.6-2.05-2.06-2.6-1.35-3-.5z" stroke="#3a414a" stroke-width=".05" fill="#3a414a"/><use xlink:href="#A" transform="matrix(1,0,0,1,700.4394353508793,360.41047125426405) translate(0 14.222222222222223)"/><path d="M170.57 716.35l.2.82.33.8.45.73.56.66.67.56.73.45.8.33.84.2.88.07H280v1H175.98l-1-.08-1-.25-.93-.4-.87-.52-.78-.66-.66-.78-.53-.88-.38-.94-.25-1-.02-63.72h1zM260.55 487l-85.43.07-.82.2-.8.33-.73.45-.66.56-.55.67-.45.73-.33.8-.2.84-.07.88.05 138.9h-1l-.05-138.94.08-1 .24-1 .4-.93.52-.87.66-.78.78-.66.87-.53.94-.38 1-.25 85.55-.07z" stroke="#3a414a" stroke-width=".05" fill="#3a414a"/><path fill="#fff"/><path d="M290.5 731.47h-1v-20h1z" stroke="#3a414a" stroke-width=".05" fill="#3a414a"/><path fill="#fff"/><path d="M300 721.97h-20v-1h20z" stroke="#3a414a" stroke-width=".05" fill="#3a414a"/><path fill="#fff"/><path d="M280.5 731.47h-1v-20h1z" stroke="#3a414a" stroke-width=".05" fill="#3a414a"/><path d="M299.83 496.5l-20-10 20-10" fill="#fff" fill-opacity="0"/><path d="M300.05 476.95l-19.1 9.55 19.1 9.55-.45.9-20.9-10.45 20.9-10.45z" stroke="#3a414a" stroke-width=".05" fill="#3a414a"/><path fill="#fff"/><path d="M299.83 487h-20v-1h20z" stroke="#3a414a" stroke-width=".05" fill="#3a414a"/><path d="M279.83 486.5l-.5 3.16-1.43 2.75-2.17 2.17L273 496l-3.17.5-3.16-.5-2.75-1.43-2.16-2.16-1.42-2.74-.5-3.16.5-3.16 1.42-2.75 2.16-2.17 2.75-1.42 3.16-.5 3.16.5 2.73 1.43 2.17 2.16 1.42 2.74.5 3.16" fill="#fff"/><path d="M273.15 476.53l2.88 1.5 2.28 2.27 1.5 2.88.52 3.24-.5.08.5.08-.52 3.24-1.5 2.88-2.27 2.28-2.88 1.5-3.32.53-3.32-.53-2.88-1.5-2.27-2.27-1.5-2.88-.53-3.32.54-3.32 1.5-2.88 2.26-2.28 2.9-1.5 3.3-.53zm-6.32.96l-2.6 1.34-2.06 2.05-1.35 2.6-.5 3 .5 3 1.35 2.6 2.05 2.06 2.6 1.35 3 .5 3-.5 2.6-1.34 2.07-2.05 1.34-2.6.48-3-.48-3-1.35-2.6-2.07-2.06-2.6-1.35-3-.5z" stroke="#3a414a" stroke-width=".05" fill="#3a414a"/><use xlink:href="#Q" transform="matrix(1,0,0,1,155.1851851851852,631.4293768855965) translate(0 14.222222222222223)"/><use xlink:href="#R" transform="matrix(1,0,0,1,155.1851851851852,631.4293768855965) translate(19.75308641975309 14.222222222222223)"/><path d="M1360 166a6 6 0 0 1 6-6h308a6 6 0 0 1 6 6v139a6 6 0 0 1-6 6h-308a6 6 0 0 1-6-6z" fill="#cfe4ff"/><path d="M1360 166a6 6 0 0 1 6-6h308a6 6 0 0 1 6 6v139a6 6 0 0 1-6 6h-308a6 6 0 0 1-6-6zM1360 200h320M1420 200v111M1604.45 200v111" stroke="#3a414a" fill="none"/><use xlink:href="#S" transform="matrix(1,0,0,1,1370,160) translate(82.1604938271605 24.444444444444443)"/><use xlink:href="#b" transform="matrix(1,0,0,1,1365,202.5) translate(10.185185185185187 20.444444444444443)"/><use xlink:href="#T" transform="matrix(1,0,0,1,1425,202.5) translate(0 20.444444444444443)"/><use xlink:href="#U" transform="matrix(1,0,0,1,1609.4461982488185,202.5) translate(0 20.444444444444443)"/><use xlink:href="#D" transform="matrix(1,0,0,1,1425,239.5) translate(0 20.444444444444443)"/><use xlink:href="#f" transform="matrix(1,0,0,1,1609.4461982488185,239.5) translate(0 20.444444444444443)"/><use xlink:href="#p" transform="matrix(1,0,0,1,1365,276.5) translate(10.833333333333336 20.444444444444443)"/><use xlink:href="#J" transform="matrix(1,0,0,1,1425,276.5) translate(0 20.444444444444443)"/><use xlink:href="#q" transform="matrix(1,0,0,1,1609.4461982488185,276.5) translate(0 20.444444444444443)"/><path d="M1244.96 293.15h-64.03v-1h64.03zm75.1 0h-44.53v-1h44.54z" stroke="#3a414a" stroke-width=".05" fill="#3a414a"/><path fill="#fff"/><path d="M1171.43 302.65h-1v-20h1z" stroke="#3a414a" stroke-width=".05" fill="#3a414a"/><path fill="#fff"/><path d="M1180.93 293.15h-20v-1h20z" stroke="#3a414a" stroke-width=".05" fill="#3a414a"/><path fill="#fff"/><path d="M1181.43 302.65h-1v-20h1z" stroke="#3a414a" stroke-width=".05" fill="#3a414a"/><path d="M1359.34 302.65l-20-10 20-10" fill="#fff" fill-opacity="0"/><path d="M1359.57 283.1l-19.1 9.55 19.1 9.56-.45.9-20.9-10.45 20.9-10.44z" stroke="#3a414a" stroke-width=".05" fill="#3a414a"/><path fill="#fff"/><path d="M1359.34 293.15h-20v-1h20z" stroke="#3a414a" stroke-width=".05" fill="#3a414a"/><path d="M1339.34 292.65l-.5 3.17-1.43 2.74-2.15 2.16-2.75 1.42-3.16.5-3.16-.5-2.74-1.42-2.17-2.16-1.42-2.74-.5-3.17.5-3.16 1.42-2.75 2.17-2.17 2.74-1.42 3.16-.5 3.16.5 2.75 1.42 2.16 2.17 1.43 2.74.5 3.15" fill="#fff"/><path d="M1332.66 282.68l2.9 1.5 2.26 2.27 1.5 2.88.52 3.24-.5.08.5.08-.53 3.24-1.48 2.9-2.27 2.26-2.9 1.5-3.3.53-3.33-.53-2.88-1.5-2.28-2.27-1.5-2.9-.52-3.3.53-3.33 1.5-2.88 2.27-2.27 2.88-1.5 3.32-.53zm-6.32.96l-2.6 1.35-2.06 2.05-1.35 2.6-.48 3 .48 3 1.35 2.6 2.06 2.07 2.6 1.34 3 .5 3-.5 2.6-1.34 2.07-2.06 1.35-2.6.5-3-.5-3-1.34-2.6-2.05-2.07-2.6-1.36-3-.48z" stroke="#3a414a" stroke-width=".05" fill="#3a414a"/><use xlink:href="#A" transform="matrix(1,0,0,1,1244.9627315219966,281.98761295049127) translate(0 14.222222222222223)"/><path d="M809.57 946a6 6 0 0 1 6-6h358a6 6 0 0 1 6 6v176a6 6 0 0 1-6 6h-358a6 6 0 0 1-6-6z" fill="#ffdda6"/><path d="M809.57 946a6 6 0 0 1 6-6h358a6 6 0 0 1 6 6v176a6 6 0 0 1-6 6h-358a6 6 0 0 1-6-6zM809.57 980h370M869.57 980v148M1098.88 980v148" stroke="#3a414a" fill="none"/><use xlink:href="#V" transform="matrix(1,0,0,1,819.5669291338584,940) translate(84.93827160493828 24.444444444444443)"/><use xlink:href="#b" transform="matrix(1,0,0,1,814.5669291338584,982.5) translate(10.185185185185187 20.444444444444443)"/><use xlink:href="#W" transform="matrix(1,0,0,1,874.5669291338584,982.5) translate(0 20.444444444444443)"/><use xlink:href="#d" transform="matrix(1,0,0,1,1103.8779527559054,982.5) translate(0 20.444444444444443)"/><use xlink:href="#X" transform="matrix(1,0,0,1,874.5669291338584,1019.5) translate(0 20.444444444444443)"/><use xlink:href="#f" transform="matrix(1,0,0,1,1103.8779527559054,1019.5) translate(0 20.444444444444443)"/><use xlink:href="#p" transform="matrix(1,0,0,1,814.5669291338584,1056.5) translate(10.833333333333336 20.444444444444443)"/><use xlink:href="#x" transform="matrix(1,0,0,1,874.5669291338584,1056.5) translate(0 20.444444444444443)"/><use xlink:href="#q" transform="matrix(1,0,0,1,1103.8779527559054,1056.5) translate(0 20.444444444444443)"/><use xlink:href="#p" transform="matrix(1,0,0,1,814.5669291338584,1093.5) translate(10.833333333333336 20.444444444444443)"/><use xlink:href="#c" transform="matrix(1,0,0,1,874.5669291338584,1093.5) translate(0 20.444444444444443)"/><use xlink:href="#q" transform="matrix(1,0,0,1,1103.8779527559054,1093.5) translate(0 20.444444444444443)"/><path d="M1260.5 1066.62l-.08 1-.24 1-.4.93-.52.87-.66.78-.78.66-.87.53-.94.38-1 .25-35.45.07v-1l35.33-.07.82-.2.8-.33.73-.45.66-.56.55-.67.45-.73.33-.8.2-.84.07-.88-.03-241.9h1zm-.04-263.3h-1l-.02-132.16h1zm-5.44-260.04l1 .24.93.4.87.52.78.67.66.78.53.87.38.94.25 1v101.13h-1v-101l-.2-.83-.33-.8-.45-.73-.56-.66-.67-.55-.73-.45-.8-.33-.84-.2-.88-.07h-73.05v-1h73.1z" stroke="#3a414a" stroke-width=".05" fill="#3a414a"/><path fill="#fff"/><path d="M1171.43 553.7h-1v-20h1z" stroke="#3a414a" stroke-width=".05" fill="#3a414a"/><path fill="#fff"/><path d="M1180.93 544.2h-20v-1h20z" stroke="#3a414a" stroke-width=".05" fill="#3a414a"/><path fill="#fff"/><path d="M1181.43 553.7h-1v-20h1z" stroke="#3a414a" stroke-width=".05" fill="#3a414a"/><path d="M1180.27 1062.6l20 10-20 10" fill="#fff" fill-opacity="0"/><path d="M1201.4 1072.6l-20.9 10.45-.45-.9 19.1-9.55-19.1-9.55.44-.9z" stroke="#3a414a" stroke-width=".05" fill="#3a414a"/><path fill="#fff"/><path d="M1200.27 1073.1h-20v-1h20z" stroke="#3a414a" stroke-width=".05" fill="#3a414a"/><path d="M1220.27 1072.6l-.5 3.16-1.43 2.75-2.16 2.17-2.75 1.42-3.16.5-3.16-.5-2.74-1.43-2.16-2.16-1.42-2.74-.5-3.16.5-3.16 1.42-2.75 2.16-2.17 2.75-1.42 3.17-.5 3.16.5 2.75 1.43 2.16 2.16 1.42 2.74.5 3.16" fill="#fff"/><path d="M1213.6 1062.63l2.87 1.5 2.28 2.27 1.5 2.88.5 3.24-.48.08.5.08-.53 3.24-1.5 2.88-2.27 2.28-2.88 1.5-3.33.53-3.32-.53-2.88-1.5-2.28-2.27-1.5-2.88-.54-3.32.54-3.32 1.5-2.88 2.27-2.28 2.88-1.5 3.32-.53zm-6.33.96l-2.6 1.34-2.06 2.05-1.34 2.6-.48 3 .48 3 1.35 2.6 2.06 2.06 2.6 1.35 3 .5 3-.5 2.62-1.34 2.05-2.05 1.35-2.6.48-3-.48-3-1.35-2.6-2.05-2.06-2.6-1.35-3-.5zM769.64 1109.18v1l-88.55-.06v-1zM645.02 720.84l1 .23.93.4.87.53.78.66.66.78.53.87.38.95.25 1 .07 371.83h-1l-.07-371.7-.2-.82-.33-.8-.45-.73-.56-.66-.67-.56-.73-.44-.8-.33-.84-.2-.88-.07h-23.06v-1h23.1z" stroke="#3a414a" stroke-width=".05" fill="#3a414a"/><path fill="#fff"/><path d="M611.42 731.26h-1v-20h1z" stroke="#3a414a" stroke-width=".05" fill="#3a414a"/><path fill="#fff"/><path d="M620.92 721.76h-20v-1h20z" stroke="#3a414a" stroke-width=".05" fill="#3a414a"/><path fill="#fff"/><path d="M621.42 731.26h-1v-20h1z" stroke="#3a414a" stroke-width=".05" fill="#3a414a"/><path d="M808.9 1119.68l-20-10 20-10" fill="#fff" fill-opacity="0"/><path d="M809.14 1100.12l-19.1 9.56 19.1 9.55-.45.9-20.9-10.45 20.9-10.45z" stroke="#3a414a" stroke-width=".05" fill="#3a414a"/><path fill="#fff"/><path d="M808.9 1110.18h-20v-1h20z" stroke="#3a414a" stroke-width=".05" fill="#3a414a"/><path d="M788.9 1109.68l-.5 3.16-1.42 2.74-2.16 2.17-2.75 1.42-3.16.5-3.15-.5-2.74-1.42-2.16-2.17-1.42-2.74-.5-3.16.5-3.16 1.42-2.75 2.17-2.16 2.75-1.4 3.16-.52 3.17.5 2.75 1.43 2.16 2.17 1.42 2.75.5 3.16" fill="#fff"/><path d="M782.23 1099.7l2.9 1.5 2.26 2.27 1.48 2.9.53 3.23-.5.08.5.08-.52 3.24-1.5 2.88-2.26 2.28-2.9 1.5-3.3.52-3.33-.53-2.9-1.5-2.27-2.27-1.5-2.88-.52-3.32.54-3.32 1.5-2.9 2.27-2.26 2.9-1.5 3.3-.53zm-6.32.97l-2.6 1.34-2.05 2.07-1.35 2.6-.48 3 .48 3 1.35 2.6 2.05 2.07 2.6 1.35 3 .47 3-.48 2.62-1.36 2.05-2.06 1.35-2.6.5-3-.5-3-1.35-2.6-2.05-2.07-2.6-1.33-3-.5z" stroke="#3a414a" stroke-width=".05" fill="#3a414a"/><use xlink:href="#Y" transform="matrix(1,0,0,1,618.9135802469136,1098.0838184992244) translate(0 14.222222222222223)"/><path d="M300.48 66a6 6 0 0 1 6-6h358a6 6 0 0 1 6 6v176a6 6 0 0 1-6 6h-358a6 6 0 0 1-6-6z" fill="#ffdda6"/><path d="M300.48 66a6 6 0 0 1 6-6h358a6 6 0 0 1 6 6v176a6 6 0 0 1-6 6h-358a6 6 0 0 1-6-6zM300.48 100h370M360.48 100v148M589.8 100v148" stroke="#3a414a" fill="none"/><use xlink:href="#Z" transform="matrix(1,0,0,1,310.48191162906676,60) translate(89.87654320987654 24.444444444444443)"/><use xlink:href="#b" transform="matrix(1,0,0,1,305.48191162906676,102.5) translate(10.185185185185187 20.444444444444443)"/><use xlink:href="#aa" transform="matrix(1,0,0,1,365.48191162906676,102.5) translate(0 20.444444444444443)"/><use xlink:href="#d" transform="matrix(1,0,0,1,594.7929352511138,102.5) translate(0 20.444444444444443)"/><use xlink:href="#X" transform="matrix(1,0,0,1,365.48191162906676,139.5) translate(0 20.444444444444443)"/><use xlink:href="#f" transform="matrix(1,0,0,1,594.7929352511138,139.5) translate(0 20.444444444444443)"/><use xlink:href="#p" transform="matrix(1,0,0,1,305.48191162906676,176.5) translate(10.833333333333336 20.444444444444443)"/><use xlink:href="#c" transform="matrix(1,0,0,1,365.48191162906676,176.5) translate(0 20.444444444444443)"/><use xlink:href="#q" transform="matrix(1,0,0,1,594.7929352511138,176.5) translate(0 20.444444444444443)"/><use xlink:href="#p" transform="matrix(1,0,0,1,305.48191162906676,213.5) translate(10.833333333333336 20.444444444444443)"/><use xlink:href="#J" transform="matrix(1,0,0,1,365.48191162906676,213.5) translate(0 20.444444444444443)"/><use xlink:href="#q" transform="matrix(1,0,0,1,594.7929352511138,213.5) translate(0 20.444444444444443)"/><path d="M751.3 287.38l.2.82.33.8.45.73.56.65.66.56.73.46.8.33.84.2.88.07h53.73v1H756.7l-1-.08-.98-.24-.94-.4-.87-.52-.77-.67-.66-.78-.53-.87-.4-.94-.24-1-.05-35.38h1zm-5.57-58.1l1 .24.95.4.87.52.4.34h-1.77l-.75-.3-.82-.2-35.12-.08v-1z" stroke="#3a414a" stroke-width=".05" fill="#3a414a"/><path fill="#fff"/><path d="M820.98 302.5h-1v-20h1z" stroke="#3a414a" stroke-width=".05" fill="#3a414a"/><path fill="#fff"/><path d="M830.48 293h-20v-1h20z" stroke="#3a414a" stroke-width=".05" fill="#3a414a"/><path fill="#fff"/><path d="M810.98 302.5h-1v-20h1z" stroke="#3a414a" stroke-width=".05" fill="#3a414a"/><path d="M671.2 219.7l20 10-20 10" fill="#fff" fill-opacity="0"/><path d="M692.32 229.7l-20.9 10.45-.44-.9 19.1-9.55-19.1-9.55.44-.9z" stroke="#3a414a" stroke-width=".05" fill="#3a414a"/><path fill="#fff"/><path d="M691.2 230.2h-20v-1h20z" stroke="#3a414a" stroke-width=".05" fill="#3a414a"/><path d="M711.2 229.7l-.5 3.16-1.43 2.75-2.16 2.17-2.74 1.42-3.16.5-3.16-.5-2.75-1.43-2.17-2.16-1.42-2.74-.5-3.16.5-3.16 1.43-2.74 2.16-2.17 2.74-1.42 3.16-.5 3.16.5 2.75 1.43 2.17 2.17 1.42 2.74.5 3.16" fill="#fff"/><path d="M704.52 219.73l2.88 1.5 2.28 2.27 1.5 2.88.5 3.24-.48.08.5.08-.53 3.24-1.5 2.9-2.27 2.26-2.88 1.5-3.32.53-3.32-.53-2.88-1.5-2.28-2.26-1.5-2.88-.53-3.32.53-3.32 1.5-2.88 2.27-2.28 2.88-1.5 3.32-.52zm-6.32.96l-2.6 1.34-2.06 2.05-1.35 2.6-.5 3 .5 3 1.34 2.6 2.05 2.06 2.6 1.35 3 .5 3-.5 2.6-1.34 2.06-2.05 1.35-2.6.5-3-.5-3-1.34-2.6-2.05-2.06-2.6-1.35-3-.5z" stroke="#3a414a" stroke-width=".05" fill="#3a414a"/><use xlink:href="#A" transform="matrix(1,0,0,1,735.4453936143505,230.78211487220125) translate(0 14.222222222222223)"/><path d="M110.57 716.12l.2.82.33.8.45.73.56.65.67.56.73.46.8.33.84.2.88.07H280v1H115.98l-1-.08-1-.24-.93-.4-.87-.52-.78-.67-.66-.77-.53-.87-.38-.95-.25-1.02-.05-377.9h1zM260.54 193.1l-145.42.07-.82.2-.8.32-.73.44-.66.57-.55.66-.45.74-.33.8-.2.83-.07.88.02 118.4h-1l-.02-118.43.08-1 .24-1 .4-.93.52-.87.66-.77.78-.67.87-.53.94-.4 1-.23 145.53-.08z" stroke="#3a414a" stroke-width=".05" fill="#3a414a"/><path fill="#fff"/><path d="M290.5 731.24h-1v-20h1z" stroke="#3a414a" stroke-width=".05" fill="#3a414a"/><path fill="#fff"/><path d="M300 721.74h-20v-1h20z" stroke="#3a414a" stroke-width=".05" fill="#3a414a"/><path fill="#fff"/><path d="M280.5 731.24h-1v-20h1z" stroke="#3a414a" stroke-width=".05" fill="#3a414a"/><path d="M299.8 202.6l-20-10 20-10" fill="#fff" fill-opacity="0"/><path d="M300.03 183.04l-19.1 9.55 19.1 9.55-.44.9-20.9-10.46 20.9-10.45z" stroke="#3a414a" stroke-width=".05" fill="#3a414a"/><path fill="#fff"/><path d="M299.8 193.1h-20v-1h20z" stroke="#3a414a" stroke-width=".05" fill="#3a414a"/><path d="M279.8 192.6l-.5 3.15-1.42 2.75-2.16 2.16-2.75 1.42-3.16.5-3.15-.5-2.74-1.42-2.16-2.16-1.42-2.75-.5-3.16.5-3.17 1.42-2.74 2.17-2.18 2.75-1.42 3.16-.5 3.17.5 2.75 1.42 2.16 2.17 1.42 2.73.5 3.16" fill="#fff"/><path d="M273.13 182.62l2.9 1.5 2.26 2.27 1.48 2.87.52 3.24-.5.1.5.07-.52 3.24-1.5 2.9-2.26 2.27-2.9 1.5-3.3.53-3.33-.54-2.9-1.5-2.27-2.26-1.5-2.9-.53-3.3.54-3.33 1.5-2.88 2.27-2.3 2.9-1.48 3.3-.53zm-6.32.96l-2.6 1.35-2.05 2.06-1.35 2.6-.48 3 .48 3 1.35 2.6 2.05 2.06 2.6 1.34 3 .5 3-.5 2.62-1.34 2.05-2.06 1.35-2.6.48-3-.48-3-1.35-2.6-2.05-2.07-2.6-1.35-3-.48z" stroke="#3a414a" stroke-width=".05" fill="#3a414a"/><g><use xlink:href="#Y" transform="matrix(1,0,0,1,78.91358024691357,317.0070430094081) translate(0 14.222222222222223)"/></g><defs><path fill="#3a414a" d="M84 4C-5 8 30-112 23-190h32v120c0 31 7 50 39 49 72-2 45-101 50-169h31l1 190h-30c-1-10 1-25-2-33-11 22-28 36-60 37" id="ab"/><path fill="#3a414a" d="M135-143c-3-34-86-38-87 0 15 53 115 12 119 90S17 21 10-45l28-5c4 36 97 45 98 0-10-56-113-15-118-90-4-57 82-63 122-42 12 7 21 19 24 35" id="ac"/><path fill="#3a414a" d="M100-194c63 0 86 42 84 106H49c0 40 14 67 53 68 26 1 43-12 49-29l28 8c-11 28-37 45-77 45C44 4 14-33 15-96c1-61 26-98 85-98zm52 81c6-60-76-77-97-28-3 7-6 17-6 28h103" id="ad"/><path fill="#3a414a" d="M114-163C36-179 61-72 57 0H25l-1-190h30c1 12-1 29 2 39 6-27 23-49 58-41v29" id="ae"/><g id="a"><use transform="matrix(0.06172839506172839,0,0,0.06172839506172839,0,0)" xlink:href="#ab"/><use transform="matrix(0.06172839506172839,0,0,0.06172839506172839,12.345679012345679,0)" xlink:href="#ac"/><use transform="matrix(0.06172839506172839,0,0,0.06172839506172839,23.45679012345679,0)" xlink:href="#ad"/><use transform="matrix(0.06172839506172839,0,0,0.06172839506172839,35.80246913580247,0)" xlink:href="#ae"/><use transform="matrix(0.06172839506172839,0,0,0.06172839506172839,43.148148148148145,0)" xlink:href="#ac"/></g><path fill="#3a414a" d="M30-248c87 1 191-15 191 75 0 78-77 80-158 76V0H30v-248zm33 125c57 0 124 11 124-50 0-59-68-47-124-48v98" id="af"/><path fill="#3a414a" d="M194 0L95-120 63-95V0H30v-248h33v124l119-124h40L117-140 236 0h-42" id="ag"/><g id="b"><use transform="matrix(0.06172839506172839,0,0,0.06172839506172839,0,0)" xlink:href="#af"/><use transform="matrix(0.06172839506172839,0,0,0.06172839506172839,14.814814814814813,0)" xlink:href="#ag"/></g><path fill="#3a414a" d="M24-231v-30h32v30H24zM24 0v-190h32V0H24" id="ah"/><path fill="#3a414a" d="M85-194c31 0 48 13 60 33l-1-100h32l1 261h-30c-2-10 0-23-3-31C134-8 116 4 85 4 32 4 16-35 15-94c0-66 23-100 70-100zm9 24c-40 0-46 34-46 75 0 40 6 74 45 74 42 0 51-32 51-76 0-42-9-74-50-73" id="ai"/><path fill="#3a414a" d="M-5 72V49h209v23H-5" id="aj"/><g id="c"><use transform="matrix(0.06172839506172839,0,0,0.06172839506172839,0,0)" xlink:href="#ah"/><use transform="matrix(0.06172839506172839,0,0,0.06172839506172839,4.876543209876543,0)" xlink:href="#ai"/><use transform="matrix(0.06172839506172839,0,0,0.06172839506172839,17.22222222222222,0)" xlink:href="#aj"/><use transform="matrix(0.06172839506172839,0,0,0.06172839506172839,29.5679012345679,0)" xlink:href="#ab"/><use transform="matrix(0.06172839506172839,0,0,0.06172839506172839,41.913580246913575,0)" xlink:href="#ac"/><use transform="matrix(0.06172839506172839,0,0,0.06172839506172839,53.02469135802468,0)" xlink:href="#ad"/><use transform="matrix(0.06172839506172839,0,0,0.06172839506172839,65.37037037037037,0)" xlink:href="#ae"/></g><path fill="#3a414a" d="M141-36C126-15 110 5 73 4 37 3 15-17 15-53c-1-64 63-63 125-63 3-35-9-54-41-54-24 1-41 7-42 31l-33-3c5-37 33-52 76-52 45 0 72 20 72 64v82c-1 20 7 32 28 27v20c-31 9-61-2-59-35zM48-53c0 20 12 33 32 33 41-3 63-29 60-74-43 2-92-5-92 41" id="ak"/><path fill="#3a414a" d="M24 0v-261h32V0H24" id="al"/><g id="d"><use transform="matrix(0.06172839506172839,0,0,0.06172839506172839,0,0)" xlink:href="#ac"/><use transform="matrix(0.06172839506172839,0,0,0.06172839506172839,11.11111111111111,0)" xlink:href="#ad"/><use transform="matrix(0.06172839506172839,0,0,0.06172839506172839,23.45679012345679,0)" xlink:href="#ae"/><use transform="matrix(0.06172839506172839,0,0,0.06172839506172839,30.80246913580247,0)" xlink:href="#ah"/><use transform="matrix(0.06172839506172839,0,0,0.06172839506172839,35.67901234567901,0)" xlink:href="#ak"/><use transform="matrix(0.06172839506172839,0,0,0.06172839506172839,48.02469135802469,0)" xlink:href="#al"/></g><path fill="#3a414a" d="M210-169c-67 3-38 105-44 169h-31v-121c0-29-5-50-35-48C34-165 62-65 56 0H25l-1-190h30c1 10-1 24 2 32 10-44 99-50 107 0 11-21 27-35 58-36 85-2 47 119 55 194h-31v-121c0-29-5-49-35-48" id="am"/><g id="e"><use transform="matrix(0.06172839506172839,0,0,0.06172839506172839,0,0)" xlink:href="#ad"/><use transform="matrix(0.06172839506172839,0,0,0.06172839506172839,12.345679012345679,0)" xlink:href="#am"/><use transform="matrix(0.06172839506172839,0,0,0.06172839506172839,30.80246913580247,0)" xlink:href="#ak"/><use transform="matrix(0.06172839506172839,0,0,0.06172839506172839,43.148148148148145,0)" xlink:href="#ah"/><use transform="matrix(0.06172839506172839,0,0,0.06172839506172839,48.02469135802469,0)" xlink:href="#al"/></g><path fill="#3a414a" d="M59-47c-2 24 18 29 38 22v24C64 9 27 4 27-40v-127H5v-23h24l9-43h21v43h35v23H59v120" id="an"/><path fill="#3a414a" d="M117-194c89-4 53 116 60 194h-32v-121c0-31-8-49-39-48C34-167 62-67 57 0H25l-1-190h30c1 10-1 24 2 32 11-22 29-35 61-36" id="ao"/><path fill="#3a414a" d="M177-190C167-65 218 103 67 71c-23-6-38-20-44-43l32-5c15 47 100 32 89-28v-30C133-14 115 1 83 1 29 1 15-40 15-95c0-56 16-97 71-98 29-1 48 16 59 35 1-10 0-23 2-32h30zM94-22c36 0 50-32 50-73 0-42-14-75-50-75-39 0-46 34-46 75s6 73 46 73" id="ap"/><g id="f"><use transform="matrix(0.06172839506172839,0,0,0.06172839506172839,0,0)" xlink:href="#ac"/><use transform="matrix(0.06172839506172839,0,0,0.06172839506172839,11.11111111111111,0)" xlink:href="#an"/><use transform="matrix(0.06172839506172839,0,0,0.06172839506172839,17.28395061728395,0)" xlink:href="#ae"/><use transform="matrix(0.06172839506172839,0,0,0.06172839506172839,24.629629629629626,0)" xlink:href="#ah"/><use transform="matrix(0.06172839506172839,0,0,0.06172839506172839,29.50617283950617,0)" xlink:href="#ao"/><use transform="matrix(0.06172839506172839,0,0,0.06172839506172839,41.85185185185185,0)" xlink:href="#ap"/></g><g id="g"><use transform="matrix(0.06172839506172839,0,0,0.06172839506172839,0,0)" xlink:href="#ab"/><use transform="matrix(0.06172839506172839,0,0,0.06172839506172839,12.345679012345679,0)" xlink:href="#ac"/><use transform="matrix(0.06172839506172839,0,0,0.06172839506172839,23.45679012345679,0)" xlink:href="#ad"/><use transform="matrix(0.06172839506172839,0,0,0.06172839506172839,35.80246913580247,0)" xlink:href="#ae"/><use transform="matrix(0.06172839506172839,0,0,0.06172839506172839,43.148148148148145,0)" xlink:href="#aj"/><use transform="matrix(0.06172839506172839,0,0,0.06172839506172839,55.49382716049382,0)" xlink:href="#ao"/><use transform="matrix(0.06172839506172839,0,0,0.06172839506172839,67.8395061728395,0)" xlink:href="#ak"/><use transform="matrix(0.06172839506172839,0,0,0.06172839506172839,80.18518518518519,0)" xlink:href="#am"/><use transform="matrix(0.06172839506172839,0,0,0.06172839506172839,98.64197530864197,0)" xlink:href="#ad"/></g><path fill="#3a414a" d="M115-194c55 1 70 41 70 98S169 2 115 4C84 4 66-9 55-30l1 105H24l-1-265h31l2 30c10-21 28-34 59-34zm-8 174c40 0 45-34 45-75s-6-73-45-74c-42 0-51 32-51 76 0 43 10 73 51 73" id="aq"/><path fill="#3a414a" d="M106-169C34-169 62-67 57 0H25v-261h32l-1 103c12-21 28-36 61-36 89 0 53 116 60 194h-32v-121c2-32-8-49-39-48" id="ar"/><path fill="#3a414a" d="M100-194c62-1 85 37 85 99 1 63-27 99-86 99S16-35 15-95c0-66 28-99 85-99zM99-20c44 1 53-31 53-75 0-43-8-75-51-75s-53 32-53 75 10 74 51 75" id="as"/><g id="h"><use transform="matrix(0.06172839506172839,0,0,0.06172839506172839,0,0)" xlink:href="#aq"/><use transform="matrix(0.06172839506172839,0,0,0.06172839506172839,12.345679012345679,0)" xlink:href="#ar"/><use transform="matrix(0.06172839506172839,0,0,0.06172839506172839,24.691358024691358,0)" xlink:href="#as"/><use transform="matrix(0.06172839506172839,0,0,0.06172839506172839,37.03703703703704,0)" xlink:href="#an"/><use transform="matrix(0.06172839506172839,0,0,0.06172839506172839,43.20987654320988,0)" xlink:href="#as"/></g><g id="i"><use transform="matrix(0.06172839506172839,0,0,0.06172839506172839,0,0)" xlink:href="#ac"/><use transform="matrix(0.06172839506172839,0,0,0.06172839506172839,11.11111111111111,0)" xlink:href="#an"/><use transform="matrix(0.06172839506172839,0,0,0.06172839506172839,17.28395061728395,0)" xlink:href="#ab"/><use transform="matrix(0.06172839506172839,0,0,0.06172839506172839,29.629629629629626,0)" xlink:href="#ai"/><use transform="matrix(0.06172839506172839,0,0,0.06172839506172839,41.9753086419753,0)" xlink:href="#ad"/><use transform="matrix(0.06172839506172839,0,0,0.06172839506172839,54.32098765432098,0)" xlink:href="#ao"/><use transform="matrix(0.06172839506172839,0,0,0.06172839506172839,66.66666666666666,0)" xlink:href="#an"/><use transform="matrix(0.06172839506172839,0,0,0.06172839506172839,72.83950617283949,0)" xlink:href="#aj"/><use transform="matrix(0.06172839506172839,0,0,0.06172839506172839,85.18518518518518,0)" xlink:href="#ah"/><use transform="matrix(0.06172839506172839,0,0,0.06172839506172839,90.06172839506172,0)" xlink:href="#ai"/></g><path fill="#3a414a" d="M206 0h-36l-40-164L89 0H53L-1-190h32L70-26l43-164h34l41 164 42-164h31" id="at"/><g id="j"><use transform="matrix(0.06172839506172839,0,0,0.06172839506172839,0,0)" xlink:href="#aq"/><use transform="matrix(0.06172839506172839,0,0,0.06172839506172839,12.345679012345679,0)" xlink:href="#ak"/><use transform="matrix(0.06172839506172839,0,0,0.06172839506172839,24.691358024691358,0)" xlink:href="#ac"/><use transform="matrix(0.06172839506172839,0,0,0.06172839506172839,35.80246913580247,0)" xlink:href="#ac"/><use transform="matrix(0.06172839506172839,0,0,0.06172839506172839,46.91358024691358,0)" xlink:href="#at"/><use transform="matrix(0.06172839506172839,0,0,0.06172839506172839,62.901234567901234,0)" xlink:href="#as"/><use transform="matrix(0.06172839506172839,0,0,0.06172839506172839,75.24691358024691,0)" xlink:href="#ae"/><use transform="matrix(0.06172839506172839,0,0,0.06172839506172839,82.5925925925926,0)" xlink:href="#ai"/></g><path fill="#3a414a" d="M96-169c-40 0-48 33-48 73s9 75 48 75c24 0 41-14 43-38l32 2c-6 37-31 61-74 61-59 0-76-41-82-99-10-93 101-131 147-64 4 7 5 14 7 22l-32 3c-4-21-16-35-41-35" id="au"/><path fill="#3a414a" d="M179-190L93 31C79 59 56 82 12 73V49c39 6 53-20 64-50L1-190h34L92-34l54-156h33" id="av"/><g id="k"><use transform="matrix(0.06172839506172839,0,0,0.06172839506172839,0,0)" xlink:href="#ad"/><use transform="matrix(0.06172839506172839,0,0,0.06172839506172839,12.345679012345679,0)" xlink:href="#ao"/><use transform="matrix(0.06172839506172839,0,0,0.06172839506172839,24.691358024691358,0)" xlink:href="#au"/><use transform="matrix(0.06172839506172839,0,0,0.06172839506172839,35.80246913580247,0)" xlink:href="#ae"/><use transform="matrix(0.06172839506172839,0,0,0.06172839506172839,43.148148148148145,0)" xlink:href="#av"/><use transform="matrix(0.06172839506172839,0,0,0.06172839506172839,54.25925925925925,0)" xlink:href="#aq"/><use transform="matrix(0.06172839506172839,0,0,0.06172839506172839,66.60493827160494,0)" xlink:href="#an"/></g><g id="l"><use transform="matrix(0.06172839506172839,0,0,0.06172839506172839,0,0)" xlink:href="#au"/><use transform="matrix(0.06172839506172839,0,0,0.06172839506172839,11.11111111111111,0)" xlink:href="#as"/><use transform="matrix(0.06172839506172839,0,0,0.06172839506172839,23.45679012345679,0)" xlink:href="#ab"/><use transform="matrix(0.06172839506172839,0,0,0.06172839506172839,35.80246913580247,0)" xlink:href="#ae"/><use transform="matrix(0.06172839506172839,0,0,0.06172839506172839,43.148148148148145,0)" xlink:href="#ac"/><use transform="matrix(0.06172839506172839,0,0,0.06172839506172839,54.25925925925925,0)" xlink:href="#ad"/><use transform="matrix(0.06172839506172839,0,0,0.06172839506172839,66.60493827160494,0)" xlink:href="#ac"/></g><g id="m"><use transform="matrix(0.06172839506172839,0,0,0.06172839506172839,0,0)" xlink:href="#ah"/><use transform="matrix(0.06172839506172839,0,0,0.06172839506172839,4.876543209876543,0)" xlink:href="#ai"/><use transform="matrix(0.06172839506172839,0,0,0.06172839506172839,17.22222222222222,0)" xlink:href="#aj"/><use transform="matrix(0.06172839506172839,0,0,0.06172839506172839,29.5679012345679,0)" xlink:href="#au"/><use transform="matrix(0.06172839506172839,0,0,0.06172839506172839,40.67901234567901,0)" xlink:href="#ae"/><use transform="matrix(0.06172839506172839,0,0,0.06172839506172839,48.02469135802469,0)" xlink:href="#as"/><use transform="matrix(0.06172839506172839,0,0,0.06172839506172839,60.37037037037037,0)" xlink:href="#ab"/><use transform="matrix(0.06172839506172839,0,0,0.06172839506172839,72.71604938271605,0)" xlink:href="#ac"/><use transform="matrix(0.06172839506172839,0,0,0.06172839506172839,83.82716049382717,0)" xlink:href="#ad"/></g><g id="n"><use transform="matrix(0.06172839506172839,0,0,0.06172839506172839,0,0)" xlink:href="#ao"/><use transform="matrix(0.06172839506172839,0,0,0.06172839506172839,12.345679012345679,0)" xlink:href="#ak"/><use transform="matrix(0.06172839506172839,0,0,0.06172839506172839,24.691358024691358,0)" xlink:href="#am"/><use transform="matrix(0.06172839506172839,0,0,0.06172839506172839,43.148148148148145,0)" xlink:href="#ad"/></g><g id="o"><use transform="matrix(0.06172839506172839,0,0,0.06172839506172839,0,0)" xlink:href="#ai"/><use transform="matrix(0.06172839506172839,0,0,0.06172839506172839,12.345679012345679,0)" xlink:href="#ad"/><use transform="matrix(0.06172839506172839,0,0,0.06172839506172839,24.691358024691358,0)" xlink:href="#ac"/><use transform="matrix(0.06172839506172839,0,0,0.06172839506172839,35.80246913580247,0)" xlink:href="#au"/><use transform="matrix(0.06172839506172839,0,0,0.06172839506172839,46.91358024691358,0)" xlink:href="#ae"/><use transform="matrix(0.06172839506172839,0,0,0.06172839506172839,54.25925925925926,0)" xlink:href="#ah"/><use transform="matrix(0.06172839506172839,0,0,0.06172839506172839,59.135802469135804,0)" xlink:href="#aq"/><use transform="matrix(0.06172839506172839,0,0,0.06172839506172839,71.48148148148148,0)" xlink:href="#an"/><use transform="matrix(0.06172839506172839,0,0,0.06172839506172839,77.65432098765432,0)" xlink:href="#ah"/><use transform="matrix(0.06172839506172839,0,0,0.06172839506172839,82.53086419753086,0)" xlink:href="#as"/><use transform="matrix(0.06172839506172839,0,0,0.06172839506172839,94.87654320987654,0)" xlink:href="#ao"/></g><path fill="#3a414a" d="M63-220v92h138v28H63V0H30v-248h175v28H63" id="aw"/><g id="p"><use transform="matrix(0.06172839506172839,0,0,0.06172839506172839,0,0)" xlink:href="#aw"/><use transform="matrix(0.06172839506172839,0,0,0.06172839506172839,13.518518518518517,0)" xlink:href="#ag"/></g><g id="q"><use transform="matrix(0.06172839506172839,0,0,0.06172839506172839,0,0)" xlink:href="#ah"/><use transform="matrix(0.06172839506172839,0,0,0.06172839506172839,4.876543209876543,0)" xlink:href="#ao"/><use transform="matrix(0.06172839506172839,0,0,0.06172839506172839,17.22222222222222,0)" xlink:href="#an"/></g><path fill="#333" d="M190-63c-7 42-38 67-86 67-59 0-84-38-90-98-12-110 154-137 174-36l-49 2c-2-19-15-32-35-32-30 0-35 28-38 64-6 74 65 87 74 30" id="ax"/><path fill="#333" d="M135-150c-39-12-60 13-60 57V0H25l-1-190h47c2 13-1 29 3 40 6-28 27-53 61-41v41" id="ay"/><path fill="#333" d="M185-48c-13 30-37 53-82 52C43 2 14-33 14-96s30-98 90-98c62 0 83 45 84 108H66c0 31 8 55 39 56 18 0 30-7 34-22zm-45-69c5-46-57-63-70-21-2 6-4 13-4 21h74" id="az"/><path fill="#333" d="M133-34C117-15 103 5 69 4 32 3 11-16 11-54c-1-60 55-63 116-61 1-26-3-47-28-47-18 1-26 9-28 27l-52-2c7-38 36-58 82-57s74 22 75 68l1 82c-1 14 12 18 25 15v27c-30 8-71 5-69-32zm-48 3c29 0 43-24 42-57-32 0-66-3-65 30 0 17 8 27 23 27" id="aA"/><path fill="#333" d="M115-3C79 11 28 4 28-45v-112H4v-33h27l15-45h31v45h36v33H77v99c-1 23 16 31 38 25v30" id="aB"/><g id="r"><use transform="matrix(0.04938271604938272,0,0,0.04938271604938272,0,0)" xlink:href="#ax"/><use transform="matrix(0.04938271604938272,0,0,0.04938271604938272,9.876543209876544,0)" xlink:href="#ay"/><use transform="matrix(0.04938271604938272,0,0,0.04938271604938272,16.790123456790127,0)" xlink:href="#az"/><use transform="matrix(0.04938271604938272,0,0,0.04938271604938272,26.666666666666668,0)" xlink:href="#aA"/><use transform="matrix(0.04938271604938272,0,0,0.04938271604938272,36.543209876543216,0)" xlink:href="#aB"/><use transform="matrix(0.04938271604938272,0,0,0.04938271604938272,42.41975308641976,0)" xlink:href="#az"/></g><g id="s"><use transform="matrix(0.06172839506172839,0,0,0.06172839506172839,0,0)" xlink:href="#ab"/><use transform="matrix(0.06172839506172839,0,0,0.06172839506172839,12.345679012345679,0)" xlink:href="#ac"/><use transform="matrix(0.06172839506172839,0,0,0.06172839506172839,23.45679012345679,0)" xlink:href="#ad"/><use transform="matrix(0.06172839506172839,0,0,0.06172839506172839,35.80246913580247,0)" xlink:href="#ae"/><use transform="matrix(0.06172839506172839,0,0,0.06172839506172839,43.148148148148145,0)" xlink:href="#aj"/><use transform="matrix(0.06172839506172839,0,0,0.06172839506172839,55.49382716049382,0)" xlink:href="#au"/><use transform="matrix(0.06172839506172839,0,0,0.06172839506172839,66.60493827160494,0)" xlink:href="#as"/><use transform="matrix(0.06172839506172839,0,0,0.06172839506172839,78.95061728395062,0)" xlink:href="#ab"/><use transform="matrix(0.06172839506172839,0,0,0.06172839506172839,91.2962962962963,0)" xlink:href="#ae"/><use transform="matrix(0.06172839506172839,0,0,0.06172839506172839,98.64197530864199,0)" xlink:href="#ac"/><use transform="matrix(0.06172839506172839,0,0,0.06172839506172839,109.7530864197531,0)" xlink:href="#ad"/><use transform="matrix(0.06172839506172839,0,0,0.06172839506172839,122.09876543209879,0)" xlink:href="#ac"/></g><g id="t"><use transform="matrix(0.06172839506172839,0,0,0.06172839506172839,0,0)" xlink:href="#ah"/><use transform="matrix(0.06172839506172839,0,0,0.06172839506172839,4.876543209876543,0)" xlink:href="#ai"/><use transform="matrix(0.06172839506172839,0,0,0.06172839506172839,17.22222222222222,0)" xlink:href="#aj"/><use transform="matrix(0.06172839506172839,0,0,0.06172839506172839,29.5679012345679,0)" xlink:href="#ab"/><use transform="matrix(0.06172839506172839,0,0,0.06172839506172839,41.913580246913575,0)" xlink:href="#ac"/><use transform="matrix(0.06172839506172839,0,0,0.06172839506172839,53.02469135802468,0)" xlink:href="#ad"/><use transform="matrix(0.06172839506172839,0,0,0.06172839506172839,65.37037037037037,0)" xlink:href="#ae"/><use transform="matrix(0.06172839506172839,0,0,0.06172839506172839,72.71604938271605,0)" xlink:href="#aj"/><use transform="matrix(0.06172839506172839,0,0,0.06172839506172839,85.06172839506173,0)" xlink:href="#au"/><use transform="matrix(0.06172839506172839,0,0,0.06172839506172839,96.17283950617285,0)" xlink:href="#as"/><use transform="matrix(0.06172839506172839,0,0,0.06172839506172839,108.51851851851853,0)" xlink:href="#ab"/><use transform="matrix(0.06172839506172839,0,0,0.06172839506172839,120.86419753086422,0)" xlink:href="#ae"/><use transform="matrix(0.06172839506172839,0,0,0.06172839506172839,128.2098765432099,0)" xlink:href="#ac"/><use transform="matrix(0.06172839506172839,0,0,0.06172839506172839,139.32098765432102,0)" xlink:href="#ad"/><use transform="matrix(0.06172839506172839,0,0,0.06172839506172839,151.66666666666669,0)" xlink:href="#ac"/></g><g id="u"><use transform="matrix(0.06172839506172839,0,0,0.06172839506172839,0,0)" xlink:href="#ah"/><use transform="matrix(0.06172839506172839,0,0,0.06172839506172839,4.876543209876543,0)" xlink:href="#ai"/><use transform="matrix(0.06172839506172839,0,0,0.06172839506172839,17.22222222222222,0)" xlink:href="#aj"/><use transform="matrix(0.06172839506172839,0,0,0.06172839506172839,29.5679012345679,0)" xlink:href="#ab"/><use transform="matrix(0.06172839506172839,0,0,0.06172839506172839,41.913580246913575,0)" xlink:href="#ac"/><use transform="matrix(0.06172839506172839,0,0,0.06172839506172839,53.02469135802468,0)" xlink:href="#ad"/><use transform="matrix(0.06172839506172839,0,0,0.06172839506172839,65.37037037037037,0)" xlink:href="#ae"/><use transform="matrix(0.06172839506172839,0,0,0.06172839506172839,72.71604938271605,0)" xlink:href="#aj"/><use transform="matrix(0.06172839506172839,0,0,0.06172839506172839,85.06172839506173,0)" xlink:href="#ac"/><use transform="matrix(0.06172839506172839,0,0,0.06172839506172839,96.17283950617285,0)" xlink:href="#ab"/><use transform="matrix(0.06172839506172839,0,0,0.06172839506172839,108.51851851851853,0)" xlink:href="#aq"/><use transform="matrix(0.06172839506172839,0,0,0.06172839506172839,120.86419753086422,0)" xlink:href="#ad"/><use transform="matrix(0.06172839506172839,0,0,0.06172839506172839,133.2098765432099,0)" xlink:href="#ae"/></g><path fill="#3a414a" d="M115-194c53 0 69 39 70 98 0 66-23 100-70 100C84 3 66-7 56-30L54 0H23l1-261h32v101c10-23 28-34 59-34zm-8 174c40 0 45-34 45-75 0-40-5-75-45-74-42 0-51 32-51 76 0 43 10 73 51 73" id="aC"/><g id="v"><use transform="matrix(0.06172839506172839,0,0,0.06172839506172839,0,0)" xlink:href="#aC"/><use transform="matrix(0.06172839506172839,0,0,0.06172839506172839,12.345679012345679,0)" xlink:href="#as"/><use transform="matrix(0.06172839506172839,0,0,0.06172839506172839,24.691358024691358,0)" xlink:href="#as"/><use transform="matrix(0.06172839506172839,0,0,0.06172839506172839,37.03703703703704,0)" xlink:href="#al"/></g><g id="w"><use transform="matrix(0.06172839506172839,0,0,0.06172839506172839,0,0)" xlink:href="#ah"/><use transform="matrix(0.06172839506172839,0,0,0.06172839506172839,4.876543209876543,0)" xlink:href="#ai"/><use transform="matrix(0.06172839506172839,0,0,0.06172839506172839,17.22222222222222,0)" xlink:href="#aj"/><use transform="matrix(0.06172839506172839,0,0,0.06172839506172839,29.5679012345679,0)" xlink:href="#ab"/><use transform="matrix(0.06172839506172839,0,0,0.06172839506172839,41.913580246913575,0)" xlink:href="#ac"/><use transform="matrix(0.06172839506172839,0,0,0.06172839506172839,53.02469135802468,0)" xlink:href="#ad"/><use transform="matrix(0.06172839506172839,0,0,0.06172839506172839,65.37037037037037,0)" xlink:href="#ae"/><use transform="matrix(0.06172839506172839,0,0,0.06172839506172839,72.71604938271605,0)" xlink:href="#aj"/><use transform="matrix(0.06172839506172839,0,0,0.06172839506172839,85.06172839506173,0)" xlink:href="#au"/><use transform="matrix(0.06172839506172839,0,0,0.06172839506172839,96.17283950617285,0)" xlink:href="#ar"/><use transform="matrix(0.06172839506172839,0,0,0.06172839506172839,108.51851851851853,0)" xlink:href="#ah"/><use transform="matrix(0.06172839506172839,0,0,0.06172839506172839,113.39506172839508,0)" xlink:href="#al"/><use transform="matrix(0.06172839506172839,0,0,0.06172839506172839,118.27160493827162,0)" xlink:href="#ai"/></g><g id="x"><use transform="matrix(0.06172839506172839,0,0,0.06172839506172839,0,0)" xlink:href="#ah"/><use transform="matrix(0.06172839506172839,0,0,0.06172839506172839,4.876543209876543,0)" xlink:href="#ai"/><use transform="matrix(0.06172839506172839,0,0,0.06172839506172839,17.22222222222222,0)" xlink:href="#aj"/><use transform="matrix(0.06172839506172839,0,0,0.06172839506172839,29.5679012345679,0)" xlink:href="#au"/><use transform="matrix(0.06172839506172839,0,0,0.06172839506172839,40.67901234567901,0)" xlink:href="#as"/><use transform="matrix(0.06172839506172839,0,0,0.06172839506172839,53.02469135802469,0)" xlink:href="#ab"/><use transform="matrix(0.06172839506172839,0,0,0.06172839506172839,65.37037037037037,0)" xlink:href="#ae"/><use transform="matrix(0.06172839506172839,0,0,0.06172839506172839,72.71604938271605,0)" xlink:href="#ac"/><use transform="matrix(0.06172839506172839,0,0,0.06172839506172839,83.82716049382717,0)" xlink:href="#ad"/></g><path fill="#333" d="M135-194c52 0 70 43 70 98 0 56-19 99-73 100-30 1-46-15-58-35L72 0H24l1-261h50v104c11-23 29-37 60-37zM114-30c31 0 40-27 40-66 0-37-7-63-39-63s-41 28-41 65c0 36 8 64 40 64" id="aD"/><path fill="#333" d="M25 0v-261h50V0H25" id="aE"/><path fill="#333" d="M110-194c64 0 96 36 96 99 0 64-35 99-97 99-61 0-95-36-95-99 0-62 34-99 96-99zm-1 164c35 0 45-28 45-65 0-40-10-65-43-65-34 0-45 26-45 65 0 36 10 65 43 65" id="aF"/><path fill="#333" d="M135-194c87-1 58 113 63 194h-50c-7-57 23-157-34-157-59 0-34 97-39 157H25l-1-190h47c2 12-1 28 3 38 12-26 28-41 61-42" id="aG"/><path fill="#333" d="M195-6C206 82 75 100 31 46c-4-6-6-13-8-21l49-6c3 16 16 24 34 25 40 0 42-37 40-79-11 22-30 35-61 35-53 0-70-43-70-97 0-56 18-96 73-97 30 0 46 14 59 34l2-30h47zm-90-29c32 0 41-27 41-63 0-35-9-62-40-62-32 0-39 29-40 63 0 36 9 62 39 62" id="aH"/><path fill="#333" d="M137-138c1-29-70-34-71-4 15 46 118 7 119 86 1 83-164 76-172 9l43-7c4 19 20 25 44 25 33 8 57-30 24-41C81-84 22-81 20-136c-2-80 154-74 161-7" id="aI"/><g id="y"><use transform="matrix(0.04938271604938272,0,0,0.04938271604938272,0,0)" xlink:href="#aD"/><use transform="matrix(0.04938271604938272,0,0,0.04938271604938272,10.814814814814815,0)" xlink:href="#az"/><use transform="matrix(0.04938271604938272,0,0,0.04938271604938272,20.69135802469136,0)" xlink:href="#aE"/><use transform="matrix(0.04938271604938272,0,0,0.04938271604938272,25.629629629629633,0)" xlink:href="#aF"/><use transform="matrix(0.04938271604938272,0,0,0.04938271604938272,36.44444444444445,0)" xlink:href="#aG"/><use transform="matrix(0.04938271604938272,0,0,0.04938271604938272,47.25925925925927,0)" xlink:href="#aH"/><use transform="matrix(0.04938271604938272,0,0,0.04938271604938272,58.074074074074076,0)" xlink:href="#aI"/></g><g id="z"><use transform="matrix(0.04938271604938272,0,0,0.04938271604938272,0,0)" xlink:href="#aB"/><use transform="matrix(0.04938271604938272,0,0,0.04938271604938272,5.8765432098765435,0)" xlink:href="#aF"/></g><path fill="#333" d="M114-157C55-157 80-60 75 0H25v-261h50l-1 109c12-26 28-41 61-42 86-1 58 113 63 194h-50c-7-57 23-157-34-157" id="aJ"/><g id="A"><use transform="matrix(0.04938271604938272,0,0,0.04938271604938272,0,0)" xlink:href="#aJ"/><use transform="matrix(0.04938271604938272,0,0,0.04938271604938272,10.814814814814815,0)" xlink:href="#aA"/><use transform="matrix(0.04938271604938272,0,0,0.04938271604938272,20.69135802469136,0)" xlink:href="#aI"/></g><path fill="#3a414a" d="M141 0L90-78 38 0H4l68-98-65-92h35l48 74 47-74h35l-64 92 68 98h-35" id="aK"/><g id="B"><use transform="matrix(0.06172839506172839,0,0,0.06172839506172839,0,0)" xlink:href="#ad"/><use transform="matrix(0.06172839506172839,0,0,0.06172839506172839,12.345679012345679,0)" xlink:href="#aK"/><use transform="matrix(0.06172839506172839,0,0,0.06172839506172839,23.45679012345679,0)" xlink:href="#au"/><use transform="matrix(0.06172839506172839,0,0,0.06172839506172839,34.5679012345679,0)" xlink:href="#ab"/><use transform="matrix(0.06172839506172839,0,0,0.06172839506172839,46.913580246913575,0)" xlink:href="#ae"/><use transform="matrix(0.06172839506172839,0,0,0.06172839506172839,54.25925925925925,0)" xlink:href="#ac"/><use transform="matrix(0.06172839506172839,0,0,0.06172839506172839,65.37037037037037,0)" xlink:href="#ah"/><use transform="matrix(0.06172839506172839,0,0,0.06172839506172839,70.24691358024691,0)" xlink:href="#as"/><use transform="matrix(0.06172839506172839,0,0,0.06172839506172839,82.5925925925926,0)" xlink:href="#ao"/><use transform="matrix(0.06172839506172839,0,0,0.06172839506172839,94.93827160493828,0)" xlink:href="#ac"/></g><g id="C"><use transform="matrix(0.06172839506172839,0,0,0.06172839506172839,0,0)" xlink:href="#ah"/><use transform="matrix(0.06172839506172839,0,0,0.06172839506172839,4.876543209876543,0)" xlink:href="#ai"/><use transform="matrix(0.06172839506172839,0,0,0.06172839506172839,17.22222222222222,0)" xlink:href="#aj"/><use transform="matrix(0.06172839506172839,0,0,0.06172839506172839,29.5679012345679,0)" xlink:href="#ad"/><use transform="matrix(0.06172839506172839,0,0,0.06172839506172839,41.913580246913575,0)" xlink:href="#aK"/><use transform="matrix(0.06172839506172839,0,0,0.06172839506172839,53.02469135802468,0)" xlink:href="#au"/><use transform="matrix(0.06172839506172839,0,0,0.06172839506172839,64.1358024691358,0)" xlink:href="#ab"/><use transform="matrix(0.06172839506172839,0,0,0.06172839506172839,76.48148148148148,0)" xlink:href="#ae"/><use transform="matrix(0.06172839506172839,0,0,0.06172839506172839,83.82716049382717,0)" xlink:href="#ac"/><use transform="matrix(0.06172839506172839,0,0,0.06172839506172839,94.93827160493828,0)" xlink:href="#ah"/><use transform="matrix(0.06172839506172839,0,0,0.06172839506172839,99.81481481481482,0)" xlink:href="#as"/><use transform="matrix(0.06172839506172839,0,0,0.06172839506172839,112.16049382716051,0)" xlink:href="#ao"/></g><g id="D"><use transform="matrix(0.06172839506172839,0,0,0.06172839506172839,0,0)" xlink:href="#al"/><use transform="matrix(0.06172839506172839,0,0,0.06172839506172839,4.876543209876543,0)" xlink:href="#as"/><use transform="matrix(0.06172839506172839,0,0,0.06172839506172839,17.22222222222222,0)" xlink:href="#au"/><use transform="matrix(0.06172839506172839,0,0,0.06172839506172839,28.333333333333332,0)" xlink:href="#ak"/><use transform="matrix(0.06172839506172839,0,0,0.06172839506172839,40.67901234567901,0)" xlink:href="#an"/><use transform="matrix(0.06172839506172839,0,0,0.06172839506172839,46.851851851851855,0)" xlink:href="#ah"/><use transform="matrix(0.06172839506172839,0,0,0.06172839506172839,51.7283950617284,0)" xlink:href="#as"/><use transform="matrix(0.06172839506172839,0,0,0.06172839506172839,64.07407407407408,0)" xlink:href="#ao"/></g><g id="E"><use transform="matrix(0.06172839506172839,0,0,0.06172839506172839,0,0)" xlink:href="#ai"/><use transform="matrix(0.06172839506172839,0,0,0.06172839506172839,12.345679012345679,0)" xlink:href="#ak"/><use transform="matrix(0.06172839506172839,0,0,0.06172839506172839,24.691358024691358,0)" xlink:href="#an"/><use transform="matrix(0.06172839506172839,0,0,0.06172839506172839,30.864197530864196,0)" xlink:href="#ad"/></g><g id="F"><use transform="matrix(0.06172839506172839,0,0,0.06172839506172839,0,0)" xlink:href="#ac"/><use transform="matrix(0.06172839506172839,0,0,0.06172839506172839,11.11111111111111,0)" xlink:href="#an"/><use transform="matrix(0.06172839506172839,0,0,0.06172839506172839,17.28395061728395,0)" xlink:href="#ak"/><use transform="matrix(0.06172839506172839,0,0,0.06172839506172839,29.629629629629626,0)" xlink:href="#ae"/><use transform="matrix(0.06172839506172839,0,0,0.06172839506172839,36.9753086419753,0)" xlink:href="#an"/><use transform="matrix(0.06172839506172839,0,0,0.06172839506172839,43.148148148148145,0)" xlink:href="#aj"/><use transform="matrix(0.06172839506172839,0,0,0.06172839506172839,55.49382716049382,0)" xlink:href="#an"/><use transform="matrix(0.06172839506172839,0,0,0.06172839506172839,61.666666666666664,0)" xlink:href="#ah"/><use transform="matrix(0.06172839506172839,0,0,0.06172839506172839,66.5432098765432,0)" xlink:href="#am"/><use transform="matrix(0.06172839506172839,0,0,0.06172839506172839,84.99999999999999,0)" xlink:href="#ad"/></g><g id="G"><use transform="matrix(0.06172839506172839,0,0,0.06172839506172839,0,0)" xlink:href="#an"/><use transform="matrix(0.06172839506172839,0,0,0.06172839506172839,6.172839506172839,0)" xlink:href="#ah"/><use transform="matrix(0.06172839506172839,0,0,0.06172839506172839,11.049382716049383,0)" xlink:href="#am"/><use transform="matrix(0.06172839506172839,0,0,0.06172839506172839,29.50617283950617,0)" xlink:href="#ad"/></g><g id="H"><use transform="matrix(0.06172839506172839,0,0,0.06172839506172839,0,0)" xlink:href="#ah"/><use transform="matrix(0.06172839506172839,0,0,0.06172839506172839,4.876543209876543,0)" xlink:href="#ai"/><use transform="matrix(0.06172839506172839,0,0,0.06172839506172839,17.22222222222222,0)" xlink:href="#aj"/><use transform="matrix(0.06172839506172839,0,0,0.06172839506172839,29.5679012345679,0)" xlink:href="#au"/><use transform="matrix(0.06172839506172839,0,0,0.06172839506172839,40.67901234567901,0)" xlink:href="#as"/><use transform="matrix(0.06172839506172839,0,0,0.06172839506172839,53.02469135802469,0)" xlink:href="#ab"/><use transform="matrix(0.06172839506172839,0,0,0.06172839506172839,65.37037037037037,0)" xlink:href="#ae"/><use transform="matrix(0.06172839506172839,0,0,0.06172839506172839,72.71604938271605,0)" xlink:href="#ac"/><use transform="matrix(0.06172839506172839,0,0,0.06172839506172839,83.82716049382717,0)" xlink:href="#ad"/><use transform="matrix(0.06172839506172839,0,0,0.06172839506172839,96.17283950617285,0)" xlink:href="#ac"/></g><g id="I"><use transform="matrix(0.06172839506172839,0,0,0.06172839506172839,0,0)" xlink:href="#ap"/><use transform="matrix(0.06172839506172839,0,0,0.06172839506172839,12.345679012345679,0)" xlink:href="#ae"/><use transform="matrix(0.06172839506172839,0,0,0.06172839506172839,19.691358024691358,0)" xlink:href="#as"/><use transform="matrix(0.06172839506172839,0,0,0.06172839506172839,32.03703703703704,0)" xlink:href="#ab"/><use transform="matrix(0.06172839506172839,0,0,0.06172839506172839,44.382716049382715,0)" xlink:href="#aq"/><use transform="matrix(0.06172839506172839,0,0,0.06172839506172839,56.72839506172839,0)" xlink:href="#ac"/></g><g id="J"><use transform="matrix(0.06172839506172839,0,0,0.06172839506172839,0,0)" xlink:href="#ah"/><use transform="matrix(0.06172839506172839,0,0,0.06172839506172839,4.876543209876543,0)" xlink:href="#ai"/><use transform="matrix(0.06172839506172839,0,0,0.06172839506172839,17.22222222222222,0)" xlink:href="#aj"/><use transform="matrix(0.06172839506172839,0,0,0.06172839506172839,29.5679012345679,0)" xlink:href="#ap"/><use transform="matrix(0.06172839506172839,0,0,0.06172839506172839,41.913580246913575,0)" xlink:href="#ae"/><use transform="matrix(0.06172839506172839,0,0,0.06172839506172839,49.25925925925925,0)" xlink:href="#as"/><use transform="matrix(0.06172839506172839,0,0,0.06172839506172839,61.60493827160493,0)" xlink:href="#ab"/><use transform="matrix(0.06172839506172839,0,0,0.06172839506172839,73.9506172839506,0)" xlink:href="#aq"/></g><g id="K"><use transform="matrix(0.06172839506172839,0,0,0.06172839506172839,0,0)" xlink:href="#an"/><use transform="matrix(0.06172839506172839,0,0,0.06172839506172839,6.172839506172839,0)" xlink:href="#as"/><use transform="matrix(0.06172839506172839,0,0,0.06172839506172839,18.51851851851852,0)" xlink:href="#an"/><use transform="matrix(0.06172839506172839,0,0,0.06172839506172839,24.691358024691358,0)" xlink:href="#ak"/><use transform="matrix(0.06172839506172839,0,0,0.06172839506172839,37.03703703703704,0)" xlink:href="#al"/><use transform="matrix(0.06172839506172839,0,0,0.06172839506172839,41.91358024691358,0)" xlink:href="#aj"/><use transform="matrix(0.06172839506172839,0,0,0.06172839506172839,54.25925925925926,0)" xlink:href="#au"/><use transform="matrix(0.06172839506172839,0,0,0.06172839506172839,65.37037037037037,0)" xlink:href="#as"/><use transform="matrix(0.06172839506172839,0,0,0.06172839506172839,77.71604938271605,0)" xlink:href="#ac"/><use transform="matrix(0.06172839506172839,0,0,0.06172839506172839,88.82716049382717,0)" xlink:href="#an"/></g><g id="L"><use transform="matrix(0.06172839506172839,0,0,0.06172839506172839,0,0)" xlink:href="#an"/><use transform="matrix(0.06172839506172839,0,0,0.06172839506172839,6.172839506172839,0)" xlink:href="#as"/><use transform="matrix(0.06172839506172839,0,0,0.06172839506172839,18.51851851851852,0)" xlink:href="#an"/><use transform="matrix(0.06172839506172839,0,0,0.06172839506172839,24.691358024691358,0)" xlink:href="#ak"/><use transform="matrix(0.06172839506172839,0,0,0.06172839506172839,37.03703703703704,0)" xlink:href="#al"/><use transform="matrix(0.06172839506172839,0,0,0.06172839506172839,41.91358024691358,0)" xlink:href="#aj"/><use transform="matrix(0.06172839506172839,0,0,0.06172839506172839,54.25925925925926,0)" xlink:href="#aq"/><use transform="matrix(0.06172839506172839,0,0,0.06172839506172839,66.60493827160494,0)" xlink:href="#ak"/><use transform="matrix(0.06172839506172839,0,0,0.06172839506172839,78.95061728395062,0)" xlink:href="#ac"/><use transform="matrix(0.06172839506172839,0,0,0.06172839506172839,90.06172839506173,0)" xlink:href="#ac"/><use transform="matrix(0.06172839506172839,0,0,0.06172839506172839,101.17283950617285,0)" xlink:href="#ad"/><use transform="matrix(0.06172839506172839,0,0,0.06172839506172839,113.51851851851853,0)" xlink:href="#ao"/><use transform="matrix(0.06172839506172839,0,0,0.06172839506172839,125.86419753086422,0)" xlink:href="#ap"/><use transform="matrix(0.06172839506172839,0,0,0.06172839506172839,138.2098765432099,0)" xlink:href="#ad"/><use transform="matrix(0.06172839506172839,0,0,0.06172839506172839,150.55555555555557,0)" xlink:href="#ae"/><use transform="matrix(0.06172839506172839,0,0,0.06172839506172839,157.90123456790124,0)" xlink:href="#ac"/></g><g id="M"><use transform="matrix(0.06172839506172839,0,0,0.06172839506172839,0,0)" xlink:href="#aq"/><use transform="matrix(0.06172839506172839,0,0,0.06172839506172839,12.345679012345679,0)" xlink:href="#ak"/><use transform="matrix(0.06172839506172839,0,0,0.06172839506172839,24.691358024691358,0)" xlink:href="#ac"/><use transform="matrix(0.06172839506172839,0,0,0.06172839506172839,35.80246913580247,0)" xlink:href="#ac"/><use transform="matrix(0.06172839506172839,0,0,0.06172839506172839,46.91358024691358,0)" xlink:href="#ad"/><use transform="matrix(0.06172839506172839,0,0,0.06172839506172839,59.25925925925926,0)" xlink:href="#ao"/><use transform="matrix(0.06172839506172839,0,0,0.06172839506172839,71.60493827160494,0)" xlink:href="#ap"/><use transform="matrix(0.06172839506172839,0,0,0.06172839506172839,83.95061728395062,0)" xlink:href="#ad"/><use transform="matrix(0.06172839506172839,0,0,0.06172839506172839,96.2962962962963,0)" xlink:href="#ae"/><use transform="matrix(0.06172839506172839,0,0,0.06172839506172839,103.64197530864199,0)" xlink:href="#ac"/></g><g id="N"><use transform="matrix(0.06172839506172839,0,0,0.06172839506172839,0,0)" xlink:href="#ah"/><use transform="matrix(0.06172839506172839,0,0,0.06172839506172839,4.876543209876543,0)" xlink:href="#ai"/><use transform="matrix(0.06172839506172839,0,0,0.06172839506172839,17.22222222222222,0)" xlink:href="#aj"/><use transform="matrix(0.06172839506172839,0,0,0.06172839506172839,29.5679012345679,0)" xlink:href="#aq"/><use transform="matrix(0.06172839506172839,0,0,0.06172839506172839,41.913580246913575,0)" xlink:href="#ak"/><use transform="matrix(0.06172839506172839,0,0,0.06172839506172839,54.25925925925925,0)" xlink:href="#ac"/><use transform="matrix(0.06172839506172839,0,0,0.06172839506172839,65.37037037037037,0)" xlink:href="#ac"/><use transform="matrix(0.06172839506172839,0,0,0.06172839506172839,76.48148148148148,0)" xlink:href="#ad"/><use transform="matrix(0.06172839506172839,0,0,0.06172839506172839,88.82716049382717,0)" xlink:href="#ao"/><use transform="matrix(0.06172839506172839,0,0,0.06172839506172839,101.17283950617285,0)" xlink:href="#ap"/><use transform="matrix(0.06172839506172839,0,0,0.06172839506172839,113.51851851851853,0)" xlink:href="#ad"/><use transform="matrix(0.06172839506172839,0,0,0.06172839506172839,125.86419753086422,0)" xlink:href="#ae"/></g><g id="O"><use transform="matrix(0.06172839506172839,0,0,0.06172839506172839,0,0)" xlink:href="#aq"/><use transform="matrix(0.06172839506172839,0,0,0.06172839506172839,12.345679012345679,0)" xlink:href="#ak"/><use transform="matrix(0.06172839506172839,0,0,0.06172839506172839,24.691358024691358,0)" xlink:href="#ah"/><use transform="matrix(0.06172839506172839,0,0,0.06172839506172839,29.5679012345679,0)" xlink:href="#ai"/></g><path fill="#3a414a" d="M101-234c-31-9-42 10-38 44h38v23H63V0H32v-167H5v-23h27c-7-52 17-82 69-68v24" id="aL"/><g id="P"><use transform="matrix(0.06172839506172839,0,0,0.06172839506172839,0,0)" xlink:href="#au"/><use transform="matrix(0.06172839506172839,0,0,0.06172839506172839,11.11111111111111,0)" xlink:href="#as"/><use transform="matrix(0.06172839506172839,0,0,0.06172839506172839,23.45679012345679,0)" xlink:href="#ao"/><use transform="matrix(0.06172839506172839,0,0,0.06172839506172839,35.80246913580247,0)" xlink:href="#aL"/><use transform="matrix(0.06172839506172839,0,0,0.06172839506172839,41.97530864197531,0)" xlink:href="#ah"/><use transform="matrix(0.06172839506172839,0,0,0.06172839506172839,46.851851851851855,0)" xlink:href="#ae"/><use transform="matrix(0.06172839506172839,0,0,0.06172839506172839,54.19753086419753,0)" xlink:href="#am"/></g><path fill="#333" d="M25-224v-37h50v37H25zM25 0v-190h50V0H25" id="aM"/><g id="Q"><use transform="matrix(0.04938271604938272,0,0,0.04938271604938272,0,0)" xlink:href="#aM"/><use transform="matrix(0.04938271604938272,0,0,0.04938271604938272,4.938271604938272,0)" xlink:href="#aI"/></g><use transform="matrix(0.04938271604938272,0,0,0.04938271604938272,0,0)" xlink:href="#aA" id="R"/><path fill="#3a414a" d="M143 0L79-87 56-68V0H24v-261h32v163l83-92h37l-77 82L181 0h-38" id="aN"/><g id="S"><use transform="matrix(0.06172839506172839,0,0,0.06172839506172839,0,0)" xlink:href="#aq"/><use transform="matrix(0.06172839506172839,0,0,0.06172839506172839,12.345679012345679,0)" xlink:href="#ah"/><use transform="matrix(0.06172839506172839,0,0,0.06172839506172839,17.22222222222222,0)" xlink:href="#au"/><use transform="matrix(0.06172839506172839,0,0,0.06172839506172839,28.333333333333332,0)" xlink:href="#aN"/><use transform="matrix(0.06172839506172839,0,0,0.06172839506172839,39.44444444444444,0)" xlink:href="#ab"/><use transform="matrix(0.06172839506172839,0,0,0.06172839506172839,51.79012345679012,0)" xlink:href="#aq"/><use transform="matrix(0.06172839506172839,0,0,0.06172839506172839,64.1358024691358,0)" xlink:href="#aj"/><use transform="matrix(0.06172839506172839,0,0,0.06172839506172839,76.48148148148148,0)" xlink:href="#aq"/><use transform="matrix(0.06172839506172839,0,0,0.06172839506172839,88.82716049382717,0)" xlink:href="#as"/><use transform="matrix(0.06172839506172839,0,0,0.06172839506172839,101.17283950617285,0)" xlink:href="#ah"/><use transform="matrix(0.06172839506172839,0,0,0.06172839506172839,106.0493827160494,0)" xlink:href="#ao"/><use transform="matrix(0.06172839506172839,0,0,0.06172839506172839,118.39506172839508,0)" xlink:href="#an"/><use transform="matrix(0.06172839506172839,0,0,0.06172839506172839,124.56790123456791,0)" xlink:href="#ac"/></g><g id="T"><use transform="matrix(0.06172839506172839,0,0,0.06172839506172839,0,0)" xlink:href="#ah"/><use transform="matrix(0.06172839506172839,0,0,0.06172839506172839,4.876543209876543,0)" xlink:href="#ai"/><use transform="matrix(0.06172839506172839,0,0,0.06172839506172839,17.22222222222222,0)" xlink:href="#aj"/><use transform="matrix(0.06172839506172839,0,0,0.06172839506172839,29.5679012345679,0)" xlink:href="#aq"/><use transform="matrix(0.06172839506172839,0,0,0.06172839506172839,41.913580246913575,0)" xlink:href="#ah"/><use transform="matrix(0.06172839506172839,0,0,0.06172839506172839,46.79012345679012,0)" xlink:href="#au"/><use transform="matrix(0.06172839506172839,0,0,0.06172839506172839,57.90123456790123,0)" xlink:href="#aN"/><use transform="matrix(0.06172839506172839,0,0,0.06172839506172839,69.01234567901234,0)" xlink:href="#ab"/><use transform="matrix(0.06172839506172839,0,0,0.06172839506172839,81.35802469135803,0)" xlink:href="#aq"/><use transform="matrix(0.06172839506172839,0,0,0.06172839506172839,93.70370370370371,0)" xlink:href="#aj"/><use transform="matrix(0.06172839506172839,0,0,0.06172839506172839,106.0493827160494,0)" xlink:href="#aq"/><use transform="matrix(0.06172839506172839,0,0,0.06172839506172839,118.39506172839508,0)" xlink:href="#as"/><use transform="matrix(0.06172839506172839,0,0,0.06172839506172839,130.74074074074076,0)" xlink:href="#ah"/><use transform="matrix(0.06172839506172839,0,0,0.06172839506172839,135.6172839506173,0)" xlink:href="#ao"/><use transform="matrix(0.06172839506172839,0,0,0.06172839506172839,147.96296296296296,0)" xlink:href="#an"/></g><g id="U"><use transform="matrix(0.06172839506172839,0,0,0.06172839506172839,0,0)" xlink:href="#ac"/><use transform="matrix(0.06172839506172839,0,0,0.06172839506172839,11.11111111111111,0)" xlink:href="#ad"/><use transform="matrix(0.06172839506172839,0,0,0.06172839506172839,23.45679012345679,0)" xlink:href="#ae"/><use transform="matrix(0.06172839506172839,0,0,0.06172839506172839,30.80246913580247,0)" xlink:href="#an"/><use transform="matrix(0.06172839506172839,0,0,0.06172839506172839,36.97530864197531,0)" xlink:href="#ah"/><use transform="matrix(0.06172839506172839,0,0,0.06172839506172839,41.851851851851855,0)" xlink:href="#ak"/><use transform="matrix(0.06172839506172839,0,0,0.06172839506172839,54.19753086419753,0)" xlink:href="#al"/></g><g id="V"><use transform="matrix(0.06172839506172839,0,0,0.06172839506172839,0,0)" xlink:href="#au"/><use transform="matrix(0.06172839506172839,0,0,0.06172839506172839,11.11111111111111,0)" xlink:href="#as"/><use transform="matrix(0.06172839506172839,0,0,0.06172839506172839,23.45679012345679,0)" xlink:href="#ab"/><use transform="matrix(0.06172839506172839,0,0,0.06172839506172839,35.80246913580247,0)" xlink:href="#ae"/><use transform="matrix(0.06172839506172839,0,0,0.06172839506172839,43.148148148148145,0)" xlink:href="#ac"/><use transform="matrix(0.06172839506172839,0,0,0.06172839506172839,54.25925925925925,0)" xlink:href="#ad"/><use transform="matrix(0.06172839506172839,0,0,0.06172839506172839,66.60493827160494,0)" xlink:href="#aj"/><use transform="matrix(0.06172839506172839,0,0,0.06172839506172839,78.95061728395062,0)" xlink:href="#am"/><use transform="matrix(0.06172839506172839,0,0,0.06172839506172839,97.4074074074074,0)" xlink:href="#ad"/><use transform="matrix(0.06172839506172839,0,0,0.06172839506172839,109.75308641975309,0)" xlink:href="#ac"/><use transform="matrix(0.06172839506172839,0,0,0.06172839506172839,120.8641975308642,0)" xlink:href="#ac"/><use transform="matrix(0.06172839506172839,0,0,0.06172839506172839,131.97530864197532,0)" xlink:href="#ak"/><use transform="matrix(0.06172839506172839,0,0,0.06172839506172839,144.320987654321,0)" xlink:href="#ap"/><use transform="matrix(0.06172839506172839,0,0,0.06172839506172839,156.66666666666666,0)" xlink:href="#ad"/><use transform="matrix(0.06172839506172839,0,0,0.06172839506172839,169.01234567901233,0)" xlink:href="#ac"/></g><g id="W"><use transform="matrix(0.06172839506172839,0,0,0.06172839506172839,0,0)" xlink:href="#ah"/><use transform="matrix(0.06172839506172839,0,0,0.06172839506172839,4.876543209876543,0)" xlink:href="#ai"/><use transform="matrix(0.06172839506172839,0,0,0.06172839506172839,17.22222222222222,0)" xlink:href="#aj"/><use transform="matrix(0.06172839506172839,0,0,0.06172839506172839,29.5679012345679,0)" xlink:href="#au"/><use transform="matrix(0.06172839506172839,0,0,0.06172839506172839,40.67901234567901,0)" xlink:href="#as"/><use transform="matrix(0.06172839506172839,0,0,0.06172839506172839,53.02469135802469,0)" xlink:href="#ab"/><use transform="matrix(0.06172839506172839,0,0,0.06172839506172839,65.37037037037037,0)" xlink:href="#ae"/><use transform="matrix(0.06172839506172839,0,0,0.06172839506172839,72.71604938271605,0)" xlink:href="#ac"/><use transform="matrix(0.06172839506172839,0,0,0.06172839506172839,83.82716049382717,0)" xlink:href="#ad"/><use transform="matrix(0.06172839506172839,0,0,0.06172839506172839,96.17283950617285,0)" xlink:href="#aj"/><use transform="matrix(0.06172839506172839,0,0,0.06172839506172839,108.51851851851853,0)" xlink:href="#am"/><use transform="matrix(0.06172839506172839,0,0,0.06172839506172839,126.97530864197533,0)" xlink:href="#ad"/><use transform="matrix(0.06172839506172839,0,0,0.06172839506172839,139.320987654321,0)" xlink:href="#ac"/><use transform="matrix(0.06172839506172839,0,0,0.06172839506172839,150.4320987654321,0)" xlink:href="#ac"/><use transform="matrix(0.06172839506172839,0,0,0.06172839506172839,161.54320987654322,0)" xlink:href="#ak"/><use transform="matrix(0.06172839506172839,0,0,0.06172839506172839,173.88888888888889,0)" xlink:href="#ap"/><use transform="matrix(0.06172839506172839,0,0,0.06172839506172839,186.23456790123456,0)" xlink:href="#ad"/><use transform="matrix(0.06172839506172839,0,0,0.06172839506172839,198.58024691358023,0)" xlink:href="#ac"/></g><g id="X"><use transform="matrix(0.06172839506172839,0,0,0.06172839506172839,0,0)" xlink:href="#aC"/><use transform="matrix(0.06172839506172839,0,0,0.06172839506172839,12.345679012345679,0)" xlink:href="#as"/><use transform="matrix(0.06172839506172839,0,0,0.06172839506172839,24.691358024691358,0)" xlink:href="#ai"/><use transform="matrix(0.06172839506172839,0,0,0.06172839506172839,37.03703703703704,0)" xlink:href="#av"/></g><g id="Y"><use transform="matrix(0.04938271604938272,0,0,0.04938271604938272,0,0)" xlink:href="#ax"/><use transform="matrix(0.04938271604938272,0,0,0.04938271604938272,9.876543209876544,0)" xlink:href="#ay"/><use transform="matrix(0.04938271604938272,0,0,0.04938271604938272,16.790123456790127,0)" xlink:href="#az"/><use transform="matrix(0.04938271604938272,0,0,0.04938271604938272,26.666666666666668,0)" xlink:href="#aA"/><use transform="matrix(0.04938271604938272,0,0,0.04938271604938272,36.543209876543216,0)" xlink:href="#aB"/><use transform="matrix(0.04938271604938272,0,0,0.04938271604938272,42.41975308641976,0)" xlink:href="#az"/><use transform="matrix(0.04938271604938272,0,0,0.04938271604938272,52.2962962962963,0)" xlink:href="#aI"/></g><g id="Z"><use transform="matrix(0.06172839506172839,0,0,0.06172839506172839,0,0)" xlink:href="#ap"/><use transform="matrix(0.06172839506172839,0,0,0.06172839506172839,12.345679012345679,0)" xlink:href="#ae"/><use transform="matrix(0.06172839506172839,0,0,0.06172839506172839,19.691358024691358,0)" xlink:href="#as"/><use transform="matrix(0.06172839506172839,0,0,0.06172839506172839,32.03703703703704,0)" xlink:href="#ab"/><use transform="matrix(0.06172839506172839,0,0,0.06172839506172839,44.382716049382715,0)" xlink:href="#aq"/><use transform="matrix(0.06172839506172839,0,0,0.06172839506172839,56.72839506172839,0)" xlink:href="#aj"/><use transform="matrix(0.06172839506172839,0,0,0.06172839506172839,69.07407407407408,0)" xlink:href="#am"/><use transform="matrix(0.06172839506172839,0,0,0.06172839506172839,87.53086419753086,0)" xlink:href="#ad"/><use transform="matrix(0.06172839506172839,0,0,0.06172839506172839,99.87654320987654,0)" xlink:href="#ac"/><use transform="matrix(0.06172839506172839,0,0,0.06172839506172839,110.98765432098766,0)" xlink:href="#ac"/><use transform="matrix(0.06172839506172839,0,0,0.06172839506172839,122.09876543209877,0)" xlink:href="#ak"/><use transform="matrix(0.06172839506172839,0,0,0.06172839506172839,134.44444444444446,0)" xlink:href="#ap"/><use transform="matrix(0.06172839506172839,0,0,0.06172839506172839,146.79012345679013,0)" xlink:href="#ad"/><use transform="matrix(0.06172839506172839,0,0,0.06172839506172839,159.1358024691358,0)" xlink:href="#ac"/></g><g id="aa"><use transform="matrix(0.06172839506172839,0,0,0.06172839506172839,0,0)" xlink:href="#ah"/><use transform="matrix(0.06172839506172839,0,0,0.06172839506172839,4.876543209876543,0)" xlink:href="#ai"/><use transform="matrix(0.06172839506172839,0,0,0.06172839506172839,17.22222222222222,0)" xlink:href="#aj"/><use transform="matrix(0.06172839506172839,0,0,0.06172839506172839,29.5679012345679,0)" xlink:href="#ap"/><use transform="matrix(0.06172839506172839,0,0,0.06172839506172839,41.913580246913575,0)" xlink:href="#ae"/><use transform="matrix(0.06172839506172839,0,0,0.06172839506172839,49.25925925925925,0)" xlink:href="#as"/><use transform="matrix(0.06172839506172839,0,0,0.06172839506172839,61.60493827160493,0)" xlink:href="#ab"/><use transform="matrix(0.06172839506172839,0,0,0.06172839506172839,73.9506172839506,0)" xlink:href="#aq"/><use transform="matrix(0.06172839506172839,0,0,0.06172839506172839,86.29629629629629,0)" xlink:href="#aj"/><use transform="matrix(0.06172839506172839,0,0,0.06172839506172839,98.64197530864197,0)" xlink:href="#am"/><use transform="matrix(0.06172839506172839,0,0,0.06172839506172839,117.09876543209876,0)" xlink:href="#ad"/><use transform="matrix(0.06172839506172839,0,0,0.06172839506172839,129.44444444444443,0)" xlink:href="#ac"/><use transform="matrix(0.06172839506172839,0,0,0.06172839506172839,140.55555555555554,0)" xlink:href="#ac"/><use transform="matrix(0.06172839506172839,0,0,0.06172839506172839,151.66666666666666,0)" xlink:href="#ak"/><use transform="matrix(0.06172839506172839,0,0,0.06172839506172839,164.01234567901233,0)" xlink:href="#ap"/><use transform="matrix(0.06172839506172839,0,0,0.06172839506172839,176.358024691358,0)" xlink:href="#ad"/><use transform="matrix(0.06172839506172839,0,0,0.06172839506172839,188.70370370370367,0)" xlink:href="#ac"/></g></defs></g></svg>