<svg xmlns="http://www.w3.org/2000/svg" xmlns:xlink="http://www.w3.org/1999/xlink" xmlns:lucid="lucid" width="1636" height="1208"><g transform="translate(-124.43307086614163 -80)" lucid:page-tab-id="0_0"><path d="M0 0h1870.87v1322.83H0z" fill="#fff"/><path d="M310.9 748.97a6 6 0 0 1 6-6h288a6 6 0 0 1 6 6v250a6 6 0 0 1-6 6h-288a6 6 0 0 1-6-6z" fill="#fcfcca"/><path d="M310.9 748.97a6 6 0 0 1 6-6h288a6 6 0 0 1 6 6v250a6 6 0 0 1-6 6h-288a6 6 0 0 1-6-6zM310.9 782.97h300M370.9 782.97v222M522.9 782.97v222" stroke="#3a414a" fill="none"/><use xlink:href="#a" transform="matrix(1,0,0,1,320.9149824952084,742.9708482485805) translate(112.87037037037038 24.444444444444443)"/><use xlink:href="#b" transform="matrix(1,0,0,1,315.9149824952084,785.4708482485805) translate(10.185185185185187 20.444444444444443)"/><use xlink:href="#c" transform="matrix(1,0,0,1,375.9149824952084,785.4708482485805) translate(0 20.444444444444443)"/><use xlink:href="#d" transform="matrix(1,0,0,1,527.9149824952084,785.4708482485805) translate(0 20.444444444444443)"/><use xlink:href="#e" transform="matrix(1,0,0,1,375.9149824952084,822.4708482485805) translate(0 20.444444444444443)"/><use xlink:href="#f" transform="matrix(1,0,0,1,527.9149824952084,822.4708482485805) translate(0 20.444444444444443)"/><use xlink:href="#g" transform="matrix(1,0,0,1,375.9149824952084,859.4708482485805) translate(0 20.444444444444443)"/><use xlink:href="#f" transform="matrix(1,0,0,1,527.9149824952084,859.4708482485805) translate(0 20.444444444444443)"/><use xlink:href="#h" transform="matrix(1,0,0,1,375.9149824952084,896.4708482485805) translate(0 20.444444444444443)"/><use xlink:href="#f" transform="matrix(1,0,0,1,527.9149824952084,896.4708482485805) translate(0 20.444444444444443)"/><use xlink:href="#i" transform="matrix(1,0,0,1,375.9149824952084,933.4708482485805) translate(0 20.444444444444443)"/><use xlink:href="#f" transform="matrix(1,0,0,1,527.9149824952084,933.4708482485805) translate(0 20.444444444444443)"/><use xlink:href="#j" transform="matrix(1,0,0,1,375.9149824952084,970.4708482485805) translate(0 20.444444444444443)"/><use xlink:href="#k" transform="matrix(1,0,0,1,527.9149824952084,970.4708482485805) translate(0 20.444444444444443)"/><path d="M870.9 706a6 6 0 0 1 6-6h288a6 6 0 0 1 6 6v176a6 6 0 0 1-6 6h-288a6 6 0 0 1-6-6z" fill="#e3fae3"/><path d="M870.9 706a6 6 0 0 1 6-6h288a6 6 0 0 1 6 6v176a6 6 0 0 1-6 6h-288a6 6 0 0 1-6-6zM870.9 740h300M930.9 740v148M1074.9 740v148" stroke="#3a414a" fill="none"/><use xlink:href="#l" transform="matrix(1,0,0,1,880.9149824952084,700) translate(101.14197530864197 24.444444444444443)"/><use xlink:href="#b" transform="matrix(1,0,0,1,875.9149824952084,742.5) translate(10.185185185185187 20.444444444444443)"/><use xlink:href="#m" transform="matrix(1,0,0,1,935.9149824952084,742.5) translate(0 20.444444444444443)"/><use xlink:href="#d" transform="matrix(1,0,0,1,1079.9149824952083,742.5) translate(0 20.444444444444443)"/><use xlink:href="#n" transform="matrix(1,0,0,1,935.9149824952084,779.5) translate(0 20.444444444444443)"/><use xlink:href="#f" transform="matrix(1,0,0,1,1079.9149824952083,779.5) translate(0 20.444444444444443)"/><use xlink:href="#o" transform="matrix(1,0,0,1,935.9149824952084,816.5) translate(0 20.444444444444443)"/><use xlink:href="#f" transform="matrix(1,0,0,1,1079.9149824952083,816.5) translate(0 20.444444444444443)"/><use xlink:href="#p" transform="matrix(1,0,0,1,875.9149824952084,853.5) translate(10.833333333333336 20.444444444444443)"/><use xlink:href="#c" transform="matrix(1,0,0,1,935.9149824952084,853.5) translate(0 20.444444444444443)"/><use xlink:href="#q" transform="matrix(1,0,0,1,1079.9149824952083,853.5) translate(0 20.444444444444443)"/><path d="M741.42 863.48l.07.88.2.84.32.8.45.73.56.66.66.55.72.45.8.33.82.2 84.94.07v1l-85.06-.07-1-.25-.95-.4-.87-.52-.78-.66-.66-.78-.53-.87-.4-.94-.23-.98-.08-1-.07-51.38h1zm-110.06-61.5v-1h64.68v1z" stroke="#3a414a" stroke-width=".05" fill="#3a414a"/><path fill="#fff"/><path d="M621.86 811.47h-1v-20h1z" stroke="#3a414a" stroke-width=".05" fill="#3a414a"/><path fill="#fff"/><path d="M631.36 801.97h-20v-1h20z" stroke="#3a414a" stroke-width=".05" fill="#3a414a"/><path fill="#fff"/><path d="M631.86 811.47h-1v-20h1z" stroke="#3a414a" stroke-width=".05" fill="#3a414a"/><path d="M870.26 879.5l-20-10 20-10" fill="#fff" fill-opacity="0"/><path d="M870.48 859.95l-19.1 9.55 19.1 9.55-.44.9-20.9-10.45 20.9-10.45z" stroke="#3a414a" stroke-width=".05" fill="#3a414a"/><path fill="#fff"/><path d="M870.26 870h-20v-1h20z" stroke="#3a414a" stroke-width=".05" fill="#3a414a"/><path d="M850.26 869.5l-.5 3.16-1.43 2.75-2.16 2.17-2.75 1.42-3.16.5-3.16-.5-2.75-1.43-2.16-2.16-1.43-2.74-.5-3.16.5-3.16 1.42-2.75 2.15-2.17 2.75-1.42 3.16-.5 3.16.5 2.75 1.43 2.16 2.16 1.42 2.74.5 3.16" fill="#fff"/><path d="M843.58 859.53l2.88 1.5 2.28 2.27 1.5 2.88.5 3.24-.48.08.5.08-.53 3.24-1.5 2.88-2.27 2.28-2.88 1.5-3.32.53-3.32-.53-2.88-1.5-2.28-2.27-1.5-2.88-.53-3.32.54-3.32 1.48-2.88 2.28-2.28 2.88-1.5 3.32-.53zm-6.32.96l-2.6 1.34-2.06 2.05-1.35 2.6-.48 3 .48 3 1.35 2.6 2.05 2.06 2.6 1.35 3 .5 3-.5 2.62-1.34 2.05-2.05 1.35-2.6.48-3-.48-3-1.35-2.6-2.05-2.06-2.6-1.35-3-.5z" stroke="#3a414a" stroke-width=".05" fill="#3a414a"/><use xlink:href="#r" transform="matrix(1,0,0,1,696.0422306247706,790.804181581941) translate(0 14.222222222222223)"/><path d="M1370.43 906a6 6 0 0 1 6-6h308a6 6 0 0 1 6 6v139a6 6 0 0 1-6 6h-308a6 6 0 0 1-6-6z" fill="#d7faf5"/><path d="M1370.43 906a6 6 0 0 1 6-6h308a6 6 0 0 1 6 6v139a6 6 0 0 1-6 6h-308a6 6 0 0 1-6-6zM1370.43 940h320M1430.43 940v111M1605.1 940v111" stroke="#3a414a" fill="none"/><use xlink:href="#s" transform="matrix(1,0,0,1,1380.4330708661416,900) translate(83.39506172839505 24.444444444444443)"/><use xlink:href="#b" transform="matrix(1,0,0,1,1375.4330708661416,942.5) translate(10.185185185185187 20.444444444444443)"/><use xlink:href="#t" transform="matrix(1,0,0,1,1435.4330708661416,942.5) translate(0 20.444444444444443)"/><use xlink:href="#d" transform="matrix(1,0,0,1,1610.0997375328084,942.5) translate(0 20.444444444444443)"/><use xlink:href="#p" transform="matrix(1,0,0,1,1375.4330708661416,979.5) translate(10.833333333333336 20.444444444444443)"/><use xlink:href="#u" transform="matrix(1,0,0,1,1435.4330708661416,979.5) translate(0 20.444444444444443)"/><use xlink:href="#q" transform="matrix(1,0,0,1,1610.0997375328084,979.5) translate(0 20.444444444444443)"/><use xlink:href="#p" transform="matrix(1,0,0,1,1375.4330708661416,1016.5) translate(10.833333333333336 20.444444444444443)"/><use xlink:href="#c" transform="matrix(1,0,0,1,1435.4330708661416,1016.5) translate(0 20.444444444444443)"/><use xlink:href="#q" transform="matrix(1,0,0,1,1610.0997375328084,1016.5) translate(0 20.444444444444443)"/><path d="M1330.5 1032v1l-168.7-.02v-1zM655.45 801.05l1 .24.93.38.87.53.78.67.66.78.53.87.4.94.23 1 .07 220.02.07.88.2.84.33.8.45.73.57.66.65.55.74.45.8.33.8.2 406.7.04v1l-406.8-.04-1.02-.25-.94-.4-.87-.52-.76-.66-.67-.78-.53-.87-.4-.94-.23-.98-.07-1-.07-219.93-.2-.83-.33-.8-.45-.73-.56-.66-.66-.56-.73-.45-.8-.33-.84-.2-.9-.07h-23.04v-1h23.1z" stroke="#3a414a" stroke-width=".05" fill="#3a414a"/><path fill="#fff"/><path d="M621.86 811.47h-1v-20h1z" stroke="#3a414a" stroke-width=".05" fill="#3a414a"/><path fill="#fff"/><path d="M631.36 801.97h-20v-1h20z" stroke="#3a414a" stroke-width=".05" fill="#3a414a"/><path fill="#fff"/><path d="M631.86 811.47h-1v-20h1z" stroke="#3a414a" stroke-width=".05" fill="#3a414a"/><path d="M1369.78 1042.5l-20-10 20-10" fill="#fff" fill-opacity="0"/><path d="M1370 1022.95l-19.1 9.55 19.1 9.55-.45.9-20.9-10.45 20.9-10.45z" stroke="#3a414a" stroke-width=".05" fill="#3a414a"/><path fill="#fff"/><path d="M1369.78 1033h-20v-1h20z" stroke="#3a414a" stroke-width=".05" fill="#3a414a"/><path d="M1349.78 1032.5l-.5 3.16-1.43 2.75-2.17 2.17-2.74 1.42-3.16.5-3.16-.5-2.75-1.43-2.16-2.16-1.4-2.74-.52-3.16.5-3.16 1.43-2.75 2.17-2.17 2.75-1.42 3.16-.5 3.16.5 2.74 1.43 2.17 2.16 1.42 2.74.5 3.16" fill="#fff"/><path d="M1343.1 1022.53l2.88 1.5 2.28 2.27 1.5 2.88.5 3.24-.48.08.5.08-.53 3.24-1.5 2.88-2.27 2.28-2.88 1.5-3.32.53-3.32-.53-2.9-1.5-2.26-2.27-1.5-2.88-.53-3.32.54-3.32 1.5-2.88 2.27-2.28 2.9-1.5 3.3-.53zm-6.33.96l-2.6 1.34-2.06 2.05-1.33 2.6-.5 3 .5 3 1.34 2.6 2.07 2.06 2.6 1.35 3 .5 3-.5 2.6-1.34 2.07-2.05 1.35-2.6.47-3-.48-3-1.36-2.6-2.06-2.06-2.6-1.35-3-.5z" stroke="#3a414a" stroke-width=".05" fill="#3a414a"/><use xlink:href="#v" transform="matrix(1,0,0,1,1072.2329121806872,1021.8333333330887) translate(0 14.222222222222223)"/><use xlink:href="#w" transform="matrix(1,0,0,1,1072.2329121806872,1021.8333333330887) translate(72.88888888888891 14.222222222222223)"/><path d="M1271.25 990.38l.2.82.32.8.45.73.56.66.66.55.74.45.8.33.83.2.9.07h53.78v1h-53.83l-1-.08-1-.24-.93-.4-.87-.52-.78-.66-.66-.78-.52-.87-.4-.94-.23-1-.04-102.83h1zm-5.58-232.3l1 .24.95.4.87.52.77.66.66.78.53.87.4.94.23.98.07 1 .04 101.85h-1l-.03-101.8-.07-.9-.2-.83-.33-.8-.45-.73-.56-.66-.66-.55-.73-.45-.8-.33-.82-.2-74.2-.07v-1z" stroke="#3a414a" stroke-width=".05" fill="#3a414a"/><path d="M1369.76 1005.5l-20-10 20-10" fill="#fff" fill-opacity="0"/><path d="M1369.98 985.95l-19.1 9.55 19.1 9.55-.45.9-20.9-10.45 20.9-10.45z" stroke="#3a414a" stroke-width=".05" fill="#3a414a"/><path fill="#fff"/><path d="M1369.76 996h-20v-1h20z" stroke="#3a414a" stroke-width=".05" fill="#3a414a"/><path d="M1349.76 995.5l-.5 3.16-1.43 2.75-2.17 2.17-2.74 1.42-3.16.5-3.16-.5-2.75-1.43-2.16-2.16-1.43-2.74-.5-3.16.5-3.16 1.42-2.75 2.15-2.17 2.75-1.42 3.16-.5 3.16.5 2.74 1.43 2.17 2.16 1.42 2.74.5 3.16" fill="#fff"/><path d="M1343.08 985.53l2.88 1.5 2.28 2.27 1.5 2.88.5 3.24-.48.08.5.08-.53 3.24-1.5 2.88-2.27 2.28-2.88 1.5-3.32.53-3.32-.53-2.9-1.5-2.26-2.27-1.5-2.88-.53-3.32.54-3.32 1.48-2.88 2.27-2.28 2.9-1.5 3.3-.53zm-6.33.96l-2.6 1.34-2.06 2.05-1.35 2.6-.5 3 .5 3 1.34 2.6 2.05 2.06 2.6 1.35 3 .5 3-.5 2.6-1.34 2.07-2.05 1.35-2.6.48-3-.48-3-1.35-2.6-2.06-2.06-2.6-1.35-3-.5z" stroke="#3a414a" stroke-width=".05" fill="#3a414a"/><path fill="#fff"/><path d="M1181.86 768.5h-1v-20h1z" stroke="#3a414a" stroke-width=".05" fill="#3a414a"/><path fill="#fff"/><path d="M1191.36 759h-20v-1h20z" stroke="#3a414a" stroke-width=".05" fill="#3a414a"/><path fill="#fff"/><path d="M1191.86 768.5h-1v-20h1z" stroke="#3a414a" stroke-width=".05" fill="#3a414a"/><use xlink:href="#x" transform="matrix(1,0,0,1,1255.3879159715893,866.3333333333205) translate(0 14.222222222222223)"/><path d="M1370.43 466a6 6 0 0 1 6-6h308a6 6 0 0 1 6 6v287a6 6 0 0 1-6 6h-308a6 6 0 0 1-6-6z" fill="#ffd6f5"/><path d="M1370.43 466a6 6 0 0 1 6-6h308a6 6 0 0 1 6 6v287a6 6 0 0 1-6 6h-308a6 6 0 0 1-6-6zM1370.43 500h320M1430.43 500v259M1615.77 500v259" stroke="#3a414a" fill="none"/><use xlink:href="#y" transform="matrix(1,0,0,1,1380.4330708661416,460) translate(96.9753086419753 24.444444444444443)"/><use xlink:href="#b" transform="matrix(1,0,0,1,1375.4330708661416,502.5) translate(10.185185185185187 20.444444444444443)"/><use xlink:href="#z" transform="matrix(1,0,0,1,1435.4330708661416,502.5) translate(0 20.444444444444443)"/><use xlink:href="#d" transform="matrix(1,0,0,1,1620.766404199475,502.5) translate(0 20.444444444444443)"/><use xlink:href="#n" transform="matrix(1,0,0,1,1435.4330708661416,539.5) translate(0 20.444444444444443)"/><use xlink:href="#f" transform="matrix(1,0,0,1,1620.766404199475,539.5) translate(0 20.444444444444443)"/><use xlink:href="#o" transform="matrix(1,0,0,1,1435.4330708661416,576.5) translate(0 20.444444444444443)"/><use xlink:href="#f" transform="matrix(1,0,0,1,1620.766404199475,576.5) translate(0 20.444444444444443)"/><use xlink:href="#A" transform="matrix(1,0,0,1,1435.4330708661416,613.5) translate(0 20.444444444444443)"/><use xlink:href="#f" transform="matrix(1,0,0,1,1620.766404199475,613.5) translate(0 20.444444444444443)"/><use xlink:href="#B" transform="matrix(1,0,0,1,1435.4330708661416,650.5) translate(0 20.444444444444443)"/><use xlink:href="#B" transform="matrix(1,0,0,1,1620.766404199475,650.5) translate(0 20.444444444444443)"/><use xlink:href="#C" transform="matrix(1,0,0,1,1435.4330708661416,687.5) translate(0 20.444444444444443)"/><use xlink:href="#D" transform="matrix(1,0,0,1,1620.766404199475,687.5) translate(0 20.444444444444443)"/><use xlink:href="#p" transform="matrix(1,0,0,1,1375.4330708661416,724.5) translate(10.833333333333336 20.444444444444443)"/><use xlink:href="#E" transform="matrix(1,0,0,1,1435.4330708661416,724.5) translate(0 20.444444444444443)"/><use xlink:href="#q" transform="matrix(1,0,0,1,1620.766404199475,724.5) translate(0 20.444444444444443)"/><path d="M1290.43 741.05l-14.63.02-.82.2-.8.32-.73.44-.65.56-.56.66-.46.74-.33.8-.2.83-.07.88-.07 6.9-.23 1-.4.95-.53.87-.66.77-.78.65-.86.54-.95.38-1 .24-1 .07h-73.34v-1h73.3l.88-.08.84-.2.8-.33.74-.46.65-.56.56-.65.45-.74.33-.8.2-.83.08-6.8.08-1 .24-1 .4-.93.52-.87.67-.78.76-.67.87-.53.94-.4 1.02-.23 14.73-.02zm40.07-.06h-9.5v-1h9.5z" stroke="#3a414a" stroke-width=".05" fill="#3a414a"/><path fill="#fff"/><path d="M1181.86 768.4h-1v-20h1z" stroke="#3a414a" stroke-width=".05" fill="#3a414a"/><path fill="#fff"/><path d="M1191.36 758.9h-20v-1h20z" stroke="#3a414a" stroke-width=".05" fill="#3a414a"/><path fill="#fff"/><path d="M1191.86 768.4h-1v-20h1z" stroke="#3a414a" stroke-width=".05" fill="#3a414a"/><path d="M1369.78 750.5l-20-10 20-10" fill="#fff" fill-opacity="0"/><path d="M1370 730.94l-19.1 9.55 19.1 9.55-.44.9-20.9-10.46 20.9-10.45z" stroke="#3a414a" stroke-width=".05" fill="#3a414a"/><path fill="#fff"/><path d="M1369.78 741h-20v-1h20z" stroke="#3a414a" stroke-width=".05" fill="#3a414a"/><path d="M1349.78 740.5l-.5 3.15-1.43 2.75-2.16 2.16-2.76 1.42-3.16.5-3.16-.5-2.75-1.42-2.16-2.16-1.4-2.75-.52-3.16.5-3.17 1.43-2.74 2.17-2.18 2.75-1.42 3.16-.5 3.16.5 2.75 1.42 2.15 2.17 1.42 2.73.5 3.16" fill="#fff"/><path d="M1343.1 730.52l2.88 1.5 2.28 2.27 1.5 2.87.5 3.24-.48.1.5.07-.53 3.24-1.5 2.9-2.27 2.27-2.88 1.5-3.32.53-3.32-.54-2.88-1.5-2.28-2.26-1.5-2.9-.53-3.3.54-3.33 1.5-2.88 2.28-2.3 2.88-1.48 3.32-.53zm-6.32.96l-2.6 1.35-2.06 2.06-1.35 2.6-.48 3 .47 3 1.35 2.6 2.05 2.05 2.6 1.35 3 .5 3-.5 2.62-1.35 2.04-2.05 1.35-2.6.47-3-.48-3-1.36-2.6-2.05-2.07-2.62-1.35-3-.48z" stroke="#3a414a" stroke-width=".05" fill="#3a414a"/><use xlink:href="#x" transform="matrix(1,0,0,1,1290.428575315063,729.8255755141128) translate(0 14.222222222222223)"/><path d="M850.9 386a6 6 0 0 1 6-6h317.53a6 6 0 0 1 6 6v213a6 6 0 0 1-6 6H856.9a6 6 0 0 1-6-6z" fill="#edf5ff"/><path d="M850.9 386a6 6 0 0 1 6-6h317.53a6 6 0 0 1 6 6v213a6 6 0 0 1-6 6H856.9a6 6 0 0 1-6-6zM850.9 420h329.53M910.9 420v185M1098.37 420v185" stroke="#3a414a" fill="none"/><use xlink:href="#F" transform="matrix(1,0,0,1,860.9149824952085,380) translate(121.08024691358025 24.444444444444443)"/><use xlink:href="#b" transform="matrix(1,0,0,1,855.9149824952085,422.5) translate(10.185185185185187 20.444444444444443)"/><use xlink:href="#G" transform="matrix(1,0,0,1,915.9149824952085,422.5) translate(0 20.444444444444443)"/><use xlink:href="#d" transform="matrix(1,0,0,1,1103.366141732283,422.5) translate(0 20.444444444444443)"/><use xlink:href="#H" transform="matrix(1,0,0,1,915.9149824952085,459.5) translate(0 20.444444444444443)"/><use xlink:href="#q" transform="matrix(1,0,0,1,1103.366141732283,459.5) translate(0 20.444444444444443)"/><use xlink:href="#I" transform="matrix(1,0,0,1,915.9149824952085,496.5) translate(0 20.444444444444443)"/><use xlink:href="#q" transform="matrix(1,0,0,1,1103.366141732283,496.5) translate(0 20.444444444444443)"/><use xlink:href="#p" transform="matrix(1,0,0,1,855.9149824952085,533.5) translate(10.833333333333336 20.444444444444443)"/><use xlink:href="#z" transform="matrix(1,0,0,1,915.9149824952085,533.5) translate(0 20.444444444444443)"/><use xlink:href="#q" transform="matrix(1,0,0,1,1103.366141732283,533.5) translate(0 20.444444444444443)"/><use xlink:href="#p" transform="matrix(1,0,0,1,855.9149824952085,570.5) translate(10.833333333333336 20.444444444444443)"/><use xlink:href="#c" transform="matrix(1,0,0,1,915.9149824952085,570.5) translate(0 20.444444444444443)"/><use xlink:href="#q" transform="matrix(1,0,0,1,1103.366141732283,570.5) translate(0 20.444444444444443)"/><path d="M1246.12 549.98l-25.7.02v-1l25.7-.02zM1349.95 519h-53.02l-.88.07-.83.2-.8.33-.74.45-.65.56-.56.67-.45.73-.33.8-.2.82-.07 15.2h-1l.06-15.32.23-1 .4-.95.53-.87.66-.78.77-.66.86-.53.95-.38 1-.24 1-.08h53.05z" stroke="#3a414a" stroke-width=".05" fill="#3a414a"/><path fill="#fff"/><path d="M1350.45 528.5h-1v-20h1z" stroke="#3a414a" stroke-width=".05" fill="#3a414a"/><path fill="#fff"/><path d="M1369.95 519h-20v-1h20z" stroke="#3a414a" stroke-width=".05" fill="#3a414a"/><path d="M1181.14 539.5l20 10-20 10" fill="#fff" fill-opacity="0"/><path d="M1202.26 549.5l-20.9 10.45-.44-.9 19.1-9.55-19.1-9.55.44-.9z" stroke="#3a414a" stroke-width=".05" fill="#3a414a"/><path fill="#fff"/><path d="M1201.14 550h-20v-1h20z" stroke="#3a414a" stroke-width=".05" fill="#3a414a"/><path d="M1221.14 549.5l-.5 3.17-1.43 2.74-2.15 2.17-2.75 1.42-3.16.5-3.16-.5-2.75-1.43-2.16-2.16-1.42-2.73-.5-3.17.5-3.16 1.42-2.74 2.16-2.17 2.75-1.42 3.16-.5 3.16.5 2.75 1.43 2.16 2.17 1.43 2.74.5 3.16" fill="#fff"/><path d="M1214.46 539.53l2.88 1.5 2.28 2.27 1.5 2.9.5 3.22-.48.08.5.08-.53 3.24-1.48 2.9-2.28 2.26-2.88 1.5-3.32.53-3.32-.52-2.88-1.5-2.28-2.27-1.5-2.88-.53-3.32.54-3.3 1.5-2.9 2.27-2.27 2.88-1.5 3.32-.53zm-6.32.97l-2.6 1.34-2.06 2.06-1.35 2.6-.48 3 .48 3 1.35 2.6 2.05 2.07 2.6 1.34 3 .5 3-.5 2.62-1.33 2.05-2.06 1.35-2.6.48-3-.48-3-1.35-2.6-2.05-2.06-2.6-1.34-3-.5z" stroke="#3a414a" stroke-width=".05" fill="#3a414a"/><use xlink:href="#v" transform="matrix(1,0,0,1,1246.1248590384184,538.8192645304556) translate(0 14.222222222222223)"/><use xlink:href="#w" transform="matrix(1,0,0,1,1246.1248590384184,538.8192645304556) translate(72.88888888888891 14.222222222222223)"/><path d="M696.04 801.97h-64.68v-1h64.68zM810.98 587l-74.94.07-.82.2-.8.32-.73.44-.67.56-.56.66-.45.74-.33.8-.2.83-.08.88-.07 198.3h-1l.07-198.33.08-1 .24-1 .4-.93.52-.87.66-.77.78-.67.87-.53.94-.4 1.02-.23 75.06-.08z" stroke="#3a414a" stroke-width=".05" fill="#3a414a"/><path fill="#fff"/><path d="M631.86 811.47h-1v-20h1z" stroke="#3a414a" stroke-width=".05" fill="#3a414a"/><path fill="#fff"/><path d="M631.36 801.97h-20v-1h20z" stroke="#3a414a" stroke-width=".05" fill="#3a414a"/><path d="M850.26 596.5l-20-10 20-10" fill="#fff" fill-opacity="0"/><path d="M850.48 576.94l-19.1 9.55 19.1 9.55-.44.9-20.9-10.46 20.9-10.45z" stroke="#3a414a" stroke-width=".05" fill="#3a414a"/><path fill="#fff"/><path d="M850.26 587h-20v-1h20z" stroke="#3a414a" stroke-width=".05" fill="#3a414a"/><path d="M830.26 586.5l-.5 3.15-1.43 2.75-2.16 2.16-2.75 1.42-3.16.5-3.16-.5-2.75-1.42-2.16-2.16-1.43-2.75-.5-3.16.5-3.17 1.42-2.74 2.15-2.18 2.75-1.42 3.16-.5 3.16.5 2.75 1.42 2.16 2.17 1.42 2.73.5 3.16" fill="#fff"/><path d="M823.58 576.52l2.9 1.5 2.26 2.27 1.5 2.87.5 3.24-.48.1.5.07-.53 3.24-1.5 2.9-2.26 2.27-2.9 1.5-3.3.53-3.33-.54-2.88-1.5-2.28-2.26-1.5-2.9-.53-3.3.54-3.33 1.48-2.88 2.28-2.3 2.88-1.48 3.32-.53zm-6.32.96l-2.6 1.35-2.06 2.06-1.35 2.6-.48 3 .48 3 1.35 2.6 2.05 2.05 2.6 1.35 3 .5 3-.5 2.62-1.35 2.05-2.05 1.35-2.6.48-3-.48-3-1.35-2.6-2.05-2.07-2.6-1.35-3-.48z" stroke="#3a414a" stroke-width=".05" fill="#3a414a"/><path d="M310.9 366a6 6 0 0 1 6-6h288a6 6 0 0 1 6 6v213a6 6 0 0 1-6 6h-288a6 6 0 0 1-6-6z" fill="#e3fae3"/><path d="M310.9 366a6 6 0 0 1 6-6h288a6 6 0 0 1 6 6v213a6 6 0 0 1-6 6h-288a6 6 0 0 1-6-6zM310.9 400h300M370.9 400v185M544.17 400v185" stroke="#3a414a" fill="none"/><use xlink:href="#J" transform="matrix(1,0,0,1,320.9149824952084,360) translate(82.62345679012344 24.444444444444443)"/><use xlink:href="#b" transform="matrix(1,0,0,1,315.9149824952084,402.5) translate(10.185185185185187 20.444444444444443)"/><use xlink:href="#K" transform="matrix(1,0,0,1,375.9149824952084,402.5) translate(0 20.444444444444443)"/><use xlink:href="#d" transform="matrix(1,0,0,1,549.1720168438748,402.5) translate(0 20.444444444444443)"/><use xlink:href="#L" transform="matrix(1,0,0,1,375.9149824952084,439.5) translate(0 20.444444444444443)"/><use xlink:href="#q" transform="matrix(1,0,0,1,549.1720168438748,439.5) translate(0 20.444444444444443)"/><use xlink:href="#M" transform="matrix(1,0,0,1,375.9149824952084,476.5) translate(0 20.444444444444443)"/><use xlink:href="#N" transform="matrix(1,0,0,1,549.1720168438748,476.5) translate(0 20.444444444444443)"/><use xlink:href="#p" transform="matrix(1,0,0,1,315.9149824952084,513.5) translate(10.833333333333336 20.444444444444443)"/><use xlink:href="#G" transform="matrix(1,0,0,1,375.9149824952084,513.5) translate(0 20.444444444444443)"/><use xlink:href="#q" transform="matrix(1,0,0,1,549.1720168438748,513.5) translate(0 20.444444444444443)"/><use xlink:href="#p" transform="matrix(1,0,0,1,315.9149824952084,550.5) translate(10.833333333333336 20.444444444444443)"/><use xlink:href="#c" transform="matrix(1,0,0,1,375.9149824952084,550.5) translate(0 20.444444444444443)"/><use xlink:href="#q" transform="matrix(1,0,0,1,549.1720168438748,550.5) translate(0 20.444444444444443)"/><path d="M731.42 523.52l-.08 1-.24 1-.4.93-.52.87-.67.78-.76.66-.87.53-.95.38-1 .25-75.02.07v-1l74.9-.07.8-.2.8-.33.75-.45.65-.56.56-.67.45-.73.34-.8.2-.84.08-.88.02-28.8h1zm99-84.52h-93.48l-.88.07-.84.2-.8.33-.74.45-.65.56-.56.67-.45.73-.33.8-.2.82-.04 29.7h-1l.03-29.82.23-1 .4-.95.53-.87.66-.78.77-.66.86-.53.95-.38 1-.24 1-.08h93.53z" stroke="#3a414a" stroke-width=".05" fill="#3a414a"/><path fill="#fff"/><path d="M840.93 448.5h-1v-20h1z" stroke="#3a414a" stroke-width=".05" fill="#3a414a"/><path fill="#fff"/><path d="M850.43 439h-20v-1h20z" stroke="#3a414a" stroke-width=".05" fill="#3a414a"/><path fill="#fff"/><path d="M830.93 448.5h-1v-20h1z" stroke="#3a414a" stroke-width=".05" fill="#3a414a"/><path d="M611.62 519.5l20 10-20 10" fill="#fff" fill-opacity="0"/><path d="M632.74 529.5l-20.9 10.45-.44-.9 19.1-9.55-19.1-9.55.45-.9z" stroke="#3a414a" stroke-width=".05" fill="#3a414a"/><path fill="#fff"/><path d="M631.62 530h-20v-1h20z" stroke="#3a414a" stroke-width=".05" fill="#3a414a"/><path d="M651.62 529.5l-.5 3.16-1.43 2.75-2.17 2.17-2.75 1.42-3.16.5-3.16-.5-2.74-1.43-2.17-2.16-1.42-2.74-.5-3.16.5-3.16 1.42-2.75 2.17-2.17 2.74-1.42 3.16-.5 3.16.5 2.75 1.43 2.16 2.16 1.4 2.74.52 3.16" fill="#fff"/><path d="M644.94 519.53l2.9 1.5 2.26 2.27 1.5 2.88.52 3.24-.5.08.5.08-.53 3.24-1.5 2.88-2.27 2.28-2.9 1.5-3.3.53-3.33-.53-2.88-1.5-2.28-2.27-1.5-2.88-.52-3.32.53-3.32 1.5-2.88 2.27-2.28 2.88-1.5 3.32-.53zm-6.32.96l-2.6 1.34-2.06 2.05-1.35 2.6-.47 3 .48 3 1.36 2.6 2.05 2.06 2.62 1.35 3 .5 3-.5 2.6-1.34 2.06-2.05 1.35-2.6.5-3-.5-3-1.35-2.6-2.05-2.06-2.6-1.35-3-.5z" stroke="#3a414a" stroke-width=".05" fill="#3a414a"/><use xlink:href="#x" transform="matrix(1,0,0,1,715.6315504024874,473.33333225297685) translate(0 14.222222222222223)"/><path d="M181 796.35l.2.82.33.8.45.73.57.66.65.56.74.45.8.33.83.2.88.07h103.98v1H186.4l-.98-.08-1-.25-.94-.4-.87-.52-.76-.66-.67-.78-.53-.88-.4-.94-.23-1v-63.72h1zM271 567l-85.43.07-.82.2-.8.33-.73.45-.65.56-.57.67-.45.73-.33.8-.2.84-.07.88.05 138.9h-1l-.05-138.94.08-1 .25-1 .4-.93.52-.87.67-.78.77-.66.88-.53.94-.38 1.02-.25 85.54-.07z" stroke="#3a414a" stroke-width=".05" fill="#3a414a"/><path fill="#fff"/><path d="M300.93 811.47h-1v-20h1z" stroke="#3a414a" stroke-width=".05" fill="#3a414a"/><path fill="#fff"/><path d="M310.43 801.97h-20v-1h20z" stroke="#3a414a" stroke-width=".05" fill="#3a414a"/><path fill="#fff"/><path d="M290.93 811.47h-1v-20h1z" stroke="#3a414a" stroke-width=".05" fill="#3a414a"/><path d="M310.26 576.5l-20-10 20-10" fill="#fff" fill-opacity="0"/><path d="M310.48 556.95l-19.1 9.55 19.1 9.55-.44.9-20.9-10.45 20.9-10.45z" stroke="#3a414a" stroke-width=".05" fill="#3a414a"/><path fill="#fff"/><path d="M310.26 567h-20v-1h20z" stroke="#3a414a" stroke-width=".05" fill="#3a414a"/><path d="M290.26 566.5l-.5 3.16-1.43 2.75-2.16 2.17-2.75 1.42-3.16.5-3.16-.5-2.75-1.43-2.16-2.16-1.43-2.74-.5-3.16.5-3.16 1.42-2.75 2.15-2.17 2.75-1.42 3.16-.5 3.16.5 2.75 1.43 2.16 2.16 1.42 2.74.5 3.16" fill="#fff"/><path d="M283.58 556.53l2.9 1.5 2.26 2.27 1.5 2.88.5 3.24-.48.08.5.08-.53 3.24-1.5 2.88-2.26 2.28-2.9 1.5-3.3.53-3.33-.53-2.88-1.5-2.28-2.27-1.5-2.88-.53-3.32.54-3.32 1.48-2.88 2.28-2.28 2.88-1.5 3.32-.53zm-6.32.96l-2.6 1.34-2.06 2.05-1.35 2.6-.48 3 .48 3 1.35 2.6 2.05 2.06 2.6 1.35 3 .5 3-.5 2.62-1.34 2.05-2.05 1.35-2.6.48-3-.48-3-1.35-2.6-2.05-2.06-2.6-1.35-3-.5z" stroke="#3a414a" stroke-width=".05" fill="#3a414a"/><use xlink:href="#O" transform="matrix(1,0,0,1,165.61825605132682,711.4293768855965) translate(0 14.222222222222223)"/><use xlink:href="#P" transform="matrix(1,0,0,1,165.61825605132682,711.4293768855965) translate(19.75308641975309 14.222222222222223)"/><path d="M1370.43 246a6 6 0 0 1 6-6h308a6 6 0 0 1 6 6v139a6 6 0 0 1-6 6h-308a6 6 0 0 1-6-6z" fill="#cfe4ff"/><path d="M1370.43 246a6 6 0 0 1 6-6h308a6 6 0 0 1 6 6v139a6 6 0 0 1-6 6h-308a6 6 0 0 1-6-6zM1370.43 280h320M1430.43 280v111M1614.88 280v111" stroke="#3a414a" fill="none"/><use xlink:href="#Q" transform="matrix(1,0,0,1,1380.4330708661416,240) translate(82.1604938271605 24.444444444444443)"/><use xlink:href="#b" transform="matrix(1,0,0,1,1375.4330708661416,282.5) translate(10.185185185185187 20.444444444444443)"/><use xlink:href="#R" transform="matrix(1,0,0,1,1435.4330708661416,282.5) translate(0 20.444444444444443)"/><use xlink:href="#S" transform="matrix(1,0,0,1,1619.8792691149602,282.5) translate(0 20.444444444444443)"/><use xlink:href="#A" transform="matrix(1,0,0,1,1435.4330708661416,319.5) translate(0 20.444444444444443)"/><use xlink:href="#f" transform="matrix(1,0,0,1,1619.8792691149602,319.5) translate(0 20.444444444444443)"/><use xlink:href="#p" transform="matrix(1,0,0,1,1375.4330708661416,356.5) translate(10.833333333333336 20.444444444444443)"/><use xlink:href="#G" transform="matrix(1,0,0,1,1435.4330708661416,356.5) translate(0 20.444444444444443)"/><use xlink:href="#q" transform="matrix(1,0,0,1,1619.8792691149602,356.5) translate(0 20.444444444444443)"/><path d="M1275.86 433.5l-.24 1-.4.95-.52.87-.66.78-.78.66-.87.53-.95.38-1 .24-1 .08h-68.57v-1h68.54l.88-.07.84-.2.8-.33.73-.45.66-.56.56-.67.44-.73.33-.8.2-.82.02-17.14h1zm54.64-60.35l-49.94.08-.82.2-.8.33-.73.45-.65.57-.56.65-.46.74-.33.8-.2.83-.06.87-.02 16.24h-1l.02-16.27.08-1 .24-.98.4-.95.52-.87.66-.77.78-.67.87-.54.93-.4 1-.23 50.07-.08z" stroke="#3a414a" stroke-width=".05" fill="#3a414a"/><path fill="#fff"/><path d="M1191.38 448.5h-1v-20h1z" stroke="#3a414a" stroke-width=".05" fill="#3a414a"/><path fill="#fff"/><path d="M1200.88 439h-20v-1h20z" stroke="#3a414a" stroke-width=".05" fill="#3a414a"/><path fill="#fff"/><path d="M1201.38 448.5h-1v-20h1z" stroke="#3a414a" stroke-width=".05" fill="#3a414a"/><path d="M1369.78 382.65l-20-10 20-10" fill="#fff" fill-opacity="0"/><path d="M1370 363.1l-19.1 9.55 19.1 9.56-.45.9-20.9-10.45 20.9-10.44z" stroke="#3a414a" stroke-width=".05" fill="#3a414a"/><path fill="#fff"/><path d="M1369.78 373.15h-20v-1h20z" stroke="#3a414a" stroke-width=".05" fill="#3a414a"/><path d="M1349.78 372.65l-.5 3.17-1.43 2.74-2.17 2.16-2.74 1.42-3.16.5-3.16-.5-2.75-1.42-2.16-2.16-1.4-2.74-.52-3.17.5-3.16 1.43-2.75 2.17-2.17 2.75-1.42 3.16-.5 3.16.5 2.74 1.42 2.17 2.17 1.42 2.74.5 3.15" fill="#fff"/><path d="M1343.1 362.68l2.88 1.5 2.28 2.27 1.5 2.88.5 3.24-.48.08.5.08-.53 3.24-1.5 2.9-2.27 2.26-2.88 1.5-3.32.53-3.32-.53-2.9-1.5-2.26-2.27-1.5-2.9-.53-3.3.54-3.33 1.5-2.88 2.27-2.27 2.9-1.5 3.3-.53zm-6.33.96l-2.6 1.35-2.06 2.05-1.33 2.6-.5 3 .5 3 1.34 2.6 2.07 2.07 2.6 1.34 3 .5 3-.5 2.6-1.34 2.07-2.06 1.35-2.6.47-3-.48-3-1.36-2.6-2.06-2.07-2.6-1.36-3-.48z" stroke="#3a414a" stroke-width=".05" fill="#3a414a"/><use xlink:href="#x" transform="matrix(1,0,0,1,1260.1548465736048,394.9104739492041) translate(0 14.222222222222223)"/><path d="M1370.43 1086a6 6 0 0 1 6-6h358a6 6 0 0 1 6 6v176a6 6 0 0 1-6 6h-358a6 6 0 0 1-6-6z" fill="#ffdda6"/><path d="M1370.43 1086a6 6 0 0 1 6-6h358a6 6 0 0 1 6 6v176a6 6 0 0 1-6 6h-358a6 6 0 0 1-6-6zM1370.43 1120h370M1430.43 1120v148M1659.74 1120v148" stroke="#3a414a" fill="none"/><use xlink:href="#T" transform="matrix(1,0,0,1,1380.4330708661416,1080) translate(84.93827160493828 24.444444444444443)"/><use xlink:href="#b" transform="matrix(1,0,0,1,1375.4330708661416,1122.5) translate(10.185185185185187 20.444444444444443)"/><use xlink:href="#U" transform="matrix(1,0,0,1,1435.4330708661416,1122.5) translate(0 20.444444444444443)"/><use xlink:href="#d" transform="matrix(1,0,0,1,1664.7440944881887,1122.5) translate(0 20.444444444444443)"/><use xlink:href="#V" transform="matrix(1,0,0,1,1435.4330708661416,1159.5) translate(0 20.444444444444443)"/><use xlink:href="#f" transform="matrix(1,0,0,1,1664.7440944881887,1159.5) translate(0 20.444444444444443)"/><use xlink:href="#p" transform="matrix(1,0,0,1,1375.4330708661416,1196.5) translate(10.833333333333336 20.444444444444443)"/><use xlink:href="#u" transform="matrix(1,0,0,1,1435.4330708661416,1196.5) translate(0 20.444444444444443)"/><use xlink:href="#q" transform="matrix(1,0,0,1,1664.7440944881887,1196.5) translate(0 20.444444444444443)"/><use xlink:href="#p" transform="matrix(1,0,0,1,1375.4330708661416,1233.5) translate(10.833333333333336 20.444444444444443)"/><use xlink:href="#c" transform="matrix(1,0,0,1,1435.4330708661416,1233.5) translate(0 20.444444444444443)"/><use xlink:href="#q" transform="matrix(1,0,0,1,1664.7440944881887,1233.5) translate(0 20.444444444444443)"/><path d="M1271.17 1206.48l.07.88.2.84.34.8.45.73.56.66.64.55.74.45.8.33.82.2 54.7.07v1l-54.82-.07-1-.25-.96-.4-.87-.52-.77-.66-.67-.78-.52-.87-.4-.94-.23-.98-.08-1-.05-318.85h1zm-5.48-448.5l.98.23.95.4.87.53.77.67.66.77.54.87.4.94.23 1.02.02 102.93h-1l-.02-102.82-.2-.8-.33-.8-.45-.74-.56-.65-.65-.55-.73-.46-.8-.34-.84-.2-.88-.07h-73.3v-1h73.34z" stroke="#3a414a" stroke-width=".05" fill="#3a414a"/><path fill="#fff"/><path d="M1181.86 768.4h-1v-20h1z" stroke="#3a414a" stroke-width=".05" fill="#3a414a"/><path fill="#fff"/><path d="M1191.36 758.9h-20v-1h20z" stroke="#3a414a" stroke-width=".05" fill="#3a414a"/><path fill="#fff"/><path d="M1191.86 768.4h-1v-20h1z" stroke="#3a414a" stroke-width=".05" fill="#3a414a"/><path d="M1369.76 1222.5l-20-10 20-10" fill="#fff" fill-opacity="0"/><path d="M1370 1202.95l-19.12 9.55 19.1 9.55-.44.9-20.9-10.45 20.9-10.45z" stroke="#3a414a" stroke-width=".05" fill="#3a414a"/><path fill="#fff"/><path d="M1369.76 1213h-20v-1h20z" stroke="#3a414a" stroke-width=".05" fill="#3a414a"/><path d="M1349.76 1212.5l-.5 3.16-1.43 2.75-2.16 2.17-2.75 1.42-3.16.5-3.16-.5-2.74-1.43-2.17-2.16-1.43-2.74-.5-3.16.5-3.16 1.42-2.75 2.16-2.17 2.74-1.42 3.16-.5 3.16.5 2.75 1.43 2.16 2.16 1.42 2.74.5 3.16" fill="#fff"/><path d="M1343.08 1202.53l2.9 1.5 2.26 2.27 1.5 2.88.52 3.24-.5.08.5.08-.53 3.24-1.5 2.88-2.26 2.28-2.9 1.5-3.3.53-3.33-.53-2.88-1.5-2.28-2.27-1.5-2.88-.52-3.32.53-3.32 1.48-2.88 2.28-2.28 2.88-1.5 3.32-.53zm-6.32.96l-2.6 1.34-2.06 2.05-1.35 2.6-.48 3 .48 3 1.35 2.6 2.06 2.06 2.6 1.35 3 .5 3-.5 2.6-1.34 2.06-2.05 1.35-2.6.5-3-.5-3-1.35-2.6-2.05-2.06-2.6-1.35-3-.5zM1330.5 1249.18v1l-253.24-.03v-1zM655.45 800.84l1 .23.93.4.87.53.78.66.66.78.53.87.4.95.23 1 .07 437.4.07.9.2.83.33.8.45.73.57.66.65.56.74.46.8.33.8.2 349.55.04v1l-349.66-.04-1.02-.24-.94-.4-.87-.52-.76-.67-.67-.77-.53-.87-.4-.94-.23-1-.07-1-.07-437.32-.2-.82-.33-.8-.45-.73-.56-.66-.66-.56-.73-.44-.8-.33-.84-.2-.9-.07h-23.04v-1h23.1z" stroke="#3a414a" stroke-width=".05" fill="#3a414a"/><path fill="#fff"/><path d="M621.86 811.26h-1v-20h1z" stroke="#3a414a" stroke-width=".05" fill="#3a414a"/><path fill="#fff"/><path d="M631.36 801.76h-20v-1h20z" stroke="#3a414a" stroke-width=".05" fill="#3a414a"/><path fill="#fff"/><path d="M631.86 811.26h-1v-20h1z" stroke="#3a414a" stroke-width=".05" fill="#3a414a"/><path d="M1369.78 1259.68l-20-10 20-10" fill="#fff" fill-opacity="0"/><path d="M1370 1240.12l-19.1 9.56 19.1 9.55-.45.9-20.9-10.45 20.9-10.45z" stroke="#3a414a" stroke-width=".05" fill="#3a414a"/><path fill="#fff"/><path d="M1369.78 1250.18h-20v-1h20z" stroke="#3a414a" stroke-width=".05" fill="#3a414a"/><path d="M1349.78 1249.68l-.5 3.16-1.43 2.74-2.17 2.17-2.74 1.42-3.16.5-3.16-.5-2.75-1.42-2.16-2.17-1.4-2.74-.52-3.16.5-3.16 1.43-2.75 2.17-2.16 2.75-1.4 3.16-.52 3.16.5 2.74 1.43 2.17 2.17 1.42 2.75.5 3.16" fill="#fff"/><path d="M1343.1 1239.7l2.88 1.5 2.28 2.27 1.5 2.9.5 3.23-.48.08.5.08-.53 3.24-1.5 2.88-2.27 2.28-2.88 1.5-3.32.52-3.32-.53-2.9-1.5-2.26-2.27-1.5-2.88-.53-3.32.54-3.32 1.5-2.9 2.27-2.26 2.9-1.5 3.3-.53zm-6.32.97l-2.6 1.34-2.06 2.07-1.35 2.6-.5 3 .5 3 1.35 2.6 2.05 2.07 2.6 1.35 3 .47 3-.48 2.62-1.36 2.04-2.06 1.35-2.6.47-3-.48-3-1.36-2.6-2.05-2.07-2.62-1.33-3-.5z" stroke="#3a414a" stroke-width=".05" fill="#3a414a"/><use xlink:href="#W" transform="matrix(1,0,0,1,1015.090195399491,1239.0094680404022) translate(0 14.222222222222223)"/><path d="M860.43 106a6 6 0 0 1 6-6h358a6 6 0 0 1 6 6v176a6 6 0 0 1-6 6h-358a6 6 0 0 1-6-6z" fill="#ffdda6"/><path d="M860.43 106a6 6 0 0 1 6-6h358a6 6 0 0 1 6 6v176a6 6 0 0 1-6 6h-358a6 6 0 0 1-6-6zM860.43 140h370M920.43 140v148M1149.74 140v148" stroke="#3a414a" fill="none"/><use xlink:href="#X" transform="matrix(1,0,0,1,870.4330708661416,100) translate(89.87654320987654 24.444444444444443)"/><use xlink:href="#b" transform="matrix(1,0,0,1,865.4330708661416,142.5) translate(10.185185185185187 20.444444444444443)"/><use xlink:href="#Y" transform="matrix(1,0,0,1,925.4330708661416,142.5) translate(0 20.444444444444443)"/><use xlink:href="#d" transform="matrix(1,0,0,1,1154.7440944881887,142.5) translate(0 20.444444444444443)"/><use xlink:href="#V" transform="matrix(1,0,0,1,925.4330708661416,179.5) translate(0 20.444444444444443)"/><use xlink:href="#f" transform="matrix(1,0,0,1,1154.7440944881887,179.5) translate(0 20.444444444444443)"/><use xlink:href="#p" transform="matrix(1,0,0,1,865.4330708661416,216.5) translate(10.833333333333336 20.444444444444443)"/><use xlink:href="#c" transform="matrix(1,0,0,1,925.4330708661416,216.5) translate(0 20.444444444444443)"/><use xlink:href="#q" transform="matrix(1,0,0,1,1154.7440944881887,216.5) translate(0 20.444444444444443)"/><use xlink:href="#p" transform="matrix(1,0,0,1,865.4330708661416,253.5) translate(10.833333333333336 20.444444444444443)"/><use xlink:href="#G" transform="matrix(1,0,0,1,925.4330708661416,253.5) translate(0 20.444444444444443)"/><use xlink:href="#q" transform="matrix(1,0,0,1,1154.7440944881887,253.5) translate(0 20.444444444444443)"/><path d="M781 433.22l.2.82.33.8.45.73.57.66.65.56.74.44.8.33.83.2.88.07h43.98v1H786.4l-.98-.08-1-.23-.94-.4-.87-.53-.76-.66-.67-.78-.53-.87-.4-.95-.23-1-.04-101.7h1zm39.5-163.25l-34.95.08-.82.2-.8.32-.73.45-.65.56-.57.66-.45.74-.33.8-.2.83-.07.9.02 34.8h-1l-.02-34.85.08-1 .25-1 .4-.93.52-.87.67-.78.77-.66.88-.52.94-.4 1-.23 35.08-.08z" stroke="#3a414a" stroke-width=".05" fill="#3a414a"/><path fill="#fff"/><path d="M840.93 448.34h-1v-20h1z" stroke="#3a414a" stroke-width=".05" fill="#3a414a"/><path fill="#fff"/><path d="M850.43 438.84h-20v-1h20z" stroke="#3a414a" stroke-width=".05" fill="#3a414a"/><path fill="#fff"/><path d="M830.93 448.34h-1v-20h1z" stroke="#3a414a" stroke-width=".05" fill="#3a414a"/><path d="M859.78 279.47l-20-10 20-10" fill="#fff" fill-opacity="0"/><path d="M860 259.92l-19.1 9.55 19.1 9.55-.45.9-20.9-10.45 20.9-10.45z" stroke="#3a414a" stroke-width=".05" fill="#3a414a"/><path fill="#fff"/><path d="M859.78 269.97h-20v-1h20z" stroke="#3a414a" stroke-width=".05" fill="#3a414a"/><path d="M839.78 269.47l-.5 3.16-1.43 2.75-2.17 2.16-2.74 1.42-3.16.5-3.16-.5-2.75-1.42-2.16-2.16-1.4-2.75-.52-3.16.5-3.16 1.43-2.73 2.17-2.17 2.75-1.42 3.16-.5 3.16.5 2.74 1.42 2.17 2.17 1.42 2.74.5 3.17" fill="#fff"/><path d="M833.1 259.5l2.88 1.5 2.28 2.27 1.5 2.88.5 3.24-.48.07.5.08-.53 3.24-1.5 2.88-2.27 2.27-2.88 1.5-3.32.53-3.32-.54-2.9-1.5-2.26-2.26-1.5-2.9-.53-3.3.54-3.33 1.5-2.88 2.27-2.28 2.9-1.5 3.3-.53zm-6.32.96l-2.6 1.35-2.06 2.06-1.35 2.6-.5 3 .5 3 1.35 2.62 2.05 2.05 2.6 1.35 3 .5 3-.5 2.62-1.35 2.04-2.05 1.35-2.6.47-3-.48-3-1.36-2.62-2.05-2.05-2.62-1.34-3-.48z" stroke="#3a414a" stroke-width=".05" fill="#3a414a"/><use xlink:href="#x" transform="matrix(1,0,0,1,765.1491202488577,310.3076693630938) translate(0 14.222222222222223)"/><path d="M300.02 233.15l-164.47.02-.82.2-.8.32-.73.44-.65.57-.57.66-.45.74-.33.8-.2.83-.07.88.08 557.52.2.82.33.8.45.73.57.65.65.56.74.46.8.33.83.2.88.07h153.98v1H136.4l-.98-.08-1-.24-.94-.4-.87-.52-.76-.67-.67-.77-.53-.87-.4-.95-.23-1.02-.07-557.66.08-1 .25-1 .4-.93.52-.87.67-.77.77-.67.88-.53.94-.4 1.02-.23 164.58-.02zm520.47-.06l-458.3.04v-1l458.3-.05z" stroke="#3a414a" stroke-width=".05" fill="#3a414a"/><path fill="#fff"/><path d="M300.93 811.24h-1v-20h1z" stroke="#3a414a" stroke-width=".05" fill="#3a414a"/><path fill="#fff"/><path d="M310.43 801.74h-20v-1h20z" stroke="#3a414a" stroke-width=".05" fill="#3a414a"/><path fill="#fff"/><path d="M290.93 811.24h-1v-20h1z" stroke="#3a414a" stroke-width=".05" fill="#3a414a"/><path d="M859.76 242.6l-20-10 20-10" fill="#fff" fill-opacity="0"/><path d="M860 223.04l-19.12 9.55 19.1 9.55-.44.9-20.9-10.46 20.9-10.45z" stroke="#3a414a" stroke-width=".05" fill="#3a414a"/><path fill="#fff"/><path d="M859.76 233.1h-20v-1h20z" stroke="#3a414a" stroke-width=".05" fill="#3a414a"/><path d="M839.76 232.6l-.5 3.15-1.43 2.75-2.16 2.16-2.75 1.42-3.16.5-3.16-.5-2.74-1.42-2.17-2.16-1.43-2.75-.5-3.16.5-3.17 1.42-2.74 2.16-2.18 2.74-1.42 3.16-.5 3.16.5 2.75 1.42 2.16 2.17 1.42 2.73.5 3.16" fill="#fff"/><path d="M833.08 222.62l2.9 1.5 2.26 2.27 1.5 2.87.52 3.24-.5.1.5.07-.53 3.24-1.5 2.9-2.26 2.27-2.9 1.5-3.3.53-3.33-.54-2.88-1.5-2.28-2.26-1.5-2.9-.52-3.3.53-3.33 1.48-2.88 2.28-2.3 2.88-1.48 3.32-.53zm-6.32.96l-2.6 1.35-2.06 2.06-1.35 2.6-.48 3 .48 3 1.35 2.6 2.06 2.06 2.6 1.34 3 .5 3-.5 2.6-1.34 2.06-2.06 1.35-2.6.5-3-.5-3-1.35-2.6-2.05-2.07-2.6-1.35-3-.48z" stroke="#3a414a" stroke-width=".05" fill="#3a414a"/><g><use xlink:href="#W" transform="matrix(1,0,0,1,300.01594245163807,221.92637596478343) translate(0 14.222222222222223)"/></g><defs><path fill="#3a414a" d="M84 4C-5 8 30-112 23-190h32v120c0 31 7 50 39 49 72-2 45-101 50-169h31l1 190h-30c-1-10 1-25-2-33-11 22-28 36-60 37" id="Z"/><path fill="#3a414a" d="M135-143c-3-34-86-38-87 0 15 53 115 12 119 90S17 21 10-45l28-5c4 36 97 45 98 0-10-56-113-15-118-90-4-57 82-63 122-42 12 7 21 19 24 35" id="aa"/><path fill="#3a414a" d="M100-194c63 0 86 42 84 106H49c0 40 14 67 53 68 26 1 43-12 49-29l28 8c-11 28-37 45-77 45C44 4 14-33 15-96c1-61 26-98 85-98zm52 81c6-60-76-77-97-28-3 7-6 17-6 28h103" id="ab"/><path fill="#3a414a" d="M114-163C36-179 61-72 57 0H25l-1-190h30c1 12-1 29 2 39 6-27 23-49 58-41v29" id="ac"/><g id="a"><use transform="matrix(0.06172839506172839,0,0,0.06172839506172839,0,0)" xlink:href="#Z"/><use transform="matrix(0.06172839506172839,0,0,0.06172839506172839,12.345679012345679,0)" xlink:href="#aa"/><use transform="matrix(0.06172839506172839,0,0,0.06172839506172839,23.45679012345679,0)" xlink:href="#ab"/><use transform="matrix(0.06172839506172839,0,0,0.06172839506172839,35.80246913580247,0)" xlink:href="#ac"/><use transform="matrix(0.06172839506172839,0,0,0.06172839506172839,43.148148148148145,0)" xlink:href="#aa"/></g><path fill="#3a414a" d="M30-248c87 1 191-15 191 75 0 78-77 80-158 76V0H30v-248zm33 125c57 0 124 11 124-50 0-59-68-47-124-48v98" id="ad"/><path fill="#3a414a" d="M194 0L95-120 63-95V0H30v-248h33v124l119-124h40L117-140 236 0h-42" id="ae"/><g id="b"><use transform="matrix(0.06172839506172839,0,0,0.06172839506172839,0,0)" xlink:href="#ad"/><use transform="matrix(0.06172839506172839,0,0,0.06172839506172839,14.814814814814813,0)" xlink:href="#ae"/></g><path fill="#3a414a" d="M24-231v-30h32v30H24zM24 0v-190h32V0H24" id="af"/><path fill="#3a414a" d="M85-194c31 0 48 13 60 33l-1-100h32l1 261h-30c-2-10 0-23-3-31C134-8 116 4 85 4 32 4 16-35 15-94c0-66 23-100 70-100zm9 24c-40 0-46 34-46 75 0 40 6 74 45 74 42 0 51-32 51-76 0-42-9-74-50-73" id="ag"/><path fill="#3a414a" d="M-5 72V49h209v23H-5" id="ah"/><g id="c"><use transform="matrix(0.06172839506172839,0,0,0.06172839506172839,0,0)" xlink:href="#af"/><use transform="matrix(0.06172839506172839,0,0,0.06172839506172839,4.876543209876543,0)" xlink:href="#ag"/><use transform="matrix(0.06172839506172839,0,0,0.06172839506172839,17.22222222222222,0)" xlink:href="#ah"/><use transform="matrix(0.06172839506172839,0,0,0.06172839506172839,29.5679012345679,0)" xlink:href="#Z"/><use transform="matrix(0.06172839506172839,0,0,0.06172839506172839,41.913580246913575,0)" xlink:href="#aa"/><use transform="matrix(0.06172839506172839,0,0,0.06172839506172839,53.02469135802468,0)" xlink:href="#ab"/><use transform="matrix(0.06172839506172839,0,0,0.06172839506172839,65.37037037037037,0)" xlink:href="#ac"/></g><path fill="#3a414a" d="M141-36C126-15 110 5 73 4 37 3 15-17 15-53c-1-64 63-63 125-63 3-35-9-54-41-54-24 1-41 7-42 31l-33-3c5-37 33-52 76-52 45 0 72 20 72 64v82c-1 20 7 32 28 27v20c-31 9-61-2-59-35zM48-53c0 20 12 33 32 33 41-3 63-29 60-74-43 2-92-5-92 41" id="ai"/><path fill="#3a414a" d="M24 0v-261h32V0H24" id="aj"/><g id="d"><use transform="matrix(0.06172839506172839,0,0,0.06172839506172839,0,0)" xlink:href="#aa"/><use transform="matrix(0.06172839506172839,0,0,0.06172839506172839,11.11111111111111,0)" xlink:href="#ab"/><use transform="matrix(0.06172839506172839,0,0,0.06172839506172839,23.45679012345679,0)" xlink:href="#ac"/><use transform="matrix(0.06172839506172839,0,0,0.06172839506172839,30.80246913580247,0)" xlink:href="#af"/><use transform="matrix(0.06172839506172839,0,0,0.06172839506172839,35.67901234567901,0)" xlink:href="#ai"/><use transform="matrix(0.06172839506172839,0,0,0.06172839506172839,48.02469135802469,0)" xlink:href="#aj"/></g><path fill="#3a414a" d="M210-169c-67 3-38 105-44 169h-31v-121c0-29-5-50-35-48C34-165 62-65 56 0H25l-1-190h30c1 10-1 24 2 32 10-44 99-50 107 0 11-21 27-35 58-36 85-2 47 119 55 194h-31v-121c0-29-5-49-35-48" id="ak"/><g id="e"><use transform="matrix(0.06172839506172839,0,0,0.06172839506172839,0,0)" xlink:href="#ab"/><use transform="matrix(0.06172839506172839,0,0,0.06172839506172839,12.345679012345679,0)" xlink:href="#ak"/><use transform="matrix(0.06172839506172839,0,0,0.06172839506172839,30.80246913580247,0)" xlink:href="#ai"/><use transform="matrix(0.06172839506172839,0,0,0.06172839506172839,43.148148148148145,0)" xlink:href="#af"/><use transform="matrix(0.06172839506172839,0,0,0.06172839506172839,48.02469135802469,0)" xlink:href="#aj"/></g><path fill="#3a414a" d="M59-47c-2 24 18 29 38 22v24C64 9 27 4 27-40v-127H5v-23h24l9-43h21v43h35v23H59v120" id="al"/><path fill="#3a414a" d="M117-194c89-4 53 116 60 194h-32v-121c0-31-8-49-39-48C34-167 62-67 57 0H25l-1-190h30c1 10-1 24 2 32 11-22 29-35 61-36" id="am"/><path fill="#3a414a" d="M177-190C167-65 218 103 67 71c-23-6-38-20-44-43l32-5c15 47 100 32 89-28v-30C133-14 115 1 83 1 29 1 15-40 15-95c0-56 16-97 71-98 29-1 48 16 59 35 1-10 0-23 2-32h30zM94-22c36 0 50-32 50-73 0-42-14-75-50-75-39 0-46 34-46 75s6 73 46 73" id="an"/><g id="f"><use transform="matrix(0.06172839506172839,0,0,0.06172839506172839,0,0)" xlink:href="#aa"/><use transform="matrix(0.06172839506172839,0,0,0.06172839506172839,11.11111111111111,0)" xlink:href="#al"/><use transform="matrix(0.06172839506172839,0,0,0.06172839506172839,17.28395061728395,0)" xlink:href="#ac"/><use transform="matrix(0.06172839506172839,0,0,0.06172839506172839,24.629629629629626,0)" xlink:href="#af"/><use transform="matrix(0.06172839506172839,0,0,0.06172839506172839,29.50617283950617,0)" xlink:href="#am"/><use transform="matrix(0.06172839506172839,0,0,0.06172839506172839,41.85185185185185,0)" xlink:href="#an"/></g><g id="g"><use transform="matrix(0.06172839506172839,0,0,0.06172839506172839,0,0)" xlink:href="#Z"/><use transform="matrix(0.06172839506172839,0,0,0.06172839506172839,12.345679012345679,0)" xlink:href="#aa"/><use transform="matrix(0.06172839506172839,0,0,0.06172839506172839,23.45679012345679,0)" xlink:href="#ab"/><use transform="matrix(0.06172839506172839,0,0,0.06172839506172839,35.80246913580247,0)" xlink:href="#ac"/><use transform="matrix(0.06172839506172839,0,0,0.06172839506172839,43.148148148148145,0)" xlink:href="#ah"/><use transform="matrix(0.06172839506172839,0,0,0.06172839506172839,55.49382716049382,0)" xlink:href="#am"/><use transform="matrix(0.06172839506172839,0,0,0.06172839506172839,67.8395061728395,0)" xlink:href="#ai"/><use transform="matrix(0.06172839506172839,0,0,0.06172839506172839,80.18518518518519,0)" xlink:href="#ak"/><use transform="matrix(0.06172839506172839,0,0,0.06172839506172839,98.64197530864197,0)" xlink:href="#ab"/></g><path fill="#3a414a" d="M115-194c55 1 70 41 70 98S169 2 115 4C84 4 66-9 55-30l1 105H24l-1-265h31l2 30c10-21 28-34 59-34zm-8 174c40 0 45-34 45-75s-6-73-45-74c-42 0-51 32-51 76 0 43 10 73 51 73" id="ao"/><path fill="#3a414a" d="M106-169C34-169 62-67 57 0H25v-261h32l-1 103c12-21 28-36 61-36 89 0 53 116 60 194h-32v-121c2-32-8-49-39-48" id="ap"/><path fill="#3a414a" d="M100-194c62-1 85 37 85 99 1 63-27 99-86 99S16-35 15-95c0-66 28-99 85-99zM99-20c44 1 53-31 53-75 0-43-8-75-51-75s-53 32-53 75 10 74 51 75" id="aq"/><g id="h"><use transform="matrix(0.06172839506172839,0,0,0.06172839506172839,0,0)" xlink:href="#ao"/><use transform="matrix(0.06172839506172839,0,0,0.06172839506172839,12.345679012345679,0)" xlink:href="#ap"/><use transform="matrix(0.06172839506172839,0,0,0.06172839506172839,24.691358024691358,0)" xlink:href="#aq"/><use transform="matrix(0.06172839506172839,0,0,0.06172839506172839,37.03703703703704,0)" xlink:href="#al"/><use transform="matrix(0.06172839506172839,0,0,0.06172839506172839,43.20987654320988,0)" xlink:href="#aq"/></g><g id="i"><use transform="matrix(0.06172839506172839,0,0,0.06172839506172839,0,0)" xlink:href="#aa"/><use transform="matrix(0.06172839506172839,0,0,0.06172839506172839,11.11111111111111,0)" xlink:href="#al"/><use transform="matrix(0.06172839506172839,0,0,0.06172839506172839,17.28395061728395,0)" xlink:href="#Z"/><use transform="matrix(0.06172839506172839,0,0,0.06172839506172839,29.629629629629626,0)" xlink:href="#ag"/><use transform="matrix(0.06172839506172839,0,0,0.06172839506172839,41.9753086419753,0)" xlink:href="#ab"/><use transform="matrix(0.06172839506172839,0,0,0.06172839506172839,54.32098765432098,0)" xlink:href="#am"/><use transform="matrix(0.06172839506172839,0,0,0.06172839506172839,66.66666666666666,0)" xlink:href="#al"/><use transform="matrix(0.06172839506172839,0,0,0.06172839506172839,72.83950617283949,0)" xlink:href="#ah"/><use transform="matrix(0.06172839506172839,0,0,0.06172839506172839,85.18518518518518,0)" xlink:href="#af"/><use transform="matrix(0.06172839506172839,0,0,0.06172839506172839,90.06172839506172,0)" xlink:href="#ag"/></g><path fill="#3a414a" d="M206 0h-36l-40-164L89 0H53L-1-190h32L70-26l43-164h34l41 164 42-164h31" id="ar"/><g id="j"><use transform="matrix(0.06172839506172839,0,0,0.06172839506172839,0,0)" xlink:href="#ao"/><use transform="matrix(0.06172839506172839,0,0,0.06172839506172839,12.345679012345679,0)" xlink:href="#ai"/><use transform="matrix(0.06172839506172839,0,0,0.06172839506172839,24.691358024691358,0)" xlink:href="#aa"/><use transform="matrix(0.06172839506172839,0,0,0.06172839506172839,35.80246913580247,0)" xlink:href="#aa"/><use transform="matrix(0.06172839506172839,0,0,0.06172839506172839,46.91358024691358,0)" xlink:href="#ar"/><use transform="matrix(0.06172839506172839,0,0,0.06172839506172839,62.901234567901234,0)" xlink:href="#aq"/><use transform="matrix(0.06172839506172839,0,0,0.06172839506172839,75.24691358024691,0)" xlink:href="#ac"/><use transform="matrix(0.06172839506172839,0,0,0.06172839506172839,82.5925925925926,0)" xlink:href="#ag"/></g><path fill="#3a414a" d="M96-169c-40 0-48 33-48 73s9 75 48 75c24 0 41-14 43-38l32 2c-6 37-31 61-74 61-59 0-76-41-82-99-10-93 101-131 147-64 4 7 5 14 7 22l-32 3c-4-21-16-35-41-35" id="as"/><path fill="#3a414a" d="M179-190L93 31C79 59 56 82 12 73V49c39 6 53-20 64-50L1-190h34L92-34l54-156h33" id="at"/><g id="k"><use transform="matrix(0.06172839506172839,0,0,0.06172839506172839,0,0)" xlink:href="#ab"/><use transform="matrix(0.06172839506172839,0,0,0.06172839506172839,12.345679012345679,0)" xlink:href="#am"/><use transform="matrix(0.06172839506172839,0,0,0.06172839506172839,24.691358024691358,0)" xlink:href="#as"/><use transform="matrix(0.06172839506172839,0,0,0.06172839506172839,35.80246913580247,0)" xlink:href="#ac"/><use transform="matrix(0.06172839506172839,0,0,0.06172839506172839,43.148148148148145,0)" xlink:href="#at"/><use transform="matrix(0.06172839506172839,0,0,0.06172839506172839,54.25925925925925,0)" xlink:href="#ao"/><use transform="matrix(0.06172839506172839,0,0,0.06172839506172839,66.60493827160494,0)" xlink:href="#al"/></g><g id="l"><use transform="matrix(0.06172839506172839,0,0,0.06172839506172839,0,0)" xlink:href="#as"/><use transform="matrix(0.06172839506172839,0,0,0.06172839506172839,11.11111111111111,0)" xlink:href="#aq"/><use transform="matrix(0.06172839506172839,0,0,0.06172839506172839,23.45679012345679,0)" xlink:href="#Z"/><use transform="matrix(0.06172839506172839,0,0,0.06172839506172839,35.80246913580247,0)" xlink:href="#ac"/><use transform="matrix(0.06172839506172839,0,0,0.06172839506172839,43.148148148148145,0)" xlink:href="#aa"/><use transform="matrix(0.06172839506172839,0,0,0.06172839506172839,54.25925925925925,0)" xlink:href="#ab"/><use transform="matrix(0.06172839506172839,0,0,0.06172839506172839,66.60493827160494,0)" xlink:href="#aa"/></g><g id="m"><use transform="matrix(0.06172839506172839,0,0,0.06172839506172839,0,0)" xlink:href="#af"/><use transform="matrix(0.06172839506172839,0,0,0.06172839506172839,4.876543209876543,0)" xlink:href="#ag"/><use transform="matrix(0.06172839506172839,0,0,0.06172839506172839,17.22222222222222,0)" xlink:href="#ah"/><use transform="matrix(0.06172839506172839,0,0,0.06172839506172839,29.5679012345679,0)" xlink:href="#as"/><use transform="matrix(0.06172839506172839,0,0,0.06172839506172839,40.67901234567901,0)" xlink:href="#ac"/><use transform="matrix(0.06172839506172839,0,0,0.06172839506172839,48.02469135802469,0)" xlink:href="#aq"/><use transform="matrix(0.06172839506172839,0,0,0.06172839506172839,60.37037037037037,0)" xlink:href="#Z"/><use transform="matrix(0.06172839506172839,0,0,0.06172839506172839,72.71604938271605,0)" xlink:href="#aa"/><use transform="matrix(0.06172839506172839,0,0,0.06172839506172839,83.82716049382717,0)" xlink:href="#ab"/></g><g id="n"><use transform="matrix(0.06172839506172839,0,0,0.06172839506172839,0,0)" xlink:href="#am"/><use transform="matrix(0.06172839506172839,0,0,0.06172839506172839,12.345679012345679,0)" xlink:href="#ai"/><use transform="matrix(0.06172839506172839,0,0,0.06172839506172839,24.691358024691358,0)" xlink:href="#ak"/><use transform="matrix(0.06172839506172839,0,0,0.06172839506172839,43.148148148148145,0)" xlink:href="#ab"/></g><g id="o"><use transform="matrix(0.06172839506172839,0,0,0.06172839506172839,0,0)" xlink:href="#ag"/><use transform="matrix(0.06172839506172839,0,0,0.06172839506172839,12.345679012345679,0)" xlink:href="#ab"/><use transform="matrix(0.06172839506172839,0,0,0.06172839506172839,24.691358024691358,0)" xlink:href="#aa"/><use transform="matrix(0.06172839506172839,0,0,0.06172839506172839,35.80246913580247,0)" xlink:href="#as"/><use transform="matrix(0.06172839506172839,0,0,0.06172839506172839,46.91358024691358,0)" xlink:href="#ac"/><use transform="matrix(0.06172839506172839,0,0,0.06172839506172839,54.25925925925926,0)" xlink:href="#af"/><use transform="matrix(0.06172839506172839,0,0,0.06172839506172839,59.135802469135804,0)" xlink:href="#ao"/><use transform="matrix(0.06172839506172839,0,0,0.06172839506172839,71.48148148148148,0)" xlink:href="#al"/><use transform="matrix(0.06172839506172839,0,0,0.06172839506172839,77.65432098765432,0)" xlink:href="#af"/><use transform="matrix(0.06172839506172839,0,0,0.06172839506172839,82.53086419753086,0)" xlink:href="#aq"/><use transform="matrix(0.06172839506172839,0,0,0.06172839506172839,94.87654320987654,0)" xlink:href="#am"/></g><path fill="#3a414a" d="M63-220v92h138v28H63V0H30v-248h175v28H63" id="au"/><g id="p"><use transform="matrix(0.06172839506172839,0,0,0.06172839506172839,0,0)" xlink:href="#au"/><use transform="matrix(0.06172839506172839,0,0,0.06172839506172839,13.518518518518517,0)" xlink:href="#ae"/></g><g id="q"><use transform="matrix(0.06172839506172839,0,0,0.06172839506172839,0,0)" xlink:href="#af"/><use transform="matrix(0.06172839506172839,0,0,0.06172839506172839,4.876543209876543,0)" xlink:href="#am"/><use transform="matrix(0.06172839506172839,0,0,0.06172839506172839,17.22222222222222,0)" xlink:href="#al"/></g><path fill="#333" d="M190-63c-7 42-38 67-86 67-59 0-84-38-90-98-12-110 154-137 174-36l-49 2c-2-19-15-32-35-32-30 0-35 28-38 64-6 74 65 87 74 30" id="av"/><path fill="#333" d="M135-150c-39-12-60 13-60 57V0H25l-1-190h47c2 13-1 29 3 40 6-28 27-53 61-41v41" id="aw"/><path fill="#333" d="M185-48c-13 30-37 53-82 52C43 2 14-33 14-96s30-98 90-98c62 0 83 45 84 108H66c0 31 8 55 39 56 18 0 30-7 34-22zm-45-69c5-46-57-63-70-21-2 6-4 13-4 21h74" id="ax"/><path fill="#333" d="M133-34C117-15 103 5 69 4 32 3 11-16 11-54c-1-60 55-63 116-61 1-26-3-47-28-47-18 1-26 9-28 27l-52-2c7-38 36-58 82-57s74 22 75 68l1 82c-1 14 12 18 25 15v27c-30 8-71 5-69-32zm-48 3c29 0 43-24 42-57-32 0-66-3-65 30 0 17 8 27 23 27" id="ay"/><path fill="#333" d="M115-3C79 11 28 4 28-45v-112H4v-33h27l15-45h31v45h36v33H77v99c-1 23 16 31 38 25v30" id="az"/><g id="r"><use transform="matrix(0.04938271604938272,0,0,0.04938271604938272,0,0)" xlink:href="#av"/><use transform="matrix(0.04938271604938272,0,0,0.04938271604938272,9.876543209876544,0)" xlink:href="#aw"/><use transform="matrix(0.04938271604938272,0,0,0.04938271604938272,16.790123456790127,0)" xlink:href="#ax"/><use transform="matrix(0.04938271604938272,0,0,0.04938271604938272,26.666666666666668,0)" xlink:href="#ay"/><use transform="matrix(0.04938271604938272,0,0,0.04938271604938272,36.543209876543216,0)" xlink:href="#az"/><use transform="matrix(0.04938271604938272,0,0,0.04938271604938272,42.41975308641976,0)" xlink:href="#ax"/></g><g id="s"><use transform="matrix(0.06172839506172839,0,0,0.06172839506172839,0,0)" xlink:href="#Z"/><use transform="matrix(0.06172839506172839,0,0,0.06172839506172839,12.345679012345679,0)" xlink:href="#aa"/><use transform="matrix(0.06172839506172839,0,0,0.06172839506172839,23.45679012345679,0)" xlink:href="#ab"/><use transform="matrix(0.06172839506172839,0,0,0.06172839506172839,35.80246913580247,0)" xlink:href="#ac"/><use transform="matrix(0.06172839506172839,0,0,0.06172839506172839,43.148148148148145,0)" xlink:href="#ah"/><use transform="matrix(0.06172839506172839,0,0,0.06172839506172839,55.49382716049382,0)" xlink:href="#as"/><use transform="matrix(0.06172839506172839,0,0,0.06172839506172839,66.60493827160494,0)" xlink:href="#aq"/><use transform="matrix(0.06172839506172839,0,0,0.06172839506172839,78.95061728395062,0)" xlink:href="#Z"/><use transform="matrix(0.06172839506172839,0,0,0.06172839506172839,91.2962962962963,0)" xlink:href="#ac"/><use transform="matrix(0.06172839506172839,0,0,0.06172839506172839,98.64197530864199,0)" xlink:href="#aa"/><use transform="matrix(0.06172839506172839,0,0,0.06172839506172839,109.7530864197531,0)" xlink:href="#ab"/><use transform="matrix(0.06172839506172839,0,0,0.06172839506172839,122.09876543209879,0)" xlink:href="#aa"/></g><g id="t"><use transform="matrix(0.06172839506172839,0,0,0.06172839506172839,0,0)" xlink:href="#af"/><use transform="matrix(0.06172839506172839,0,0,0.06172839506172839,4.876543209876543,0)" xlink:href="#ag"/><use transform="matrix(0.06172839506172839,0,0,0.06172839506172839,17.22222222222222,0)" xlink:href="#ah"/><use transform="matrix(0.06172839506172839,0,0,0.06172839506172839,29.5679012345679,0)" xlink:href="#Z"/><use transform="matrix(0.06172839506172839,0,0,0.06172839506172839,41.913580246913575,0)" xlink:href="#aa"/><use transform="matrix(0.06172839506172839,0,0,0.06172839506172839,53.02469135802468,0)" xlink:href="#ab"/><use transform="matrix(0.06172839506172839,0,0,0.06172839506172839,65.37037037037037,0)" xlink:href="#ac"/><use transform="matrix(0.06172839506172839,0,0,0.06172839506172839,72.71604938271605,0)" xlink:href="#ah"/><use transform="matrix(0.06172839506172839,0,0,0.06172839506172839,85.06172839506173,0)" xlink:href="#as"/><use transform="matrix(0.06172839506172839,0,0,0.06172839506172839,96.17283950617285,0)" xlink:href="#aq"/><use transform="matrix(0.06172839506172839,0,0,0.06172839506172839,108.51851851851853,0)" xlink:href="#Z"/><use transform="matrix(0.06172839506172839,0,0,0.06172839506172839,120.86419753086422,0)" xlink:href="#ac"/><use transform="matrix(0.06172839506172839,0,0,0.06172839506172839,128.2098765432099,0)" xlink:href="#aa"/><use transform="matrix(0.06172839506172839,0,0,0.06172839506172839,139.32098765432102,0)" xlink:href="#ab"/><use transform="matrix(0.06172839506172839,0,0,0.06172839506172839,151.66666666666669,0)" xlink:href="#aa"/></g><g id="u"><use transform="matrix(0.06172839506172839,0,0,0.06172839506172839,0,0)" xlink:href="#af"/><use transform="matrix(0.06172839506172839,0,0,0.06172839506172839,4.876543209876543,0)" xlink:href="#ag"/><use transform="matrix(0.06172839506172839,0,0,0.06172839506172839,17.22222222222222,0)" xlink:href="#ah"/><use transform="matrix(0.06172839506172839,0,0,0.06172839506172839,29.5679012345679,0)" xlink:href="#as"/><use transform="matrix(0.06172839506172839,0,0,0.06172839506172839,40.67901234567901,0)" xlink:href="#aq"/><use transform="matrix(0.06172839506172839,0,0,0.06172839506172839,53.02469135802469,0)" xlink:href="#Z"/><use transform="matrix(0.06172839506172839,0,0,0.06172839506172839,65.37037037037037,0)" xlink:href="#ac"/><use transform="matrix(0.06172839506172839,0,0,0.06172839506172839,72.71604938271605,0)" xlink:href="#aa"/><use transform="matrix(0.06172839506172839,0,0,0.06172839506172839,83.82716049382717,0)" xlink:href="#ab"/></g><path fill="#333" d="M135-194c52 0 70 43 70 98 0 56-19 99-73 100-30 1-46-15-58-35L72 0H24l1-261h50v104c11-23 29-37 60-37zM114-30c31 0 40-27 40-66 0-37-7-63-39-63s-41 28-41 65c0 36 8 64 40 64" id="aA"/><path fill="#333" d="M25 0v-261h50V0H25" id="aB"/><path fill="#333" d="M110-194c64 0 96 36 96 99 0 64-35 99-97 99-61 0-95-36-95-99 0-62 34-99 96-99zm-1 164c35 0 45-28 45-65 0-40-10-65-43-65-34 0-45 26-45 65 0 36 10 65 43 65" id="aC"/><path fill="#333" d="M135-194c87-1 58 113 63 194h-50c-7-57 23-157-34-157-59 0-34 97-39 157H25l-1-190h47c2 12-1 28 3 38 12-26 28-41 61-42" id="aD"/><path fill="#333" d="M195-6C206 82 75 100 31 46c-4-6-6-13-8-21l49-6c3 16 16 24 34 25 40 0 42-37 40-79-11 22-30 35-61 35-53 0-70-43-70-97 0-56 18-96 73-97 30 0 46 14 59 34l2-30h47zm-90-29c32 0 41-27 41-63 0-35-9-62-40-62-32 0-39 29-40 63 0 36 9 62 39 62" id="aE"/><path fill="#333" d="M137-138c1-29-70-34-71-4 15 46 118 7 119 86 1 83-164 76-172 9l43-7c4 19 20 25 44 25 33 8 57-30 24-41C81-84 22-81 20-136c-2-80 154-74 161-7" id="aF"/><g id="v"><use transform="matrix(0.04938271604938272,0,0,0.04938271604938272,0,0)" xlink:href="#aA"/><use transform="matrix(0.04938271604938272,0,0,0.04938271604938272,10.814814814814815,0)" xlink:href="#ax"/><use transform="matrix(0.04938271604938272,0,0,0.04938271604938272,20.69135802469136,0)" xlink:href="#aB"/><use transform="matrix(0.04938271604938272,0,0,0.04938271604938272,25.629629629629633,0)" xlink:href="#aC"/><use transform="matrix(0.04938271604938272,0,0,0.04938271604938272,36.44444444444445,0)" xlink:href="#aD"/><use transform="matrix(0.04938271604938272,0,0,0.04938271604938272,47.25925925925927,0)" xlink:href="#aE"/><use transform="matrix(0.04938271604938272,0,0,0.04938271604938272,58.074074074074076,0)" xlink:href="#aF"/></g><g id="w"><use transform="matrix(0.04938271604938272,0,0,0.04938271604938272,0,0)" xlink:href="#az"/><use transform="matrix(0.04938271604938272,0,0,0.04938271604938272,5.8765432098765435,0)" xlink:href="#aC"/></g><path fill="#333" d="M114-157C55-157 80-60 75 0H25v-261h50l-1 109c12-26 28-41 61-42 86-1 58 113 63 194h-50c-7-57 23-157-34-157" id="aG"/><g id="x"><use transform="matrix(0.04938271604938272,0,0,0.04938271604938272,0,0)" xlink:href="#aG"/><use transform="matrix(0.04938271604938272,0,0,0.04938271604938272,10.814814814814815,0)" xlink:href="#ay"/><use transform="matrix(0.04938271604938272,0,0,0.04938271604938272,20.69135802469136,0)" xlink:href="#aF"/></g><path fill="#3a414a" d="M141 0L90-78 38 0H4l68-98-65-92h35l48 74 47-74h35l-64 92 68 98h-35" id="aH"/><g id="y"><use transform="matrix(0.06172839506172839,0,0,0.06172839506172839,0,0)" xlink:href="#ab"/><use transform="matrix(0.06172839506172839,0,0,0.06172839506172839,12.345679012345679,0)" xlink:href="#aH"/><use transform="matrix(0.06172839506172839,0,0,0.06172839506172839,23.45679012345679,0)" xlink:href="#as"/><use transform="matrix(0.06172839506172839,0,0,0.06172839506172839,34.5679012345679,0)" xlink:href="#Z"/><use transform="matrix(0.06172839506172839,0,0,0.06172839506172839,46.913580246913575,0)" xlink:href="#ac"/><use transform="matrix(0.06172839506172839,0,0,0.06172839506172839,54.25925925925925,0)" xlink:href="#aa"/><use transform="matrix(0.06172839506172839,0,0,0.06172839506172839,65.37037037037037,0)" xlink:href="#af"/><use transform="matrix(0.06172839506172839,0,0,0.06172839506172839,70.24691358024691,0)" xlink:href="#aq"/><use transform="matrix(0.06172839506172839,0,0,0.06172839506172839,82.5925925925926,0)" xlink:href="#am"/><use transform="matrix(0.06172839506172839,0,0,0.06172839506172839,94.93827160493828,0)" xlink:href="#aa"/></g><g id="z"><use transform="matrix(0.06172839506172839,0,0,0.06172839506172839,0,0)" xlink:href="#af"/><use transform="matrix(0.06172839506172839,0,0,0.06172839506172839,4.876543209876543,0)" xlink:href="#ag"/><use transform="matrix(0.06172839506172839,0,0,0.06172839506172839,17.22222222222222,0)" xlink:href="#ah"/><use transform="matrix(0.06172839506172839,0,0,0.06172839506172839,29.5679012345679,0)" xlink:href="#ab"/><use transform="matrix(0.06172839506172839,0,0,0.06172839506172839,41.913580246913575,0)" xlink:href="#aH"/><use transform="matrix(0.06172839506172839,0,0,0.06172839506172839,53.02469135802468,0)" xlink:href="#as"/><use transform="matrix(0.06172839506172839,0,0,0.06172839506172839,64.1358024691358,0)" xlink:href="#Z"/><use transform="matrix(0.06172839506172839,0,0,0.06172839506172839,76.48148148148148,0)" xlink:href="#ac"/><use transform="matrix(0.06172839506172839,0,0,0.06172839506172839,83.82716049382717,0)" xlink:href="#aa"/><use transform="matrix(0.06172839506172839,0,0,0.06172839506172839,94.93827160493828,0)" xlink:href="#af"/><use transform="matrix(0.06172839506172839,0,0,0.06172839506172839,99.81481481481482,0)" xlink:href="#aq"/><use transform="matrix(0.06172839506172839,0,0,0.06172839506172839,112.16049382716051,0)" xlink:href="#am"/></g><g id="A"><use transform="matrix(0.06172839506172839,0,0,0.06172839506172839,0,0)" xlink:href="#aj"/><use transform="matrix(0.06172839506172839,0,0,0.06172839506172839,4.876543209876543,0)" xlink:href="#aq"/><use transform="matrix(0.06172839506172839,0,0,0.06172839506172839,17.22222222222222,0)" xlink:href="#as"/><use transform="matrix(0.06172839506172839,0,0,0.06172839506172839,28.333333333333332,0)" xlink:href="#ai"/><use transform="matrix(0.06172839506172839,0,0,0.06172839506172839,40.67901234567901,0)" xlink:href="#al"/><use transform="matrix(0.06172839506172839,0,0,0.06172839506172839,46.851851851851855,0)" xlink:href="#af"/><use transform="matrix(0.06172839506172839,0,0,0.06172839506172839,51.7283950617284,0)" xlink:href="#aq"/><use transform="matrix(0.06172839506172839,0,0,0.06172839506172839,64.07407407407408,0)" xlink:href="#am"/></g><g id="B"><use transform="matrix(0.06172839506172839,0,0,0.06172839506172839,0,0)" xlink:href="#ag"/><use transform="matrix(0.06172839506172839,0,0,0.06172839506172839,12.345679012345679,0)" xlink:href="#ai"/><use transform="matrix(0.06172839506172839,0,0,0.06172839506172839,24.691358024691358,0)" xlink:href="#al"/><use transform="matrix(0.06172839506172839,0,0,0.06172839506172839,30.864197530864196,0)" xlink:href="#ab"/></g><g id="C"><use transform="matrix(0.06172839506172839,0,0,0.06172839506172839,0,0)" xlink:href="#aa"/><use transform="matrix(0.06172839506172839,0,0,0.06172839506172839,11.11111111111111,0)" xlink:href="#al"/><use transform="matrix(0.06172839506172839,0,0,0.06172839506172839,17.28395061728395,0)" xlink:href="#ai"/><use transform="matrix(0.06172839506172839,0,0,0.06172839506172839,29.629629629629626,0)" xlink:href="#ac"/><use transform="matrix(0.06172839506172839,0,0,0.06172839506172839,36.9753086419753,0)" xlink:href="#al"/><use transform="matrix(0.06172839506172839,0,0,0.06172839506172839,43.148148148148145,0)" xlink:href="#ah"/><use transform="matrix(0.06172839506172839,0,0,0.06172839506172839,55.49382716049382,0)" xlink:href="#al"/><use transform="matrix(0.06172839506172839,0,0,0.06172839506172839,61.666666666666664,0)" xlink:href="#af"/><use transform="matrix(0.06172839506172839,0,0,0.06172839506172839,66.5432098765432,0)" xlink:href="#ak"/><use transform="matrix(0.06172839506172839,0,0,0.06172839506172839,84.99999999999999,0)" xlink:href="#ab"/></g><g id="D"><use transform="matrix(0.06172839506172839,0,0,0.06172839506172839,0,0)" xlink:href="#al"/><use transform="matrix(0.06172839506172839,0,0,0.06172839506172839,6.172839506172839,0)" xlink:href="#af"/><use transform="matrix(0.06172839506172839,0,0,0.06172839506172839,11.049382716049383,0)" xlink:href="#ak"/><use transform="matrix(0.06172839506172839,0,0,0.06172839506172839,29.50617283950617,0)" xlink:href="#ab"/></g><g id="E"><use transform="matrix(0.06172839506172839,0,0,0.06172839506172839,0,0)" xlink:href="#af"/><use transform="matrix(0.06172839506172839,0,0,0.06172839506172839,4.876543209876543,0)" xlink:href="#ag"/><use transform="matrix(0.06172839506172839,0,0,0.06172839506172839,17.22222222222222,0)" xlink:href="#ah"/><use transform="matrix(0.06172839506172839,0,0,0.06172839506172839,29.5679012345679,0)" xlink:href="#as"/><use transform="matrix(0.06172839506172839,0,0,0.06172839506172839,40.67901234567901,0)" xlink:href="#aq"/><use transform="matrix(0.06172839506172839,0,0,0.06172839506172839,53.02469135802469,0)" xlink:href="#Z"/><use transform="matrix(0.06172839506172839,0,0,0.06172839506172839,65.37037037037037,0)" xlink:href="#ac"/><use transform="matrix(0.06172839506172839,0,0,0.06172839506172839,72.71604938271605,0)" xlink:href="#aa"/><use transform="matrix(0.06172839506172839,0,0,0.06172839506172839,83.82716049382717,0)" xlink:href="#ab"/><use transform="matrix(0.06172839506172839,0,0,0.06172839506172839,96.17283950617285,0)" xlink:href="#aa"/></g><g id="F"><use transform="matrix(0.06172839506172839,0,0,0.06172839506172839,0,0)" xlink:href="#an"/><use transform="matrix(0.06172839506172839,0,0,0.06172839506172839,12.345679012345679,0)" xlink:href="#ac"/><use transform="matrix(0.06172839506172839,0,0,0.06172839506172839,19.691358024691358,0)" xlink:href="#aq"/><use transform="matrix(0.06172839506172839,0,0,0.06172839506172839,32.03703703703704,0)" xlink:href="#Z"/><use transform="matrix(0.06172839506172839,0,0,0.06172839506172839,44.382716049382715,0)" xlink:href="#ao"/><use transform="matrix(0.06172839506172839,0,0,0.06172839506172839,56.72839506172839,0)" xlink:href="#aa"/></g><g id="G"><use transform="matrix(0.06172839506172839,0,0,0.06172839506172839,0,0)" xlink:href="#af"/><use transform="matrix(0.06172839506172839,0,0,0.06172839506172839,4.876543209876543,0)" xlink:href="#ag"/><use transform="matrix(0.06172839506172839,0,0,0.06172839506172839,17.22222222222222,0)" xlink:href="#ah"/><use transform="matrix(0.06172839506172839,0,0,0.06172839506172839,29.5679012345679,0)" xlink:href="#an"/><use transform="matrix(0.06172839506172839,0,0,0.06172839506172839,41.913580246913575,0)" xlink:href="#ac"/><use transform="matrix(0.06172839506172839,0,0,0.06172839506172839,49.25925925925925,0)" xlink:href="#aq"/><use transform="matrix(0.06172839506172839,0,0,0.06172839506172839,61.60493827160493,0)" xlink:href="#Z"/><use transform="matrix(0.06172839506172839,0,0,0.06172839506172839,73.9506172839506,0)" xlink:href="#ao"/></g><g id="H"><use transform="matrix(0.06172839506172839,0,0,0.06172839506172839,0,0)" xlink:href="#al"/><use transform="matrix(0.06172839506172839,0,0,0.06172839506172839,6.172839506172839,0)" xlink:href="#aq"/><use transform="matrix(0.06172839506172839,0,0,0.06172839506172839,18.51851851851852,0)" xlink:href="#al"/><use transform="matrix(0.06172839506172839,0,0,0.06172839506172839,24.691358024691358,0)" xlink:href="#ai"/><use transform="matrix(0.06172839506172839,0,0,0.06172839506172839,37.03703703703704,0)" xlink:href="#aj"/><use transform="matrix(0.06172839506172839,0,0,0.06172839506172839,41.91358024691358,0)" xlink:href="#ah"/><use transform="matrix(0.06172839506172839,0,0,0.06172839506172839,54.25925925925926,0)" xlink:href="#as"/><use transform="matrix(0.06172839506172839,0,0,0.06172839506172839,65.37037037037037,0)" xlink:href="#aq"/><use transform="matrix(0.06172839506172839,0,0,0.06172839506172839,77.71604938271605,0)" xlink:href="#aa"/><use transform="matrix(0.06172839506172839,0,0,0.06172839506172839,88.82716049382717,0)" xlink:href="#al"/></g><g id="I"><use transform="matrix(0.06172839506172839,0,0,0.06172839506172839,0,0)" xlink:href="#al"/><use transform="matrix(0.06172839506172839,0,0,0.06172839506172839,6.172839506172839,0)" xlink:href="#aq"/><use transform="matrix(0.06172839506172839,0,0,0.06172839506172839,18.51851851851852,0)" xlink:href="#al"/><use transform="matrix(0.06172839506172839,0,0,0.06172839506172839,24.691358024691358,0)" xlink:href="#ai"/><use transform="matrix(0.06172839506172839,0,0,0.06172839506172839,37.03703703703704,0)" xlink:href="#aj"/><use transform="matrix(0.06172839506172839,0,0,0.06172839506172839,41.91358024691358,0)" xlink:href="#ah"/><use transform="matrix(0.06172839506172839,0,0,0.06172839506172839,54.25925925925926,0)" xlink:href="#ao"/><use transform="matrix(0.06172839506172839,0,0,0.06172839506172839,66.60493827160494,0)" xlink:href="#ai"/><use transform="matrix(0.06172839506172839,0,0,0.06172839506172839,78.95061728395062,0)" xlink:href="#aa"/><use transform="matrix(0.06172839506172839,0,0,0.06172839506172839,90.06172839506173,0)" xlink:href="#aa"/><use transform="matrix(0.06172839506172839,0,0,0.06172839506172839,101.17283950617285,0)" xlink:href="#ab"/><use transform="matrix(0.06172839506172839,0,0,0.06172839506172839,113.51851851851853,0)" xlink:href="#am"/><use transform="matrix(0.06172839506172839,0,0,0.06172839506172839,125.86419753086422,0)" xlink:href="#an"/><use transform="matrix(0.06172839506172839,0,0,0.06172839506172839,138.2098765432099,0)" xlink:href="#ab"/><use transform="matrix(0.06172839506172839,0,0,0.06172839506172839,150.55555555555557,0)" xlink:href="#ac"/><use transform="matrix(0.06172839506172839,0,0,0.06172839506172839,157.90123456790124,0)" xlink:href="#aa"/></g><g id="J"><use transform="matrix(0.06172839506172839,0,0,0.06172839506172839,0,0)" xlink:href="#ao"/><use transform="matrix(0.06172839506172839,0,0,0.06172839506172839,12.345679012345679,0)" xlink:href="#ai"/><use transform="matrix(0.06172839506172839,0,0,0.06172839506172839,24.691358024691358,0)" xlink:href="#aa"/><use transform="matrix(0.06172839506172839,0,0,0.06172839506172839,35.80246913580247,0)" xlink:href="#aa"/><use transform="matrix(0.06172839506172839,0,0,0.06172839506172839,46.91358024691358,0)" xlink:href="#ab"/><use transform="matrix(0.06172839506172839,0,0,0.06172839506172839,59.25925925925926,0)" xlink:href="#am"/><use transform="matrix(0.06172839506172839,0,0,0.06172839506172839,71.60493827160494,0)" xlink:href="#an"/><use transform="matrix(0.06172839506172839,0,0,0.06172839506172839,83.95061728395062,0)" xlink:href="#ab"/><use transform="matrix(0.06172839506172839,0,0,0.06172839506172839,96.2962962962963,0)" xlink:href="#ac"/><use transform="matrix(0.06172839506172839,0,0,0.06172839506172839,103.64197530864199,0)" xlink:href="#aa"/></g><g id="K"><use transform="matrix(0.06172839506172839,0,0,0.06172839506172839,0,0)" xlink:href="#af"/><use transform="matrix(0.06172839506172839,0,0,0.06172839506172839,4.876543209876543,0)" xlink:href="#ag"/><use transform="matrix(0.06172839506172839,0,0,0.06172839506172839,17.22222222222222,0)" xlink:href="#ah"/><use transform="matrix(0.06172839506172839,0,0,0.06172839506172839,29.5679012345679,0)" xlink:href="#ao"/><use transform="matrix(0.06172839506172839,0,0,0.06172839506172839,41.913580246913575,0)" xlink:href="#ai"/><use transform="matrix(0.06172839506172839,0,0,0.06172839506172839,54.25925925925925,0)" xlink:href="#aa"/><use transform="matrix(0.06172839506172839,0,0,0.06172839506172839,65.37037037037037,0)" xlink:href="#aa"/><use transform="matrix(0.06172839506172839,0,0,0.06172839506172839,76.48148148148148,0)" xlink:href="#ab"/><use transform="matrix(0.06172839506172839,0,0,0.06172839506172839,88.82716049382717,0)" xlink:href="#am"/><use transform="matrix(0.06172839506172839,0,0,0.06172839506172839,101.17283950617285,0)" xlink:href="#an"/><use transform="matrix(0.06172839506172839,0,0,0.06172839506172839,113.51851851851853,0)" xlink:href="#ab"/><use transform="matrix(0.06172839506172839,0,0,0.06172839506172839,125.86419753086422,0)" xlink:href="#ac"/></g><g id="L"><use transform="matrix(0.06172839506172839,0,0,0.06172839506172839,0,0)" xlink:href="#ao"/><use transform="matrix(0.06172839506172839,0,0,0.06172839506172839,12.345679012345679,0)" xlink:href="#ai"/><use transform="matrix(0.06172839506172839,0,0,0.06172839506172839,24.691358024691358,0)" xlink:href="#af"/><use transform="matrix(0.06172839506172839,0,0,0.06172839506172839,29.5679012345679,0)" xlink:href="#ag"/></g><path fill="#3a414a" d="M101-234c-31-9-42 10-38 44h38v23H63V0H32v-167H5v-23h27c-7-52 17-82 69-68v24" id="aI"/><g id="M"><use transform="matrix(0.06172839506172839,0,0,0.06172839506172839,0,0)" xlink:href="#as"/><use transform="matrix(0.06172839506172839,0,0,0.06172839506172839,11.11111111111111,0)" xlink:href="#aq"/><use transform="matrix(0.06172839506172839,0,0,0.06172839506172839,23.45679012345679,0)" xlink:href="#am"/><use transform="matrix(0.06172839506172839,0,0,0.06172839506172839,35.80246913580247,0)" xlink:href="#aI"/><use transform="matrix(0.06172839506172839,0,0,0.06172839506172839,41.97530864197531,0)" xlink:href="#af"/><use transform="matrix(0.06172839506172839,0,0,0.06172839506172839,46.851851851851855,0)" xlink:href="#ac"/><use transform="matrix(0.06172839506172839,0,0,0.06172839506172839,54.19753086419753,0)" xlink:href="#ak"/></g><path fill="#3a414a" d="M115-194c53 0 69 39 70 98 0 66-23 100-70 100C84 3 66-7 56-30L54 0H23l1-261h32v101c10-23 28-34 59-34zm-8 174c40 0 45-34 45-75 0-40-5-75-45-74-42 0-51 32-51 76 0 43 10 73 51 73" id="aJ"/><g id="N"><use transform="matrix(0.06172839506172839,0,0,0.06172839506172839,0,0)" xlink:href="#aJ"/><use transform="matrix(0.06172839506172839,0,0,0.06172839506172839,12.345679012345679,0)" xlink:href="#aq"/><use transform="matrix(0.06172839506172839,0,0,0.06172839506172839,24.691358024691358,0)" xlink:href="#aq"/><use transform="matrix(0.06172839506172839,0,0,0.06172839506172839,37.03703703703704,0)" xlink:href="#aj"/></g><path fill="#333" d="M25-224v-37h50v37H25zM25 0v-190h50V0H25" id="aK"/><g id="O"><use transform="matrix(0.04938271604938272,0,0,0.04938271604938272,0,0)" xlink:href="#aK"/><use transform="matrix(0.04938271604938272,0,0,0.04938271604938272,4.938271604938272,0)" xlink:href="#aF"/></g><use transform="matrix(0.04938271604938272,0,0,0.04938271604938272,0,0)" xlink:href="#ay" id="P"/><path fill="#3a414a" d="M143 0L79-87 56-68V0H24v-261h32v163l83-92h37l-77 82L181 0h-38" id="aL"/><g id="Q"><use transform="matrix(0.06172839506172839,0,0,0.06172839506172839,0,0)" xlink:href="#ao"/><use transform="matrix(0.06172839506172839,0,0,0.06172839506172839,12.345679012345679,0)" xlink:href="#af"/><use transform="matrix(0.06172839506172839,0,0,0.06172839506172839,17.22222222222222,0)" xlink:href="#as"/><use transform="matrix(0.06172839506172839,0,0,0.06172839506172839,28.333333333333332,0)" xlink:href="#aL"/><use transform="matrix(0.06172839506172839,0,0,0.06172839506172839,39.44444444444444,0)" xlink:href="#Z"/><use transform="matrix(0.06172839506172839,0,0,0.06172839506172839,51.79012345679012,0)" xlink:href="#ao"/><use transform="matrix(0.06172839506172839,0,0,0.06172839506172839,64.1358024691358,0)" xlink:href="#ah"/><use transform="matrix(0.06172839506172839,0,0,0.06172839506172839,76.48148148148148,0)" xlink:href="#ao"/><use transform="matrix(0.06172839506172839,0,0,0.06172839506172839,88.82716049382717,0)" xlink:href="#aq"/><use transform="matrix(0.06172839506172839,0,0,0.06172839506172839,101.17283950617285,0)" xlink:href="#af"/><use transform="matrix(0.06172839506172839,0,0,0.06172839506172839,106.0493827160494,0)" xlink:href="#am"/><use transform="matrix(0.06172839506172839,0,0,0.06172839506172839,118.39506172839508,0)" xlink:href="#al"/><use transform="matrix(0.06172839506172839,0,0,0.06172839506172839,124.56790123456791,0)" xlink:href="#aa"/></g><g id="R"><use transform="matrix(0.06172839506172839,0,0,0.06172839506172839,0,0)" xlink:href="#af"/><use transform="matrix(0.06172839506172839,0,0,0.06172839506172839,4.876543209876543,0)" xlink:href="#ag"/><use transform="matrix(0.06172839506172839,0,0,0.06172839506172839,17.22222222222222,0)" xlink:href="#ah"/><use transform="matrix(0.06172839506172839,0,0,0.06172839506172839,29.5679012345679,0)" xlink:href="#ao"/><use transform="matrix(0.06172839506172839,0,0,0.06172839506172839,41.913580246913575,0)" xlink:href="#af"/><use transform="matrix(0.06172839506172839,0,0,0.06172839506172839,46.79012345679012,0)" xlink:href="#as"/><use transform="matrix(0.06172839506172839,0,0,0.06172839506172839,57.90123456790123,0)" xlink:href="#aL"/><use transform="matrix(0.06172839506172839,0,0,0.06172839506172839,69.01234567901234,0)" xlink:href="#Z"/><use transform="matrix(0.06172839506172839,0,0,0.06172839506172839,81.35802469135803,0)" xlink:href="#ao"/><use transform="matrix(0.06172839506172839,0,0,0.06172839506172839,93.70370370370371,0)" xlink:href="#ah"/><use transform="matrix(0.06172839506172839,0,0,0.06172839506172839,106.0493827160494,0)" xlink:href="#ao"/><use transform="matrix(0.06172839506172839,0,0,0.06172839506172839,118.39506172839508,0)" xlink:href="#aq"/><use transform="matrix(0.06172839506172839,0,0,0.06172839506172839,130.74074074074076,0)" xlink:href="#af"/><use transform="matrix(0.06172839506172839,0,0,0.06172839506172839,135.6172839506173,0)" xlink:href="#am"/><use transform="matrix(0.06172839506172839,0,0,0.06172839506172839,147.96296296296296,0)" xlink:href="#al"/></g><g id="S"><use transform="matrix(0.06172839506172839,0,0,0.06172839506172839,0,0)" xlink:href="#aa"/><use transform="matrix(0.06172839506172839,0,0,0.06172839506172839,11.11111111111111,0)" xlink:href="#ab"/><use transform="matrix(0.06172839506172839,0,0,0.06172839506172839,23.45679012345679,0)" xlink:href="#ac"/><use transform="matrix(0.06172839506172839,0,0,0.06172839506172839,30.80246913580247,0)" xlink:href="#al"/><use transform="matrix(0.06172839506172839,0,0,0.06172839506172839,36.97530864197531,0)" xlink:href="#af"/><use transform="matrix(0.06172839506172839,0,0,0.06172839506172839,41.851851851851855,0)" xlink:href="#ai"/><use transform="matrix(0.06172839506172839,0,0,0.06172839506172839,54.19753086419753,0)" xlink:href="#aj"/></g><g id="T"><use transform="matrix(0.06172839506172839,0,0,0.06172839506172839,0,0)" xlink:href="#as"/><use transform="matrix(0.06172839506172839,0,0,0.06172839506172839,11.11111111111111,0)" xlink:href="#aq"/><use transform="matrix(0.06172839506172839,0,0,0.06172839506172839,23.45679012345679,0)" xlink:href="#Z"/><use transform="matrix(0.06172839506172839,0,0,0.06172839506172839,35.80246913580247,0)" xlink:href="#ac"/><use transform="matrix(0.06172839506172839,0,0,0.06172839506172839,43.148148148148145,0)" xlink:href="#aa"/><use transform="matrix(0.06172839506172839,0,0,0.06172839506172839,54.25925925925925,0)" xlink:href="#ab"/><use transform="matrix(0.06172839506172839,0,0,0.06172839506172839,66.60493827160494,0)" xlink:href="#ah"/><use transform="matrix(0.06172839506172839,0,0,0.06172839506172839,78.95061728395062,0)" xlink:href="#ak"/><use transform="matrix(0.06172839506172839,0,0,0.06172839506172839,97.4074074074074,0)" xlink:href="#ab"/><use transform="matrix(0.06172839506172839,0,0,0.06172839506172839,109.75308641975309,0)" xlink:href="#aa"/><use transform="matrix(0.06172839506172839,0,0,0.06172839506172839,120.8641975308642,0)" xlink:href="#aa"/><use transform="matrix(0.06172839506172839,0,0,0.06172839506172839,131.97530864197532,0)" xlink:href="#ai"/><use transform="matrix(0.06172839506172839,0,0,0.06172839506172839,144.320987654321,0)" xlink:href="#an"/><use transform="matrix(0.06172839506172839,0,0,0.06172839506172839,156.66666666666666,0)" xlink:href="#ab"/><use transform="matrix(0.06172839506172839,0,0,0.06172839506172839,169.01234567901233,0)" xlink:href="#aa"/></g><g id="U"><use transform="matrix(0.06172839506172839,0,0,0.06172839506172839,0,0)" xlink:href="#af"/><use transform="matrix(0.06172839506172839,0,0,0.06172839506172839,4.876543209876543,0)" xlink:href="#ag"/><use transform="matrix(0.06172839506172839,0,0,0.06172839506172839,17.22222222222222,0)" xlink:href="#ah"/><use transform="matrix(0.06172839506172839,0,0,0.06172839506172839,29.5679012345679,0)" xlink:href="#as"/><use transform="matrix(0.06172839506172839,0,0,0.06172839506172839,40.67901234567901,0)" xlink:href="#aq"/><use transform="matrix(0.06172839506172839,0,0,0.06172839506172839,53.02469135802469,0)" xlink:href="#Z"/><use transform="matrix(0.06172839506172839,0,0,0.06172839506172839,65.37037037037037,0)" xlink:href="#ac"/><use transform="matrix(0.06172839506172839,0,0,0.06172839506172839,72.71604938271605,0)" xlink:href="#aa"/><use transform="matrix(0.06172839506172839,0,0,0.06172839506172839,83.82716049382717,0)" xlink:href="#ab"/><use transform="matrix(0.06172839506172839,0,0,0.06172839506172839,96.17283950617285,0)" xlink:href="#ah"/><use transform="matrix(0.06172839506172839,0,0,0.06172839506172839,108.51851851851853,0)" xlink:href="#ak"/><use transform="matrix(0.06172839506172839,0,0,0.06172839506172839,126.97530864197533,0)" xlink:href="#ab"/><use transform="matrix(0.06172839506172839,0,0,0.06172839506172839,139.320987654321,0)" xlink:href="#aa"/><use transform="matrix(0.06172839506172839,0,0,0.06172839506172839,150.4320987654321,0)" xlink:href="#aa"/><use transform="matrix(0.06172839506172839,0,0,0.06172839506172839,161.54320987654322,0)" xlink:href="#ai"/><use transform="matrix(0.06172839506172839,0,0,0.06172839506172839,173.88888888888889,0)" xlink:href="#an"/><use transform="matrix(0.06172839506172839,0,0,0.06172839506172839,186.23456790123456,0)" xlink:href="#ab"/><use transform="matrix(0.06172839506172839,0,0,0.06172839506172839,198.58024691358023,0)" xlink:href="#aa"/></g><g id="V"><use transform="matrix(0.06172839506172839,0,0,0.06172839506172839,0,0)" xlink:href="#aJ"/><use transform="matrix(0.06172839506172839,0,0,0.06172839506172839,12.345679012345679,0)" xlink:href="#aq"/><use transform="matrix(0.06172839506172839,0,0,0.06172839506172839,24.691358024691358,0)" xlink:href="#ag"/><use transform="matrix(0.06172839506172839,0,0,0.06172839506172839,37.03703703703704,0)" xlink:href="#at"/></g><g id="W"><use transform="matrix(0.04938271604938272,0,0,0.04938271604938272,0,0)" xlink:href="#av"/><use transform="matrix(0.04938271604938272,0,0,0.04938271604938272,9.876543209876544,0)" xlink:href="#aw"/><use transform="matrix(0.04938271604938272,0,0,0.04938271604938272,16.790123456790127,0)" xlink:href="#ax"/><use transform="matrix(0.04938271604938272,0,0,0.04938271604938272,26.666666666666668,0)" xlink:href="#ay"/><use transform="matrix(0.04938271604938272,0,0,0.04938271604938272,36.543209876543216,0)" xlink:href="#az"/><use transform="matrix(0.04938271604938272,0,0,0.04938271604938272,42.41975308641976,0)" xlink:href="#ax"/><use transform="matrix(0.04938271604938272,0,0,0.04938271604938272,52.2962962962963,0)" xlink:href="#aF"/></g><g id="X"><use transform="matrix(0.06172839506172839,0,0,0.06172839506172839,0,0)" xlink:href="#an"/><use transform="matrix(0.06172839506172839,0,0,0.06172839506172839,12.345679012345679,0)" xlink:href="#ac"/><use transform="matrix(0.06172839506172839,0,0,0.06172839506172839,19.691358024691358,0)" xlink:href="#aq"/><use transform="matrix(0.06172839506172839,0,0,0.06172839506172839,32.03703703703704,0)" xlink:href="#Z"/><use transform="matrix(0.06172839506172839,0,0,0.06172839506172839,44.382716049382715,0)" xlink:href="#ao"/><use transform="matrix(0.06172839506172839,0,0,0.06172839506172839,56.72839506172839,0)" xlink:href="#ah"/><use transform="matrix(0.06172839506172839,0,0,0.06172839506172839,69.07407407407408,0)" xlink:href="#ak"/><use transform="matrix(0.06172839506172839,0,0,0.06172839506172839,87.53086419753086,0)" xlink:href="#ab"/><use transform="matrix(0.06172839506172839,0,0,0.06172839506172839,99.87654320987654,0)" xlink:href="#aa"/><use transform="matrix(0.06172839506172839,0,0,0.06172839506172839,110.98765432098766,0)" xlink:href="#aa"/><use transform="matrix(0.06172839506172839,0,0,0.06172839506172839,122.09876543209877,0)" xlink:href="#ai"/><use transform="matrix(0.06172839506172839,0,0,0.06172839506172839,134.44444444444446,0)" xlink:href="#an"/><use transform="matrix(0.06172839506172839,0,0,0.06172839506172839,146.79012345679013,0)" xlink:href="#ab"/><use transform="matrix(0.06172839506172839,0,0,0.06172839506172839,159.1358024691358,0)" xlink:href="#aa"/></g><g id="Y"><use transform="matrix(0.06172839506172839,0,0,0.06172839506172839,0,0)" xlink:href="#af"/><use transform="matrix(0.06172839506172839,0,0,0.06172839506172839,4.876543209876543,0)" xlink:href="#ag"/><use transform="matrix(0.06172839506172839,0,0,0.06172839506172839,17.22222222222222,0)" xlink:href="#ah"/><use transform="matrix(0.06172839506172839,0,0,0.06172839506172839,29.5679012345679,0)" xlink:href="#an"/><use transform="matrix(0.06172839506172839,0,0,0.06172839506172839,41.913580246913575,0)" xlink:href="#ac"/><use transform="matrix(0.06172839506172839,0,0,0.06172839506172839,49.25925925925925,0)" xlink:href="#aq"/><use transform="matrix(0.06172839506172839,0,0,0.06172839506172839,61.60493827160493,0)" xlink:href="#Z"/><use transform="matrix(0.06172839506172839,0,0,0.06172839506172839,73.9506172839506,0)" xlink:href="#ao"/><use transform="matrix(0.06172839506172839,0,0,0.06172839506172839,86.29629629629629,0)" xlink:href="#ah"/><use transform="matrix(0.06172839506172839,0,0,0.06172839506172839,98.64197530864197,0)" xlink:href="#ak"/><use transform="matrix(0.06172839506172839,0,0,0.06172839506172839,117.09876543209876,0)" xlink:href="#ab"/><use transform="matrix(0.06172839506172839,0,0,0.06172839506172839,129.44444444444443,0)" xlink:href="#aa"/><use transform="matrix(0.06172839506172839,0,0,0.06172839506172839,140.55555555555554,0)" xlink:href="#aa"/><use transform="matrix(0.06172839506172839,0,0,0.06172839506172839,151.66666666666666,0)" xlink:href="#ai"/><use transform="matrix(0.06172839506172839,0,0,0.06172839506172839,164.01234567901233,0)" xlink:href="#an"/><use transform="matrix(0.06172839506172839,0,0,0.06172839506172839,176.358024691358,0)" xlink:href="#ab"/><use transform="matrix(0.06172839506172839,0,0,0.06172839506172839,188.70370370370367,0)" xlink:href="#aa"/></g></defs></g></svg>